<?xml version="1.0" encoding="UTF-8"?>
<svg id="Layer_2" xmlns="http://www.w3.org/2000/svg" viewBox="0 0 244.94 358.46">
  <defs>
    <style>
      .cls-1 {
        fill: #b2e513;
      }

      .cls-2 {
        fill: #432812;
      }

      .cls-3 {
        fill: #a9c11a;
      }

      .cls-4 {
        fill: #fbd205;
      }

      .cls-5 {
        fill: #382208;
      }

      .cls-6 {
        fill: #f5881f;
      }

      .cls-7 {
        fill: #74ba2a;
      }

      .cls-8 {
        fill: #7dd82e;
      }

      .cls-9 {
        fill: #fff08a;
      }

      .cls-10 {
        fill: #e3ff6c;
      }

      .cls-11 {
        fill: #faa81d;
      }

      .cls-12 {
        fill: #ec2224;
      }

      .cls-13 {
        fill: #583614;
      }

      .cls-14 {
        fill: #b0f467;
      }

      .cls-15 {
        fill: #372411;
      }

      .cls-16 {
        fill: #e1d6aa;
      }

      .cls-17 {
        fill: #fff2ba;
      }
    </style>
  </defs>
  <g id="Layer_1-2" data-name="Layer_1">
    <g>
      <g>
        <path class="cls-5" d="M91.12,352.12c2.24,0,4.17.5,5.69,1.1v-79.03c0-.97.7-1.85,1.66-1.94,1.11-.11,2.04.75,2.04,1.84v81.24s0,0,0,0v1.68c0,.8-.65,1.45-1.45,1.45h-8.35c-7.53,0-5.28-6.34.41-6.34Z"/>
        <path class="cls-5" d="M150.5,350.76c-2.21.4-4.01,1.23-5.4,2.09l-14-77.78c-.17-.95-1.01-1.7-1.98-1.62-1.11.09-1.87,1.1-1.68,2.17l14.39,79.96s0,0,0,0l.3,1.65c.14.79.9,1.32,1.69,1.17l8.22-1.48c7.41-1.33,4.08-7.18-1.53-6.17Z"/>
      </g>
      <g>
        <path class="cls-1" d="M76.54,1.82S110.16-.49,121.75,21.13c11.59,21.62,1.19,50.92,1.19,50.92,0,0-31.38-5.57-42.97-27.19-11.59-21.62-3.43-43.04-3.43-43.04Z"/>
        <path class="cls-10" d="M74.71,8.95c7.43-.13,35.97.69,46.74,20.8,3.44,6.43,5.08,13.48,5.64,20.32.54-9.13-.41-19.74-5.35-28.94C110.16-.49,76.54,1.82,76.54,1.82c0,0-1.02,2.69-1.83,7.12Z"/>
        <path class="cls-3" d="M90.95,57.72c13.79,11.09,32,14.33,32,14.33,0,0,2.59-7.27,3.74-17.25-3.41-.39-6.88-.58-10.4-.58-8.78,0-17.28,1.22-25.34,3.5Z"/>
        <path class="cls-5" d="M122.64,73.76c-1.32-.23-32.35-5.97-44.2-28.08-11.83-22.06-3.87-43.57-3.52-44.48.24-.63.83-1.07,1.51-1.12,1.42-.1,34.88-2.13,46.86,20.22,11.82,22.04,1.74,51.1,1.3,52.33-.25.7-.91,1.16-1.64,1.16-.1,0-.2,0-.31-.03ZM77.81,3.52c-1.39,4.52-5.93,22.57,3.69,40.52,9.64,17.98,33.99,24.56,40.26,25.98,1.84-6.08,8.1-30.07-1.55-48.07C111.09,4.94,87.04,3.5,79.18,3.5c-.53,0-.99,0-1.37.02Z"/>
        <path class="cls-5" d="M122.94,73.79c.17,0,.34-.02.51-.08.92-.28,1.44-1.26,1.15-2.17-.31-1.01-7.82-24.97-28.8-48.07-.65-.71-1.75-.76-2.46-.12-.71.65-.77,1.75-.12,2.46,20.43,22.5,27.97,46.52,28.05,46.76.23.75.92,1.23,1.66,1.23Z"/>
      </g>
      <g>
        <path class="cls-8" d="M203.06,19.87s-33.52-16.96-54.8.21c-21.28,17.17-23.32,51.78-23.32,51.78,0,0,34.65,7.9,55.93-9.28,21.28-17.17,22.2-42.71,22.2-42.71Z"/>
        <path class="cls-14" d="M128.1,54.22c3.66-8.98,9.19-18.25,17.53-24.98,19.63-15.84,49.16-4.08,56.16-.93,1.16-5.08,1.28-8.44,1.28-8.44,0,0-33.52-16.97-54.81.21-11.24,9.07-17.12,23.01-20.15,34.14Z"/>
        <path class="cls-7" d="M124.93,71.86s22.85,5.21,42.83-2.05c-11.68-7.81-25.25-13.04-39.87-14.86-2.54,9.59-2.97,16.91-2.97,16.91Z"/>
        <path class="cls-5" d="M124.54,73.55c-.83-.19-1.4-.95-1.35-1.8.08-1.44,2.34-35.58,23.97-53.03,21.91-17.68,55.27-1.12,56.68-.41.61.31.98.94.95,1.62-.04,1.08-1.19,26.53-22.85,44-11.51,9.29-26.56,11.52-38.37,11.52-10.44,0-18.36-1.75-19.04-1.9ZM149.35,21.43c-17.94,14.48-21.85,42.26-22.55,49.02,6.76,1.23,35.02,5.25,52.96-9.23,17.89-14.43,20.97-35.25,21.46-40.29-5.73-2.6-33.78-14.11-51.88.5Z"/>
        <path class="cls-5" d="M124.93,73.6c.51,0,1.02-.23,1.37-.66.18-.23,18.71-23.34,49.48-37.6.87-.4,1.25-1.44.85-2.31-.4-.87-1.44-1.25-2.31-.85-31.56,14.62-50.56,38.36-50.75,38.59-.6.75-.47,1.85.29,2.45.32.25.7.38,1.08.38Z"/>
      </g>
      <g>
        <circle class="cls-11" cx="112.91" cy="170.49" r="111.08" transform="translate(-87.48 129.77) rotate(-45)"/>
        <path class="cls-6" d="M3.61,190.84c9.56,51.63,54.81,90.74,109.22,90.74s99.67-39.11,109.23-90.75c-20.02,40.04-61.41,67.54-109.23,67.54S23.61,230.88,3.61,190.84Z"/>
        <path class="cls-9" d="M17.94,112.68c22.96-26.66,56.95-43.53,94.88-43.53s71.9,16.86,94.86,43.51c-19.51-31.94-54.69-53.26-94.86-53.26s-75.37,21.33-94.88,53.28Z"/>
        <path class="cls-15" d="M0,170.49C0,108.28,50.61,57.66,112.82,57.66s112.82,50.61,112.82,112.82-50.61,112.82-112.82,112.82S0,232.7,0,170.49ZM3.48,170.49c0,60.29,49.05,109.34,109.34,109.34s109.34-49.05,109.34-109.34-49.05-109.34-109.34-109.34S3.48,110.2,3.48,170.49Z"/>
      </g>
      <g>
        <path class="cls-6" d="M200.72,196.68c-2.57,3.15-3.14,6.94-1.28,8.45,1.86,1.51,5.44.18,8.01-2.98,2.57-3.15,3.14-6.94,1.28-8.45-1.86-1.51-5.44-.18-8.01,2.98Z"/>
        <path class="cls-6" d="M191.07,212.56c-1.55,1.47-2.11,3.41-1.24,4.32.87.91,2.83.46,4.38-1.01,1.55-1.47,2.11-3.41,1.24-4.32-.87-.91-2.83-.46-4.38,1.01Z"/>
      </g>
      <g>
        <path class="cls-4" d="M88.96,76.01c-2.65.83-4.4,2.76-3.91,4.31.49,1.56,3.02,2.15,5.67,1.32,2.65-.83,4.4-2.76,3.91-4.31-.49-1.56-3.02-2.15-5.67-1.32Z"/>
        <path class="cls-4" d="M76.43,80.77c-1.92.6-3.19,2-2.83,3.13.35,1.13,2.19,1.56,4.11.96,1.92-.6,3.19-2,2.83-3.13-.35-1.13-2.19-1.56-4.11-.96Z"/>
      </g>
      <g>
        <path class="cls-4" d="M119.35,163.08c.55-.78,1.62-1.01,2.49-.62l5.11,2.28c.95.42,1.49,1.5,1.16,2.48-.38,1.12-1.63,1.64-2.68,1.17l-5.28-2.36c-1.12-.5-1.54-1.91-.8-2.96Z"/>
        <path class="cls-4" d="M108.56,164.61c.55-.78,1.62-1.01,2.49-.62l5.11,2.28c.95.42,1.49,1.5,1.16,2.48-.38,1.12-1.63,1.64-2.68,1.17l-5.28-2.36c-1.12-.5-1.54-1.91-.8-2.96Z"/>
        <path class="cls-4" d="M97.78,166.13c.55-.78,1.62-1.01,2.49-.62l5.11,2.28c.95.42,1.49,1.5,1.16,2.48-.38,1.12-1.63,1.64-2.68,1.17l-5.28-2.36c-1.12-.5-1.54-1.91-.8-2.96Z"/>
      </g>
      <g>
        <g>
          <g>
            <path class="cls-13" d="M112.26,185.04c26.95,0,64.11,1.63,64.11,1.63,0,60.09-42.15,60.09-64.11,60.09s-64.11,0-64.11-60.09c0,0,37.16-1.63,64.11-1.63Z"/>
            <path class="cls-15" d="M71.11,240.76c-16.39-9.27-24.7-27.47-24.7-54.09,0-.93.73-1.7,1.67-1.74.37-.02,37.51-1.63,64.19-1.63s63.82,1.62,64.19,1.63c.93.04,1.67.81,1.67,1.74,0,26.62-8.31,44.82-24.7,54.09-13.68,7.74-30.21,7.74-41.15,7.74s-27.47,0-41.15-7.74ZM112.26,186.78c-23.37,0-54.81,1.24-62.36,1.56.77,56.67,40.77,56.68,62.36,56.68s61.59,0,62.36-56.68c-7.55-.31-38.99-1.56-62.36-1.56Z"/>
          </g>
          <ellipse class="cls-2" cx="112.26" cy="216.3" rx="38.79" ry="29.84"/>
          <g>
            <path class="cls-17" d="M55.3,186.37c.84,9.43,6.91,17.19,14.95,18.67,9.78,1.78,24.05,3.55,42.03,3.55s32.25-1.78,42.02-3.55c8.04-1.47,14.1-9.24,14.94-18.67-12.11-.46-37.26-1.33-56.96-1.33s-44.86.87-56.96,1.33Z"/>
            <path class="cls-16" d="M55.3,186.37c.23,2.56.84,5,1.78,7.21,12.66-.47,36.41-1.26,55.19-1.26s42.52.79,55.19,1.26c.94-2.21,1.55-4.65,1.78-7.21-12.11-.46-37.26-1.33-56.96-1.33s-44.86.87-56.96,1.33Z"/>
            <path class="cls-15" d="M69.93,206.75c-8.72-1.6-15.46-9.91-16.37-20.23-.04-.48.11-.95.43-1.3.32-.36.76-.57,1.24-.59,13.06-.5,37.84-1.33,57.03-1.33s43.96.84,57.03,1.33c.48.02.92.23,1.24.59.32.36.47.83.43,1.3-.91,10.31-7.64,18.63-16.36,20.23-8.98,1.63-23.62,3.58-42.33,3.58s-33.35-1.95-42.34-3.58ZM112.26,186.78c-18.24,0-41.56.76-55,1.26,1.33,7.9,6.61,14.06,13.29,15.28,8.85,1.61,23.27,3.52,41.71,3.52s32.86-1.92,41.7-3.52c6.68-1.22,11.95-7.39,13.29-15.29-13.44-.5-36.78-1.26-55-1.26Z"/>
          </g>
          <g>
            <path class="cls-12" d="M79.45,242.64c11.46,4.11,23.83,4.11,32.81,4.11s21.34,0,32.82-4.11c-3.14-12.39-11.67-15.49-19.44-15.49-7.03,0-11.45,1.89-13.38,2.95-1.93-1.06-6.35-2.95-13.38-2.95-7.77,0-16.3,3.1-19.43,15.49Z"/>
            <path class="cls-15" d="M78.86,244.28c-.84-.3-1.32-1.2-1.1-2.06,3.5-13.89,13.42-16.81,21.12-16.81,6.51,0,10.95,1.56,13.38,2.73,2.43-1.18,6.87-2.73,13.38-2.73,7.7,0,17.61,2.92,21.13,16.8.22.87-.26,1.76-1.1,2.07-11.76,4.22-24.27,4.22-33.41,4.22s-21.65,0-33.4-4.22ZM125.64,228.89c-6.58,0-10.68,1.71-12.54,2.73-.52.29-1.15.29-1.67,0-1.86-1.02-5.96-2.73-12.54-2.73-8.87,0-14.69,4.25-17.31,12.63,10.75,3.49,22.21,3.49,30.68,3.49s19.94,0,30.69-3.49c-2.63-8.39-8.45-12.63-17.32-12.63Z"/>
          </g>
        </g>
        <g>
          <g>
            <circle class="cls-17" cx="70.94" cy="134.04" r="29.79" transform="translate(-20.56 13.09) rotate(-9.22)"/>
            <path class="cls-15" d="M39.41,134.04c0-17.39,14.15-31.53,31.53-31.53s31.53,14.15,31.53,31.53-14.15,31.53-31.53,31.53-31.53-14.15-31.53-31.53ZM42.89,134.04c0,15.47,12.58,28.05,28.05,28.05s28.05-12.58,28.05-28.05-12.58-28.05-28.05-28.05-28.05,12.58-28.05,28.05Z"/>
          </g>
          <path class="cls-15" d="M86.93,134.04c0,6.22-5.04,11.27-11.27,11.27s-11.27-5.04-11.27-11.27,5.04-11.27,11.27-11.27,11.27,5.04,11.27,11.27Z"/>
        </g>
        <g>
          <g>
            <circle class="cls-17" cx="154.21" cy="134.04" r="29.79" transform="translate(-28.65 225.22) rotate(-67.5)"/>
            <path class="cls-15" d="M122.67,134.04c0-17.39,14.15-31.53,31.53-31.53s31.53,14.15,31.53,31.53-14.15,31.53-31.53,31.53-31.53-14.15-31.53-31.53ZM126.16,134.04c0,15.47,12.58,28.05,28.05,28.05s28.05-12.58,28.05-28.05-12.58-28.05-28.05-28.05-28.05,12.58-28.05,28.05Z"/>
          </g>
          <path class="cls-15" d="M138.22,134.04c0,6.22,5.04,11.27,11.27,11.27s11.27-5.04,11.27-11.27-5.04-11.27-11.27-11.27-11.27,5.04-11.27,11.27Z"/>
        </g>
      </g>
      <g>
        <path class="cls-11" d="M153.88,244.07s-1.39-15.84-5.3-24.5c-3.9-8.67-9.75-18.58.07-21.32,9.82-2.75,17.27,17.37,17.27,17.37l23.7-39.52c2.28-3.8,7.2-5.03,10.99-2.75h0c3.8,2.28,5.03,7.2,2.75,10.99l5.43-9.05c2.28-3.8,7.2-5.03,10.99-2.75h0c3.8,2.28,5.03,7.2,2.75,10.99l-2.75,4.59c2.28-3.8,7.2-5.03,10.99-2.75h0c3.8,2.28,5.03,7.2,2.75,10.99l-4.89,8.15c2.28-3.8,7.2-5.03,10.99-2.75h0c3.8,2.28,5.03,7.2,2.75,10.99l-28.97,48.31c-9.1,15.18-28.79,20.11-43.97,11h0c-10.17-6.1-15.73-16.94-15.57-28"/>
        <path class="cls-6" d="M228.99,184.34c2.51,2.57,3.02,6.63,1.02,9.8l-18.37,30.62c-1.22,2.04-.6,4.68,1.4,5.95h0l20.19-34.55c2.35-3.73,1.22-8.66-2.51-11.01-.55-.35-1.14-.62-1.73-.82Z"/>
        <path class="cls-6" d="M217.99,171.98c2.52,2.48,3.11,6.46,1.21,9.63l-21.35,35.51c-1.11,1.84-.49,4.24,1.37,5.31h0l23.18-38.9c2.23-3.72,1.03-8.54-2.68-10.78-.55-.33-1.13-.58-1.72-.77Z"/>
        <path class="cls-6" d="M198.77,172.68c2.53,2.47,3.14,6.43,1.25,9.61l-15.87,26.47c-1.12,1.87-.53,4.28,1.32,5.43h0l17.76-29.99c2.22-3.73.98-8.54-2.75-10.76-.55-.33-1.13-.58-1.72-.76Z"/>
        <path class="cls-6" d="M157.02,258.37c.91,1.93,2.02,3.77,3.32,5.5,2.41,3.2,5.46,6,9.11,8.19,15.18,9.11,34.86,4.18,43.97-11l28.97-48.31c.77-1.29,1.15-2.71,1.15-4.12,0-1.87-.65-3.71-1.89-5.17-.19.78-.5,1.54-.93,2.27l-29.65,49.43c-9.32,15.53-29.46,20.57-44.99,11.25-3.61-2.16-6.64-4.91-9.06-8.04Z"/>
        <path class="cls-15" d="M168.72,273.28c-10.2-6.12-16.42-17.3-16.25-29.2-.14-1.49-1.59-15.97-5.17-23.93-.39-.86-.79-1.73-1.2-2.6-2.74-5.88-5.58-11.97-3.57-16.34.95-2.06,2.88-3.52,5.74-4.32,8.7-2.43,15.35,9.98,17.87,15.61l22.27-37.13c2.67-4.45,8.47-5.91,12.93-3.23,2.13,1.28,3.65,3.31,4.27,5.72l1.97-3.29c2.67-4.46,8.47-5.91,12.93-3.23,4.08,2.45,5.64,7.53,3.82,11.79.01,0,.03,0,.04-.01,2.44-.61,4.97-.23,7.13,1.06,4.46,2.67,5.91,8.47,3.23,12.93l-1.44,2.39c2.32-.56,4.85-.25,7.06,1.07,2.16,1.29,3.68,3.35,4.29,5.79.61,2.44.23,4.97-1.06,7.13l-28.97,48.31c-6.27,10.45-17.37,16.24-28.75,16.24-5.85,0-11.78-1.53-17.15-4.76ZM229.85,205.24l-14.96,24.94c-.4.67-1.27.88-1.93.48-.67-.4-.88-1.27-.48-1.93l19.85-33.09c1.87-3.12.86-7.19-2.27-9.06-1.51-.91-3.29-1.17-5-.74-1.71.43-3.15,1.5-4.06,3.01l-19.85,33.09c-.4.67-1.26.88-1.93.48-.67-.4-.88-1.27-.48-1.93l22.6-37.68c1.87-3.12.86-7.19-2.27-9.06-3.12-1.87-7.19-.86-9.06,2.27l-5.4,9.01s-.02.03-.02.04l-17.17,28.64c-.4.67-1.26.88-1.93.48-.67-.4-.88-1.27-.48-1.93l17.19-28.67c1.85-3.12.82-7.16-2.29-9.03-3.12-1.87-7.19-.86-9.06,2.27l-23.7,39.52c-.28.46-.8.73-1.34.68-.54-.05-1-.41-1.19-.91-1.95-5.26-8.55-18.47-15.57-16.51-2.06.58-3.35,1.49-3.94,2.78-1.47,3.19,1.09,8.67,3.56,13.97.41.88.82,1.76,1.21,2.63,3.96,8.78,5.36,24.3,5.42,24.96,0,.09,0,.18,0,.27-.12,10.86,5.58,21.06,14.89,26.64,14.49,8.69,33.35,3.97,42.04-10.52l28.97-48.31c.91-1.51,1.17-3.29.74-5-.43-1.71-1.5-3.15-3.01-4.06-1.06-.64-2.23-.94-3.39-.94-2.25,0-4.44,1.14-5.68,3.21Z"/>
      </g>
    </g>
  </g>
</svg>