<?xml version="1.0" encoding="UTF-8"?>
<svg id="Layer_2" xmlns="http://www.w3.org/2000/svg" viewBox="0 0 1271.12 1912.61">
  <defs>
    <style>
      .cls-1 {
        fill: #f5c627;
      }

      .cls-2 {
        fill: #b2e513;
      }

      .cls-3 {
        fill: #fbd205;
      }

      .cls-4 {
        fill: #382208;
      }

      .cls-5 {
        fill: #f5881f;
      }

      .cls-6 {
        fill: #f68f1e;
      }

      .cls-7 {
        fill: #ed932a;
      }

      .cls-8 {
        fill: #7dd82e;
      }

      .cls-9 {
        fill: #fff08a;
      }

      .cls-10 {
        fill: #ec712a;
      }

      .cls-11 {
        fill: #f5af29;
      }

      .cls-12 {
        fill: #ec812a;
      }

      .cls-13 {
        fill: #e3ff6c;
      }

      .cls-14 {
        fill: #faa81d;
      }

      .cls-15 {
        fill: #fff;
        opacity: .35;
      }

      .cls-16 {
        fill: #ec6e2a;
      }

      .cls-17 {
        fill: #eb5729;
      }

      .cls-18 {
        fill: #b0f467;
      }

      .cls-19 {
        fill: #372411;
      }

      .cls-20 {
        fill: #8ed5f1;
      }

      .cls-21 {
        fill: #fff2ba;
      }
    </style>
  </defs>
  <g id="Layer_1-2" data-name="Layer_1">
    <g>
      <path class="cls-4" d="M482.21,1878.43c12.08,0,22.46,2.69,30.64,5.95v-425.71c0-5.21,3.75-9.95,8.93-10.48,5.96-.6,10.99,4.06,10.99,9.9v437.63s.03.02.03.02v9.03c0,4.33-3.51,7.83-7.83,7.83h-44.98c-40.54,0-28.46-34.17,2.22-34.17Z"/>
      <path class="cls-4" d="M812.8,1871.11c-11.89,2.14-21.63,6.63-29.1,11.28l-75.41-418.98c-.92-5.13-5.45-9.13-10.64-8.73-5.97.47-10.1,5.95-9.06,11.69l77.52,430.71s-.02.03-.02.03l1.6,8.89c.77,4.26,4.84,7.09,9.1,6.32l44.26-7.97c39.9-7.18,21.96-38.68-8.24-33.24Z"/>
      <g>
        <path class="cls-2" d="M410.5,9.79s180.29-12.41,242.44,103.53c62.15,115.93,6.41,273.09,6.41,273.09,0,0-168.3-29.88-230.46-145.81-62.15-115.93-18.4-230.81-18.4-230.81Z"/>
        <path class="cls-13" d="M400.67,47.98c39.83-.7,192.89,3.69,250.69,111.55,18.44,34.46,27.22,72.28,30.26,108.98,2.89-48.98-2.2-105.85-28.67-155.2C590.8-2.64,410.48,9.78,410.48,9.78c0,0-5.46,14.43-9.81,38.19Z"/>
        <path class="cls-4" d="M657.72,395.6c-7.05-1.25-173.49-32.03-237.05-150.6-63.44-118.33-20.74-233.69-18.89-238.54,1.3-3.4,4.45-5.74,8.09-5.99,7.6-.52,187.05-11.44,251.31,108.43,63.38,118.21,9.31,274.05,6.98,280.62-1.34,3.78-4.9,6.22-8.8,6.22-.54,0-1.09-.05-1.64-.14ZM417.32,18.87c-7.46,24.25-31.8,121.07,19.8,217.31,51.68,96.41,182.31,131.71,215.9,139.35,9.88-32.62,43.44-161.26-8.32-257.81-48.91-91.23-177.92-98.94-220.06-98.94-2.86,0-5.32.03-7.33.08Z"/>
        <path class="cls-4" d="M659.35,395.75c.91,0,1.83-.13,2.74-.41,4.93-1.51,7.7-6.73,6.19-11.66-1.66-5.41-41.92-133.9-154.44-257.83-3.47-3.82-9.38-4.1-13.19-.64-3.82,3.47-4.1,9.37-.64,13.19,109.58,120.69,150.02,249.47,150.41,250.75,1.24,4.02,4.93,6.6,8.93,6.6Z"/>
      </g>
      <g>
        <path class="cls-8" d="M1089.02,106.56s-179.78-90.98-293.92,1.12c-114.14,92.1-125.09,277.69-125.09,277.69,0,0,185.82,42.35,299.96-49.75s119.05-229.06,119.05-229.06Z"/>
        <path class="cls-18" d="M686.99,290.78c19.61-48.19,49.31-97.87,93.99-133.96,105.29-84.93,263.62-21.9,301.16-5,6.21-27.27,6.86-45.25,6.86-45.25,0,0-179.76-91-293.93,1.12-60.28,48.65-91.8,123.41-108.09,183.08Z"/>
        <path class="cls-4" d="M667.94,394.48c-4.45-1.01-7.52-5.1-7.25-9.66.46-7.75,12.52-190.79,128.55-284.41,117.49-94.79,296.44-6.01,304-2.18,3.25,1.65,5.25,5.03,5.12,8.67-.2,5.77-6.4,142.3-122.52,235.99-61.73,49.81-142.46,61.78-205.81,61.78-56.02,0-98.44-9.36-102.09-10.19ZM800.96,114.95c-96.23,77.64-117.17,226.62-120.91,262.88,36.26,6.58,187.84,28.16,284.05-49.48,95.95-77.41,112.47-189.06,115.11-216.09-30.75-13.95-181.15-75.67-278.25,2.68Z"/>
        <path class="cls-4" d="M670,394.71c2.76,0,5.49-1.21,7.33-3.54.99-1.24,100.34-125.17,265.38-201.63,4.68-2.17,6.71-7.72,4.55-12.4-2.17-4.68-7.72-6.71-12.4-4.55-169.24,78.41-271.16,205.71-272.17,206.99-3.2,4.04-2.51,9.91,1.53,13.11,1.72,1.36,3.76,2.02,5.79,2.02Z"/>
      </g>
      <g>
        <circle class="cls-14" cx="605.53" cy="914.33" r="595.75" transform="translate(-469.18 695.98) rotate(-45)"/>
        <path class="cls-5" d="M19.35,1023.48c51.27,276.88,293.97,486.63,585.75,486.63s534.53-209.74,585.8-486.67c-107.35,214.74-329.37,362.24-585.8,362.24S126.64,1238.22,19.35,1023.48Z"/>
        <path class="cls-9" d="M96.2,604.32c123.13-142.97,305.41-233.46,508.85-233.46s385.63,90.44,508.76,233.37c-104.64-171.31-293.32-285.66-508.76-285.66s-404.21,114.4-508.85,285.76Z"/>
        <path class="cls-19" d="M0,914.34C0,580.69,271.44,309.25,605.09,309.25s605.09,271.44,605.09,605.09-271.44,605.09-605.09,605.09S0,1247.98,0,914.34ZM18.68,914.34c0,323.35,263.06,586.41,586.41,586.41s586.41-263.06,586.41-586.41S928.43,327.93,605.09,327.93,18.68,590.99,18.68,914.34Z"/>
      </g>
      <g>
        <path class="cls-5" d="M763.29,1289.33c-20.49,7.47-33.53,23.3-29.14,35.36,4.4,12.06,24.57,15.77,45.06,8.3,20.49-7.47,33.53-23.3,29.14-35.36-4.4-12.06-24.57-15.77-45.06-8.3Z"/>
        <path class="cls-5" d="M675.21,1335.9c-11.21,2.51-19.1,9.89-17.62,16.49,1.48,6.6,11.76,9.91,22.97,7.4,11.21-2.51,19.1-9.89,17.62-16.49-1.48-6.6-11.76-9.91-22.97-7.4Z"/>
      </g>
      <g>
        <path class="cls-3" d="M118.96,661.47c-8.01,15.5-7.11,31.88,2.01,36.6,9.12,4.71,23-4.03,31.01-19.53,8.01-15.5,7.11-31.88-2.01-36.59-9.12-4.71-23,4.03-31.01,19.53Z"/>
        <path class="cls-3" d="M84.84,738.64c-5.81,11.23-5.15,23.11,1.46,26.53,6.61,3.42,16.68-2.92,22.48-14.16,5.81-11.24,5.15-23.11-1.46-26.53-6.61-3.42-16.68,2.92-22.48,14.16Z"/>
      </g>
      <g>
        <path class="cls-3" d="M612.63,938.85c2.16-3.07,6.34-3.95,9.77-2.42l20.03,8.95c3.72,1.66,5.85,5.87,4.53,9.73-1.5,4.37-6.38,6.43-10.51,4.59l-20.68-9.24c-4.38-1.96-6.05-7.47-3.14-11.61Z"/>
        <path class="cls-3" d="M570.37,944.82c2.16-3.07,6.34-3.95,9.77-2.42l20.03,8.95c3.72,1.66,5.85,5.87,4.53,9.73-1.5,4.37-6.38,6.43-10.51,4.59l-20.68-9.24c-4.38-1.95-6.05-7.47-3.14-11.61Z"/>
        <path class="cls-3" d="M528.11,950.8c2.16-3.07,6.34-3.95,9.77-2.42l20.03,8.95c3.72,1.66,5.85,5.87,4.53,9.73-1.5,4.37-6.38,6.43-10.51,4.59l-20.68-9.24c-4.38-1.96-6.05-7.47-3.14-11.61Z"/>
      </g>
      <g>
        <circle class="cls-6" cx="896.83" cy="1100.2" r="79.38" transform="translate(-127.71 117.82) rotate(-7.02)"/>
        <circle class="cls-6" cx="245.5" cy="1100.2" r="79.38" transform="translate(-871.2 1254.12) rotate(-85.27)"/>
        <g>
          <g>
            <circle class="cls-21" cx="820" cy="764.23" r="198.58" transform="translate(-300.22 803.67) rotate(-45)"/>
            <path class="cls-19" d="M612.08,764.23c0-114.65,93.27-207.92,207.92-207.92s207.92,93.27,207.92,207.92-93.27,207.92-207.92,207.92-207.92-93.27-207.92-207.92ZM630.76,764.23c0,104.35,84.89,189.24,189.24,189.24s189.25-84.89,189.25-189.24-84.89-189.24-189.25-189.24-189.24,84.89-189.24,189.24Z"/>
          </g>
          <circle class="cls-19" cx="772.72" cy="764.23" r="77.72" transform="translate(-112.44 133.64) rotate(-9.22)"/>
        </g>
        <g>
          <g>
            <circle class="cls-21" cx="380.04" cy="764.23" r="161.72"/>
            <path class="cls-19" d="M208.98,764.23c0-94.32,76.74-171.06,171.06-171.06s171.06,76.74,171.06,171.06-76.74,171.06-171.06,171.06-171.06-76.74-171.06-171.06ZM227.66,764.23c0,84.03,68.36,152.38,152.38,152.38s152.38-68.36,152.38-152.38-68.36-152.39-152.38-152.39-152.38,68.36-152.38,152.39Z"/>
          </g>
          <circle class="cls-19" cx="396.83" cy="764.23" r="63.29" transform="translate(-434.73 987.87) rotate(-77.61)"/>
        </g>
      </g>
      <g>
        <path class="cls-20" d="M613,1162.65l-17.48,113.66c1.12-13.23-64.58-29.91-146.82-37.25-82.27-7.35-149.91-2.56-151.1,10.67l2.93-114.98c-1.24,13.89,67.69,31.39,153.99,39.09,86.28,7.7,157.24,2.7,158.48-11.19Z"/>
        <ellipse class="cls-20" cx="456.77" cy="1148.7" rx="25.24" ry="156.85" transform="translate(-728.01 1501.5) rotate(-84.9)"/>
        <ellipse class="cls-1" cx="446.56" cy="1263.03" rx="24.06" ry="149.55" transform="translate(-851.18 1595.49) rotate(-84.9)"/>
        <g>
          <path class="cls-16" d="M535.4,1561.78c-3.74.43-7.48.87-11.23,1.23-2.8.27-5.6.48-8.4.7-3.64.29-7.27.58-10.91.8-2.81.17-5.62.31-8.43.44-3.66.17-7.33.31-10.99.41-2.76.07-5.51.14-8.27.17-3.8.05-7.6.04-11.4.01-2.6-.02-5.2-.03-7.8-.08-4.19-.09-8.37-.26-12.56-.44-2.2-.1-4.4-.16-6.6-.28-6.24-.35-12.47-.78-18.7-1.33-.13-.01-.27-.02-.4-.03-6.37-.57-12.74-1.27-19.09-2.05-2.02-.25-4.02-.56-6.04-.83-4.35-.59-8.7-1.19-13.04-1.88-2.37-.37-4.73-.79-7.09-1.2-3.99-.68-7.98-1.39-11.95-2.16-2.46-.48-4.92-.98-7.38-1.48-3.9-.81-7.8-1.66-11.69-2.55-2.43-.56-4.86-1.12-7.29-1.71-3.98-.97-7.95-2-11.91-3.06-2.28-.61-4.57-1.19-6.84-1.83-4.4-1.23-8.77-2.55-13.14-3.89-1.8-.55-3.61-1.06-5.4-1.63-2.88-.91-5.73-1.91-8.59-2.87l-1.35,53.05c-1.01,11.32,55.25,25.6,125.67,31.89,70.4,6.29,128.31,2.2,129.32-9.12l8.07-52.45c-2.86.42-5.71.88-8.58,1.25-2.66.35-5.32.61-7.98.92Z"/>
          <path class="cls-12" d="M549.19,1492.92c-5.51.68-11.02,1.3-16.54,1.83-1.86.18-3.73.31-5.59.47-4.8.41-9.61.77-14.42,1.06-2.1.13-4.2.23-6.3.33-4.64.23-9.29.4-13.94.52-2.11.05-4.22.1-6.33.13-4.78.07-9.56.06-14.33.02-1.9-.02-3.81-.02-5.71-.06-5.39-.11-10.78-.31-16.16-.56-1.26-.06-2.51-.09-3.77-.16-13.53-.73-27.02-1.94-40.46-3.61-1.25-.16-2.49-.35-3.74-.51-5.35-.7-10.68-1.46-16.01-2.31-1.88-.3-3.75-.64-5.63-.95-4.71-.8-9.41-1.64-14.1-2.56-2.07-.4-4.14-.83-6.2-1.25-4.55-.94-9.09-1.93-13.62-2.98-2.05-.47-4.1-.95-6.14-1.44-4.68-1.14-9.35-2.35-14-3.6-1.81-.49-3.62-.95-5.42-1.46-5.34-1.49-10.66-3.08-15.96-4.73-1.07-.33-2.16-.64-3.23-.98-3.19-1.01-6.37-2.1-9.55-3.17l-1.77,69.27c2.87.96,5.72,1.97,8.59,2.89,1.79.57,3.6,1.08,5.4,1.63,4.37,1.34,8.74,2.66,13.14,3.89,2.28.64,4.56,1.22,6.84,1.83,3.96,1.06,7.93,2.09,11.91,3.06,2.42.59,4.86,1.15,7.29,1.71,3.89.89,7.78,1.74,11.69,2.55,2.46.51,4.91,1.01,7.38,1.48,3.98.77,7.96,1.48,11.95,2.16,2.36.4,4.72.82,7.09,1.2,4.34.69,8.69,1.29,13.04,1.88,2.01.27,4.02.58,6.04.83,6.35.78,12.71,1.48,19.09,2.05.13.01.27.02.4.03,6.22.55,12.46.99,18.7,1.33,2.2.12,4.4.18,6.6.28,4.18.18,8.37.35,12.56.44,2.6.06,5.2.06,7.8.08,3.8.03,7.6.04,11.4-.01,2.76-.03,5.51-.1,8.27-.17,3.67-.1,7.33-.24,10.99-.41,2.81-.13,5.62-.26,8.43-.44,3.64-.22,7.28-.51,10.91-.8,2.8-.23,5.6-.43,8.4-.7,3.75-.36,7.49-.8,11.23-1.23,2.66-.31,5.32-.57,7.98-.92,2.86-.37,5.72-.84,8.58-1.26l10.54-68.5c-3.32.49-6.64,1-9.97,1.43-1.11.15-2.23.25-3.35.39Z"/>
          <path class="cls-7" d="M571.16,1422.91c-2.29.33-4.58.71-6.88,1.01-3.85.51-7.7.91-11.56,1.34-2.9.33-5.81.68-8.71.96-3.79.37-7.58.66-11.37.96-2.98.23-5.95.47-8.93.66-3.78.24-7.56.43-11.34.6-2.98.13-5.96.24-8.95.33-3.79.11-7.58.2-11.38.24-2.95.03-5.9.02-8.86,0-3.83-.02-7.66-.03-11.49-.12-2.84-.07-5.68-.19-8.52-.3-3.94-.15-7.88-.27-11.81-.5-2.23-.13-4.46-.32-6.7-.48-8.64-.59-17.26-1.36-25.87-2.32-2.05-.23-4.1-.41-6.15-.66-4.09-.5-8.16-1.1-12.24-1.68-2.61-.37-5.21-.72-7.81-1.13-3.99-.62-7.97-1.32-11.95-2.02-2.65-.47-5.31-.94-7.95-1.44-3.98-.76-7.95-1.56-11.91-2.4-2.59-.55-5.18-1.12-7.76-1.7-4.02-.91-8.03-1.84-12.03-2.83-2.43-.6-4.85-1.24-7.28-1.87-4.14-1.08-8.28-2.16-12.41-3.33-2-.57-3.98-1.18-5.97-1.77-7.22-2.13-14.39-4.39-21.54-6.79l-1.77,69.2c3.18,1.07,6.35,2.2,9.54,3.21,1.07.34,2.15.64,3.23.98,5.3,1.65,10.62,3.23,15.96,4.73,1.8.5,3.62.97,5.42,1.46,4.66,1.25,9.32,2.46,14,3.6,2.04.5,4.09.97,6.14,1.44,4.53,1.05,9.07,2.04,13.62,2.98,2.07.43,4.13.85,6.2,1.25,4.69.91,9.39,1.76,14.1,2.56,1.88.32,3.75.65,5.63.95,5.32.85,10.66,1.61,16.01,2.31,1.25.16,2.49.36,3.74.51,13.44,1.67,26.94,2.88,40.46,3.61,1.26.07,2.51.1,3.77.16,5.38.26,10.77.46,16.16.56,1.9.04,3.81.04,5.71.06,4.78.05,9.55.05,14.33-.02,2.11-.03,4.22-.08,6.33-.13,4.65-.12,9.29-.29,13.94-.52,2.1-.1,4.2-.21,6.3-.33,4.81-.29,9.62-.65,14.42-1.06,1.86-.16,3.73-.3,5.59-.47,5.52-.52,11.03-1.14,16.54-1.83,1.12-.14,2.23-.25,3.35-.39,3.33-.43,6.65-.98,9.97-1.47l10.53-68.42c-.63.09-1.25.19-1.88.28Z"/>
          <path class="cls-11" d="M564.52,1352.98c-3.59.43-7.18.82-10.77,1.19-3.13.32-6.25.66-9.39.94-3.17.28-6.34.48-9.52.7-6.81.49-13.63.86-20.45,1.11-2.09.08-4.18.18-6.27.23-4.34.12-8.69.16-13.03.18-1.8,0-3.61.01-5.41,0-4.7-.02-9.39-.08-14.08-.21-.74-.02-1.49-.05-2.23-.08-23.36-.72-46.65-2.8-69.77-6.23-.76-.11-1.52-.21-2.28-.33-4.54-.69-9.08-1.44-13.6-2.24-2.04-.36-4.07-.73-6.1-1.1-3.95-.74-7.9-1.48-11.84-2.3-3.1-.64-6.19-1.34-9.28-2.03-3.75-.84-7.49-1.67-11.22-2.58-5.34-1.3-10.67-2.66-15.98-4.11-2.23-.61-4.44-1.26-6.66-1.9-4.3-1.22-8.58-2.49-12.86-3.81-2.25-.7-4.5-1.41-6.74-2.13-3.8-1.22-7.58-2.49-11.36-3.8l-1.87,73.19c7.14,2.4,14.32,4.68,21.54,6.8,1.99.59,3.97,1.2,5.97,1.77,4.12,1.17,8.26,2.25,12.41,3.33,2.42.63,4.85,1.27,7.28,1.87,4,.99,8.01,1.92,12.03,2.83,2.59.58,5.17,1.15,7.76,1.7,3.96.84,7.93,1.65,11.91,2.4,2.65.5,5.3.97,7.95,1.44,3.98.7,7.96,1.4,11.95,2.02,2.6.41,5.21.75,7.81,1.13,4.08.58,8.15,1.18,12.24,1.68,2.05.25,4.1.43,6.15.66,8.61.96,17.23,1.73,25.87,2.32,2.23.15,4.46.35,6.7.48,3.93.22,7.87.35,11.81.5,2.84.11,5.68.23,8.52.3,3.83.09,7.66.11,11.49.12,2.95.01,5.9.02,8.86,0,3.79-.04,7.58-.13,11.38-.24,2.98-.09,5.97-.2,8.95-.33,3.78-.17,7.56-.36,11.34-.6,2.98-.19,5.95-.42,8.93-.66,3.79-.3,7.58-.59,11.37-.96,2.91-.28,5.81-.63,8.71-.96,3.85-.43,7.71-.84,11.56-1.34,2.29-.3,4.58-.68,6.88-1.01.63-.09,1.25-.19,1.88-.28l11.13-72.37c-3.74.58-7.48,1.13-11.23,1.64-2.8.38-5.61.74-8.42,1.08Z"/>
          <path class="cls-1" d="M313.76,1330.43c4.27,1.32,8.56,2.58,12.86,3.81,2.22.63,4.44,1.29,6.66,1.9,5.31,1.45,10.64,2.81,15.98,4.11,3.73.91,7.48,1.74,11.22,2.58,3.09.69,6.18,1.39,9.28,2.03,3.94.81,7.89,1.56,11.84,2.3,2.03.38,4.06.75,6.1,1.1,4.53.79,9.06,1.55,13.6,2.24.76.12,1.52.22,2.28.33,5.12.75,10.24,1.46,15.38,2.08,12.87,1.63,25.84,2.79,38.85,3.47,5.18.3,10.36.51,15.54.67.75.02,1.49.06,2.23.08,4.69.13,9.39.19,14.08.21,1.8,0,3.6,0,5.41,0,4.34-.02,8.69-.07,13.03-.18,2.09-.06,4.18-.16,6.27-.23,6.82-.25,13.64-.63,20.45-1.11,3.17-.23,6.35-.42,9.52-.7,3.13-.27,6.26-.61,9.39-.94,3.59-.37,7.18-.75,10.77-1.19,2.81-.34,5.61-.7,8.42-1.08,3.75-.51,7.49-1.08,11.23-1.66l11.2-72.79c-3.2,12.76-70.01,17.29-151,10.06-80.99-7.23-145.93-23.52-146.83-36.65l-1.88,73.61c3.78,1.3,7.56,2.59,11.36,3.82,2.24.72,4.49,1.44,6.74,2.13Z"/>
        </g>
        <ellipse class="cls-7" cx="378.13" cy="1348.65" rx="14.45" ry="13.83" transform="translate(-998.8 1605.38) rotate(-84.9)"/>
        <ellipse class="cls-7" cx="518.2" cy="1399.4" rx="14.45" ry="13.83" transform="translate(-921.76 1791.03) rotate(-84.9)"/>
        <path class="cls-16" d="M410.26,1532.15c-.72,8.09-7.59,14.1-15.34,13.4-7.75-.69-13.44-7.81-12.72-15.91.72-8.09,7.59-14.1,15.34-13.4,7.75.69,13.44,7.81,12.72,15.91Z"/>
        <path class="cls-10" d="M490.28,1462.34c-.5,5.55-5.2,9.66-10.51,9.19s-9.21-5.36-8.72-10.91c.5-5.55,5.2-9.66,10.51-9.19,5.31.47,9.21,5.36,8.72,10.91Z"/>
        <ellipse class="cls-17" cx="476.9" cy="1565.57" rx="19.18" ry="18.36" transform="translate(-1124.9 1901.24) rotate(-84.89)"/>
        <path class="cls-4" d="M620.42,1163.31c2.79-31.31-133.39-45.06-160.72-47.5-27.33-2.44-163.8-13.03-166.59,18.28,0,.01,0,.02,0,.03-.03.33-.04.65-.04.97l-11.59,453.52c-2.34,26.22,100.75,37.48,132.4,40.31,31.65,2.83,135.09,10.01,137.37-15.7l69.04-448.91c.06-.33.11-.66.14-1h0ZM603.1,1178l-12.73,82.78c-.52-.3-1.09-.59-1.64-.88-.32-.17-.64-.35-.97-.52-2.6-1.34-5.46-2.63-8.56-3.86-.31-.12-.64-.24-.95-.37-1.26-.49-2.55-.97-3.88-1.45-.44-.16-.89-.31-1.33-.47-1.31-.45-2.65-.9-4.01-1.34-.4-.13-.78-.26-1.19-.38-3.59-1.13-7.35-2.21-11.24-3.23-.33-.09-.67-.17-1.01-.26-1.61-.42-3.25-.83-4.9-1.23-.47-.12-.95-.23-1.43-.34-1.62-.39-3.25-.77-4.9-1.14-.4-.09-.81-.18-1.21-.27-4.15-.92-8.36-1.79-12.61-2.62-.32-.06-.65-.12-.97-.18-1.78-.34-3.55-.67-5.33-1-.48-.09-.96-.17-1.44-.26-1.72-.31-3.45-.61-5.17-.91-.4-.07-.79-.14-1.19-.2-4.22-.71-8.41-1.38-12.53-2.01-.41-.06-.82-.12-1.23-.18-1.63-.24-3.24-.48-4.84-.71-.5-.07-.99-.14-1.49-.21-1.6-.23-3.19-.45-4.75-.66-.38-.05-.76-.1-1.13-.15-3.89-.52-7.64-1-11.21-1.44-.33-.04-.65-.08-.98-.12-1.41-.17-2.78-.34-4.13-.49-.47-.05-.93-.11-1.39-.16-1.22-.14-2.4-.28-3.56-.4-.42-.05-.84-.1-1.25-.14-3.03-.34-5.84-.63-8.38-.89-.34-.03-.64-.06-.97-.1-.92-.09-1.79-.18-2.63-.26-.36-.04-.71-.07-1.06-.1-.75-.07-1.46-.14-2.14-.2-.32-.03-.64-.06-.94-.09-.88-.08-1.7-.16-2.43-.22-.73-.06-1.55-.14-2.43-.21-.3-.03-.62-.05-.94-.08-.68-.06-1.39-.12-2.15-.18-.34-.03-.69-.06-1.05-.09-.85-.07-1.74-.14-2.66-.21-.32-.02-.62-.05-.94-.07-1.28-.1-2.6-.2-4.01-.3-.08,0-.17-.01-.25-.02-1.33-.1-2.72-.19-4.15-.29-.43-.03-.88-.06-1.32-.09-1.09-.07-2.21-.15-3.35-.22-.58-.04-1.16-.07-1.75-.11-1.15-.07-2.33-.14-3.53-.21-.52-.03-1.03-.06-1.56-.09-3.5-.2-7.17-.38-10.98-.55-.55-.02-1.1-.05-1.66-.07-1.37-.06-2.75-.11-4.15-.17-.68-.03-1.36-.05-2.04-.07-1.38-.05-2.77-.09-4.18-.14-.62-.02-1.24-.04-1.87-.06-2.04-.06-4.09-.11-6.16-.15-.01,0-.02,0-.03,0-2.02-.04-4.06-.07-6.11-.09-.64,0-1.27,0-1.91-.01-1.47-.01-2.95-.02-4.43-.02-.69,0-1.38,0-2.08,0-1.54,0-3.08.02-4.62.03-.58,0-1.15,0-1.73.02-2.1.03-4.2.07-6.28.12-.19,0-.37.01-.56.02-1.87.05-3.74.12-5.6.19-.66.03-1.31.06-1.96.09-1.41.06-2.81.13-4.2.21-.7.04-1.39.08-2.08.12-1.42.09-2.83.19-4.23.29-.59.04-1.19.08-1.77.13-1.94.16-3.86.33-5.73.52-.22.02-.44.05-.66.07-1.65.17-3.27.36-4.87.56-.59.08-1.17.16-1.76.24-1.22.17-2.42.34-3.6.52-.62.1-1.23.19-1.84.3-1.19.2-2.35.41-3.49.63-.5.1-1.01.19-1.5.29-1.59.33-3.13.67-4.61,1.04-.23.06-.44.12-.67.18-1.24.32-2.44.65-3.6,1.01-.47.14-.91.3-1.37.44-.52.17-1.07.33-1.57.51l2.13-83.73c.21.11.44.22.65.33.42.22.87.44,1.3.66.94.47,1.91.94,2.92,1.4.48.22.95.44,1.44.65,1.14.5,2.32.99,3.53,1.48.36.15.71.3,1.08.44,1.6.63,3.26,1.24,4.97,1.84.34.12.7.24,1.05.36,1.39.48,2.81.95,4.27,1.42.56.18,1.12.35,1.68.53,1.34.41,2.7.82,4.08,1.22.55.16,1.1.32,1.66.48,1.68.48,3.38.94,5.12,1.4.24.06.47.13.72.19,2.02.53,4.08,1.04,6.16,1.54.43.1.86.2,1.29.3,1.65.39,3.32.78,5,1.15.59.13,1.18.26,1.77.39,1.66.36,3.32.72,5,1.07.47.1.93.2,1.4.29,4.38.9,8.81,1.75,13.25,2.55.35.06.7.13,1.06.19,1.88.34,3.75.66,5.62.98.45.08.89.15,1.34.23,2,.34,3.99.66,5.98.98.16.03.32.05.48.08,4.52.72,8.97,1.39,13.31,2,.19.03.39.05.58.08,2,.28,3.97.56,5.91.82.17.02.34.05.51.07,19.29,2.6,35.5,4.17,43.16,4.86,7.66.68,23.9,2,43.35,2.87.16,0,.32.01.48.02,1.97.09,3.97.17,6.01.24.18,0,.36.01.54.02,4.4.16,8.91.29,13.5.39.13,0,.26,0,.39,0,2.04.04,4.1.07,6.17.1.43,0,.85,0,1.28.01,1.93.02,3.87.03,5.81.03.33,0,.65,0,.98,0,4.53,0,9.07-.05,13.56-.17.43-.01.86-.02,1.3-.04,1.76-.05,3.52-.11,5.26-.17.57-.02,1.13-.04,1.69-.07,1.78-.08,3.54-.16,5.3-.26.39-.02.78-.04,1.17-.06,2.16-.13,4.3-.27,6.41-.43.17-.01.33-.03.5-.04,1.87-.15,3.72-.31,5.54-.49.53-.05,1.05-.11,1.58-.16,1.49-.16,2.95-.32,4.4-.5.54-.07,1.08-.13,1.62-.2,1.59-.21,3.16-.43,4.69-.67.29-.05.59-.08.88-.13,1.82-.29,3.59-.61,5.3-.95.33-.06.64-.14.96-.2,1.35-.28,2.66-.57,3.93-.87.48-.12.94-.23,1.41-.35,1.13-.29,2.22-.59,3.28-.91.42-.13.85-.25,1.26-.38.24-.08.51-.15.75-.22ZM322.88,1246.62c.07-.01.14-.02.21-.03,1.81-.27,3.76-.53,5.81-.78.19-.02.36-.05.56-.07,1.95-.23,4.04-.44,6.2-.64.34-.03.65-.07,1-.1,2.02-.18,4.17-.34,6.36-.49.56-.04,1.08-.09,1.65-.12,2.06-.13,4.26-.24,6.46-.35.78-.04,1.51-.09,2.31-.12,2.09-.09,4.3-.16,6.51-.22,1.01-.03,1.97-.07,3-.1,2.11-.05,4.33-.07,6.54-.1,1.23-.01,2.41-.04,3.68-.05,2.18-.01,4.47,0,6.73.02,1.39,0,2.73,0,4.16.01,2.17.02,4.45.08,6.69.13,1.64.03,3.22.05,4.9.1,2.2.06,4.5.16,6.76.24,1.81.07,3.57.11,5.43.2,2.33.1,4.76.24,7.15.36,1.9.1,3.74.18,5.67.29,2.61.15,5.31.35,7.99.53,1.81.12,3.57.22,5.41.36,4.56.34,9.22.72,13.97,1.14,4.75.42,9.4.88,13.95,1.35,1.79.19,3.49.39,5.24.59,2.72.3,5.47.59,8.1.91,1.96.24,3.83.49,5.75.73,2.33.3,4.7.58,6.96.89,1.94.26,3.77.54,5.66.81,2.14.31,4.33.61,6.41.92,1.74.26,3.38.54,5.07.81,2.13.34,4.3.67,6.36,1.02,1.55.26,3.01.53,4.52.8,2.08.36,4.19.73,6.19,1.1,1.38.26,2.67.52,4.02.78,2.03.39,4.08.78,6.02,1.18,1.11.23,2.14.46,3.23.69,2.05.43,4.12.87,6.07,1.31.89.2,1.71.4,2.58.61,2.03.47,4.05.94,5.95,1.41.68.17,1.29.33,1.95.5,2,.51,3.98,1.02,5.83,1.52.45.12.86.25,1.3.37,1.96.55,3.87,1.09,5.65,1.63.3.09.56.18.85.27,1.85.57,3.63,1.14,5.27,1.7.16.05.3.11.46.16,1.71.59,3.33,1.17,4.8,1.74.07.03.13.06.21.08,1.51.59,2.91,1.18,4.16,1.74.03.01.05.03.08.04,1.26.58,2.39,1.14,3.37,1.69.02.01.03.02.05.03.82.46,1.47.9,2.08,1.33-13.19,6.07-65.55,10.45-141.02,3.72-75.47-6.74-126.23-20.33-138.13-28.64,3.12-1.47,8.46-2.84,15.9-3.98ZM603.94,1161.83c-.47.24-1.05.48-1.63.71-.38.15-.68.31-1.1.46-.95.34-2.08.67-3.26.99-.26.07-.45.15-.72.22-1.49.39-3.17.76-4.99,1.12-.65.13-1.41.24-2.1.37-1.26.23-2.52.45-3.92.66-.91.14-1.93.26-2.9.39-1.32.18-2.63.36-4.06.53-1.13.13-2.35.25-3.55.37-1.42.15-2.85.29-4.36.42-1.31.11-2.69.21-4.07.32-1.55.12-3.11.23-4.74.33-1.48.09-3.02.17-4.57.25-1.67.09-3.36.17-5.11.24-1.65.07-3.34.12-5.05.17-1.79.05-3.63.1-5.49.14-1.8.04-3.62.07-5.48.09-1.92.02-3.89.03-5.88.03-1.95,0-3.91,0-5.92-.01-2.05-.02-4.16-.05-6.28-.08-2.07-.03-4.14-.07-6.27-.12-2.19-.05-4.46-.13-6.72-.21-2.18-.07-4.34-.14-6.58-.23-2.37-.1-4.82-.23-7.25-.35-2.25-.11-4.47-.21-6.78-.35-2.55-.15-5.2-.33-7.81-.5-2.31-.15-4.58-.29-6.94-.46-3.2-.24-6.5-.52-9.79-.79-1.81-.15-3.56-.28-5.39-.44-1.83-.16-3.58-.35-5.39-.52-3.28-.31-6.58-.62-9.77-.95-2.35-.25-4.61-.52-6.91-.78-2.61-.29-5.25-.58-7.78-.89-2.29-.28-4.5-.57-6.73-.86-2.42-.31-4.85-.62-7.2-.94-2.22-.31-4.36-.62-6.52-.94-2.24-.33-4.48-.65-6.66-.99-2.1-.33-4.14-.66-6.18-.99-2.09-.34-4.18-.68-6.21-1.03-1.98-.34-3.9-.69-5.81-1.03-1.96-.36-3.91-.71-5.8-1.08-1.82-.35-3.6-.7-5.35-1.05-1.84-.37-3.65-.74-5.41-1.11-1.67-.35-3.31-.71-4.91-1.06-1.72-.38-3.39-.76-5.03-1.15-1.49-.35-2.98-.7-4.41-1.05-1.61-.39-3.15-.79-4.67-1.18-1.31-.34-2.63-.68-3.88-1.02-1.5-.41-2.91-.81-4.31-1.22-1.12-.32-2.27-.65-3.33-.97-1.42-.43-2.72-.85-4.03-1.28-.89-.29-1.83-.58-2.66-.86-1.42-.48-2.68-.95-3.94-1.42-.59-.22-1.25-.44-1.8-.66-1.75-.68-3.35-1.35-4.76-2-.12-.05-.2-.1-.31-.16-1.27-.59-2.42-1.18-3.4-1.74-.34-.19-.57-.37-.87-.57-.58-.36-1.14-.72-1.59-1.07,12.85-6.56,68.16-11.42,148.72-4.22,80.56,7.19,134.14,21.77,145.62,30.51ZM536.75,1609.58c-7.27,4.76-48.12,10.39-121.48,3.83-73.31-6.55-112.52-19.3-118.88-25.28l8.2-321.16c34.27,18.02,118.88,26.49,139.09,28.3,20.21,1.8,104.99,8.45,141.9-3.21l-48.83,317.52Z"/>
        <path class="cls-4" d="M420.98,1439.04c-.19-.02-.38-.04-.57-.07-4.46-.73-7.49-5.1-6.76-9.76l53.34-341.73c.46-2.98,2.4-5.5,5.09-6.62l100.49-42.43c4.2-1.77,8.96.35,10.62,4.74,1.66,4.38-.41,9.36-4.63,11.12l-96.15,40.61-52.59,336.93c-.7,4.47-4.59,7.59-8.83,7.21Z"/>
        <path class="cls-15" d="M320.29,1203.9l-14.57,372.37s15.33,6.39,26.34,2.35l14.25-370.37s-14.28.46-26.02-4.35Z"/>
      </g>
      <path class="cls-4" d="M364.52,1438.58c-.53-.08-.53-.81-.02-.95,16.21-4.54,9-14-13.44-14.02-23.22-.02-35.84,4.87-40.11,19.55-33.76-2.12-248.16-45.99-266.82-126.65-11.64-50.33,44.64-106.5,45.21-107.06,3.67-3.62,3.72-9.53.1-13.2-3.61-3.67-9.52-3.73-13.2-.12-2.63,2.59-64.31,64.03-50.31,124.59,22.12,95.63,251.75,139.33,285.16,141.18,4.72,10.9,18.89,15.77,35.24,17.24,21.01,1.89,54.73-2.39,56.26-19.31,1.29-14.4-29.02-19.92-38.07-21.25Z"/>
      <path class="cls-4" d="M1047.29,1307.68c6.46-6.77,21.46-10.61,52.07-17.98,54.75-13.18,137.48-33.09,150.87-81.08,17.37-62.29-62.05-177.49-62.85-178.64-2.92-4.2-1.88-9.97,2.31-12.89,4.2-2.91,9.97-1.88,12.89,2.31,3.49,5.01,85.2,123.54,65.49,194.2-16.31,58.48-105.41,79.93-164.37,94.12-7.45,1.79-15.67,3.77-22.95,5.71,5.6,1.65,10.95,5,15.16,9.98,10.52,12.41,12.03,28.21.96,37.58-11.06,9.37-30.85,7.42-41.77-4.64-10.15-10.48-23.22-32.52-7.81-48.67Z"/>
    </g>
  </g>
</svg>