<?xml version="1.0" encoding="UTF-8"?>
<svg id="Layer_2" xmlns="http://www.w3.org/2000/svg" viewBox="0 0 254.71 358.47">
  <defs>
    <style>
      .cls-1 {
        fill: #b2e513;
      }

      .cls-2 {
        fill: #a9c11a;
      }

      .cls-3 {
        fill: #382208;
      }

      .cls-4 {
        fill: #74ba2a;
      }

      .cls-5 {
        fill: #7dd82e;
      }

      .cls-6 {
        fill: #fb9905;
      }

      .cls-7 {
        fill: #f5431f;
      }

      .cls-8 {
        fill: #e3ff6c;
      }

      .cls-9 {
        fill: #371811;
      }

      .cls-10 {
        fill: #fa651d;
      }

      .cls-11 {
        fill: #ffe2ba;
      }

      .cls-12 {
        fill: #b0f467;
      }

      .cls-13 {
        fill: #372411;
      }

      .cls-14 {
        fill: #ffd58a;
      }
    </style>
  </defs>
  <g id="Layer_1-2" data-name="Layer_1">
    <g>
      <g>
        <path class="cls-3" d="M112.57,352.12c-2.24,0-4.17.5-5.69,1.1v-79.03c0-.97-.7-1.85-1.66-1.94-1.11-.11-2.04.75-2.04,1.84v81.24s0,0,0,0v1.68c0,.8.65,1.45,1.45,1.45h8.35c7.53,0,5.28-6.34-.41-6.34Z"/>
        <path class="cls-3" d="M152.61,351.81c-2.17-.31-4.17-.07-5.8.34l7.99-35.69c.06-.25.06-.51,0-.76l-8.04-40.6c-.2-1-1.18-1.65-2.17-1.45-1,.2-1.65,1.17-1.45,2.17l7.96,40.22-8.56,38.23-.36,1.6c-.14.61.27,1.21.89,1.3,1.81.26,5.42.78,8.35,1.2,7.31,1.05,6.72-5.75,1.19-6.55Z"/>
      </g>
      <g>
        <path class="cls-1" d="M91.05,1.83s33.62-2.31,45.21,19.3c11.59,21.62,1.19,50.92,1.19,50.92,0,0-31.38-5.57-42.97-27.19-11.59-21.62-3.43-43.04-3.43-43.04Z"/>
        <path class="cls-8" d="M89.22,8.95c7.43-.13,35.97.69,46.74,20.8,3.44,6.43,5.08,13.48,5.64,20.32.54-9.13-.41-19.74-5.35-28.94C124.67-.49,91.05,1.82,91.05,1.82c0,0-1.02,2.69-1.83,7.12Z"/>
        <path class="cls-2" d="M105.46,57.72c13.79,11.09,32,14.33,32,14.33,0,0,2.59-7.27,3.73-17.25-3.41-.39-6.88-.58-10.4-.58-8.78,0-17.28,1.22-25.34,3.5Z"/>
        <path class="cls-3" d="M137.15,73.76c-1.32-.23-32.35-5.97-44.2-28.08-11.83-22.06-3.87-43.57-3.52-44.48.24-.63.83-1.07,1.51-1.12,1.42-.1,34.88-2.13,46.86,20.22,11.82,22.04,1.74,51.1,1.3,52.33-.25.7-.91,1.16-1.64,1.16-.1,0-.2,0-.31-.03ZM92.32,3.52c-1.39,4.52-5.93,22.57,3.69,40.52,9.64,17.98,33.99,24.56,40.26,25.98,1.84-6.08,8.1-30.07-1.55-48.07C125.6,4.94,101.55,3.5,93.69,3.5c-.53,0-.99,0-1.37.02Z"/>
        <path class="cls-3" d="M137.45,73.79c.17,0,.34-.02.51-.08.92-.28,1.44-1.26,1.15-2.17-.31-1.01-7.82-24.97-28.8-48.07-.65-.71-1.75-.76-2.46-.12-.71.65-.77,1.75-.12,2.46,20.43,22.5,27.97,46.52,28.05,46.76.23.75.92,1.23,1.66,1.23Z"/>
      </g>
      <g>
        <path class="cls-5" d="M217.57,19.87s-33.52-16.96-54.8.21c-21.28,17.17-23.32,51.78-23.32,51.78,0,0,34.65,7.9,55.93-9.28,21.28-17.17,22.2-42.71,22.2-42.71Z"/>
        <path class="cls-12" d="M142.61,54.22c3.66-8.98,9.19-18.25,17.53-24.98,19.63-15.84,49.16-4.08,56.16-.93,1.16-5.08,1.28-8.44,1.28-8.44,0,0-33.52-16.97-54.81.21-11.24,9.07-17.12,23.01-20.15,34.14Z"/>
        <path class="cls-4" d="M139.44,71.86s22.85,5.21,42.83-2.05c-11.68-7.81-25.25-13.04-39.87-14.86-2.54,9.59-2.97,16.91-2.97,16.91Z"/>
        <path class="cls-3" d="M139.05,73.55c-.83-.19-1.4-.95-1.35-1.8.08-1.44,2.34-35.58,23.97-53.03,21.91-17.68,55.27-1.12,56.68-.41.61.31.98.94.95,1.62-.04,1.08-1.19,26.53-22.84,44-11.51,9.29-26.56,11.52-38.37,11.52-10.44,0-18.36-1.75-19.04-1.9ZM163.86,21.43c-17.94,14.48-21.85,42.26-22.55,49.02,6.76,1.23,35.02,5.25,52.96-9.23,17.89-14.43,20.97-35.25,21.46-40.29-5.73-2.6-33.78-14.11-51.88.5Z"/>
        <path class="cls-3" d="M139.44,73.6c.51,0,1.02-.23,1.37-.66.18-.23,18.71-23.34,49.48-37.6.87-.4,1.25-1.44.85-2.31-.4-.87-1.44-1.25-2.31-.85-31.56,14.62-50.56,38.36-50.75,38.59-.6.75-.47,1.85.29,2.45.32.25.7.38,1.08.38Z"/>
      </g>
      <g>
        <circle class="cls-10" cx="127.42" cy="170.49" r="111.08" transform="translate(-83.23 140.03) rotate(-45)"/>
        <path class="cls-7" d="M18.12,190.84c9.56,51.63,54.81,90.74,109.22,90.74s99.67-39.11,109.23-90.75c-20.02,40.04-61.41,67.54-109.23,67.54s-89.21-27.49-109.22-67.53Z"/>
        <path class="cls-14" d="M32.45,112.68c22.96-26.66,56.95-43.53,94.88-43.53s71.9,16.86,94.86,43.51c-19.51-31.94-54.69-53.26-94.86-53.26s-75.37,21.33-94.88,53.28Z"/>
        <path class="cls-13" d="M14.51,170.49c0-62.21,50.61-112.82,112.82-112.82s112.82,50.61,112.82,112.82-50.61,112.82-112.82,112.82S14.51,232.7,14.51,170.49ZM17.99,170.49c0,60.29,49.05,109.34,109.34,109.34s109.34-49.05,109.34-109.34-49.05-109.34-109.34-109.34S17.99,110.2,17.99,170.49Z"/>
      </g>
      <g>
        <path class="cls-7" d="M215.23,196.68c-2.57,3.15-3.14,6.94-1.28,8.45,1.86,1.51,5.44.18,8.01-2.98,2.57-3.15,3.14-6.94,1.28-8.45-1.86-1.51-5.44-.18-8.01,2.98Z"/>
        <path class="cls-7" d="M205.58,212.56c-1.55,1.47-2.11,3.41-1.24,4.32.87.91,2.83.46,4.38-1.01,1.55-1.47,2.11-3.41,1.24-4.32s-2.83-.46-4.38,1.01Z"/>
      </g>
      <g>
        <path class="cls-6" d="M36.69,123.34c-1.49,2.89-1.33,5.95.37,6.82,1.7.88,4.29-.75,5.78-3.64,1.49-2.89,1.33-5.94-.37-6.82-1.7-.88-4.29.75-5.78,3.64Z"/>
        <path class="cls-6" d="M30.33,137.73c-1.08,2.09-.96,4.31.27,4.95,1.23.64,3.11-.55,4.19-2.64s.96-4.31-.27-4.95c-1.23-.64-3.11.54-4.19,2.64Z"/>
      </g>
      <g>
        <path class="cls-6" d="M133.86,175.48c.55-.78,1.62-1.01,2.49-.62l5.11,2.28c.95.42,1.49,1.5,1.16,2.48-.38,1.12-1.63,1.64-2.68,1.17l-5.28-2.36c-1.12-.5-1.54-1.91-.8-2.96Z"/>
        <path class="cls-6" d="M123.07,177.01c.55-.78,1.62-1.01,2.49-.62l5.11,2.28c.95.42,1.49,1.5,1.16,2.48-.38,1.12-1.63,1.64-2.68,1.17l-5.28-2.36c-1.12-.5-1.54-1.91-.8-2.96Z"/>
        <path class="cls-6" d="M112.29,178.53c.55-.78,1.62-1.01,2.49-.62l5.11,2.28c.95.42,1.49,1.5,1.16,2.48-.38,1.12-1.63,1.64-2.68,1.17l-5.28-2.36c-1.12-.5-1.54-1.91-.8-2.96Z"/>
      </g>
      <g>
        <path class="cls-9" d="M88.04,123.98c-10.65,0-20.79-4.66-29.32-13.47-.67-.69-.65-1.79.04-2.46.69-.67,1.79-.65,2.46.04,7.86,8.12,17.13,12.41,26.82,12.41s18.96-4.29,26.81-12.41c.67-.69,1.77-.71,2.46-.04.69.67.71,1.77.04,2.46-8.53,8.81-18.67,13.47-29.32,13.47Z"/>
        <path class="cls-9" d="M166.65,123.98c-10.65,0-20.79-4.66-29.32-13.47-.67-.69-.65-1.79.04-2.46.69-.67,1.79-.65,2.46.04,7.86,8.12,17.13,12.41,26.81,12.41s18.96-4.29,26.81-12.41c.67-.69,1.77-.71,2.46-.04.69.67.71,1.77.04,2.46-8.53,8.81-18.67,13.47-29.32,13.47Z"/>
        <g>
          <g>
            <path class="cls-11" d="M115.83,140.7c0,18.12-14.69,32.81-32.81,32.81s-32.81-14.69-32.81-32.81h65.61Z"/>
            <path class="cls-9" d="M83.02,175.25c-19.05,0-34.55-15.5-34.55-34.55,0-.96.78-1.74,1.74-1.74h65.61c.96,0,1.74.78,1.74,1.74,0,19.05-15.5,34.55-34.55,34.55ZM52,142.44c.91,16.32,14.47,29.32,31.02,29.32s30.11-13,31.02-29.32h-62.04Z"/>
          </g>
          <path class="cls-9" d="M115.82,140.7c0,8.85-3.5,16.88-9.21,22.77-10.44-1.07-18.58-9.9-18.58-20.62,0-.73.04-1.43.11-2.15h27.68Z"/>
        </g>
        <g>
          <g>
            <path class="cls-11" d="M204.48,140.7c0,18.12-14.69,32.81-32.81,32.81s-32.81-14.69-32.81-32.81h65.61Z"/>
            <path class="cls-9" d="M171.68,175.25c-19.05,0-34.55-15.5-34.55-34.55,0-.96.78-1.74,1.74-1.74h65.62c.96,0,1.74.78,1.74,1.74,0,19.05-15.5,34.55-34.55,34.55ZM140.66,142.44c.91,16.32,14.47,29.32,31.02,29.32s30.11-13,31.02-29.32h-62.04Z"/>
          </g>
          <path class="cls-9" d="M204.48,140.7c0,8.85-3.5,16.88-9.21,22.77-10.44-1.07-18.58-9.9-18.58-20.62,0-.73.04-1.43.11-2.15h27.68Z"/>
        </g>
        <path class="cls-9" d="M90.98,235.6c-.23,0-.47-.05-.7-.15-.88-.39-1.28-1.41-.9-2.29,5.53-12.65,21.77-23.41,41.36-27.4,19.61-3.99,38.76-.45,48.8,9.03.7.66.73,1.76.07,2.46-.66.7-1.76.73-2.46.07-9.24-8.73-27.18-11.93-45.71-8.15-18.52,3.77-33.78,13.74-38.87,25.38-.29.65-.93,1.04-1.6,1.04Z"/>
      </g>
      <g>
        <path class="cls-3" d="M16.75,252.62c.39.04.79-.05,1.15-.28.8-.53,1.02-1.61.49-2.41-.11-.16-10.69-16.31-13.5-30.63-6.53-33.33,12.27-50.03,12.46-50.2.73-.63.81-1.73.18-2.45-.63-.73-1.72-.81-2.45-.19-.84.72-20.54,18.1-13.61,53.51,2.94,15.01,13.56,31.2,14.01,31.88.3.45.77.72,1.27.77Z"/>
        <path class="cls-3" d="M15.51,245.31c-1.84,2.01-1.5,5.31.75,7.38s5.58,2.11,7.42.1c1.84-2.01,1.5-5.31-.75-7.38-2.26-2.07-5.58-2.11-7.42-.1Z"/>
      </g>
      <g>
        <path class="cls-3" d="M237.96,252.62c-.39.04-.79-.05-1.15-.28-.8-.53-1.02-1.61-.49-2.41.11-.16,10.69-16.31,13.5-30.63,6.53-33.33-12.27-50.03-12.46-50.2-.73-.63-.81-1.73-.18-2.45.63-.73,1.72-.81,2.45-.19.84.72,20.54,18.1,13.61,53.51-2.94,15.01-13.56,31.2-14.01,31.88-.3.45-.77.72-1.27.77Z"/>
        <path class="cls-3" d="M239.2,245.31c1.84,2.01,1.5,5.31-.75,7.38s-5.58,2.11-7.42.1c-1.84-2.01-1.5-5.31.75-7.38,2.26-2.07,5.58-2.11,7.42-.1Z"/>
      </g>
    </g>
  </g>
</svg>