<?xml version="1.0" encoding="UTF-8"?>
<svg id="Layer_2" xmlns="http://www.w3.org/2000/svg" viewBox="0 0 253.22 355.91">
  <defs>
    <style>
      .cls-1 {
        fill: #b2e513;
      }

      .cls-2 {
        fill: #432812;
      }

      .cls-3 {
        fill: #a9c11a;
      }

      .cls-4 {
        fill: #fbd205;
      }

      .cls-5 {
        fill: #382208;
      }

      .cls-6 {
        fill: #f5881f;
      }

      .cls-7 {
        fill: #74ba2a;
      }

      .cls-8 {
        fill: #7dd82e;
      }

      .cls-9 {
        fill: #fff08a;
      }

      .cls-10 {
        fill: #e3ff6c;
      }

      .cls-11 {
        fill: #faa81d;
      }

      .cls-12 {
        fill: #bd2026;
      }

      .cls-13 {
        fill: #ec2224;
      }

      .cls-14 {
        fill: #583614;
      }

      .cls-15 {
        fill: #b0f467;
      }

      .cls-16 {
        fill: #372411;
      }

      .cls-17 {
        fill: #e1d6aa;
      }

      .cls-18 {
        fill: #fff2ba;
      }
    </style>
  </defs>
  <g id="Layer_1-2" data-name="Layer_1">
    <g>
      <g>
        <path class="cls-5" d="M109.65,349.26c2.18-.31,4.17-.07,5.8.34l-7.99-35.69c-.06-.25-.06-.51,0-.76l9.03-45.71c.2-1,1.18-1.65,2.17-1.45,1,.2,1.65,1.17,1.45,2.17l-8.96,45.32,8.56,38.23.36,1.6c.14.61-.27,1.21-.89,1.3-1.81.26-5.42.78-8.35,1.2-7.31,1.05-6.72-5.75-1.19-6.55Z"/>
        <path class="cls-5" d="M161.12,349.26c-2.18-.31-4.17-.07-5.8.34l7.99-35.69c.06-.25.06-.51,0-.76l-7.04-45.71c-.2-1-1.18-1.65-2.17-1.45-1,.2-1.65,1.17-1.45,2.17l6.97,45.32-8.56,38.23-.36,1.6c-.14.61.27,1.21.89,1.3,1.81.26,5.42.78,8.35,1.2,7.31,1.05,6.72-5.75,1.19-6.55Z"/>
      </g>
      <g>
        <path class="cls-1" d="M98.37,1.82s33.62-2.31,45.21,19.3c11.59,21.62,1.19,50.92,1.19,50.92,0,0-31.38-5.57-42.97-27.19-11.59-21.62-3.43-43.04-3.43-43.04Z"/>
        <path class="cls-10" d="M96.54,8.95c7.43-.13,35.97.69,46.74,20.8,3.44,6.43,5.08,13.48,5.64,20.32.54-9.13-.41-19.74-5.35-28.94C131.99-.49,98.36,1.82,98.36,1.82c0,0-1.02,2.69-1.83,7.12Z"/>
        <path class="cls-3" d="M112.78,57.72c13.79,11.09,32,14.33,32,14.33,0,0,2.59-7.27,3.74-17.25-3.41-.39-6.88-.58-10.4-.58-8.78,0-17.28,1.22-25.34,3.5Z"/>
        <path class="cls-5" d="M144.47,73.76c-1.32-.23-32.35-5.97-44.2-28.08-11.83-22.06-3.87-43.57-3.52-44.48.24-.63.83-1.07,1.51-1.12,1.42-.1,34.88-2.13,46.86,20.22,11.82,22.04,1.74,51.1,1.3,52.33-.25.7-.91,1.16-1.64,1.16-.1,0-.2,0-.31-.03ZM99.64,3.52c-1.39,4.52-5.93,22.57,3.69,40.52,9.64,17.98,33.99,24.56,40.26,25.98,1.84-6.08,8.1-30.07-1.55-48.07C132.92,4.94,108.86,3.5,101.01,3.5c-.53,0-.99,0-1.37.02Z"/>
        <path class="cls-5" d="M144.77,73.79c.17,0,.34-.02.51-.08.92-.28,1.44-1.26,1.15-2.17-.31-1.01-7.82-24.97-28.8-48.07-.65-.71-1.75-.76-2.46-.12-.71.65-.77,1.75-.12,2.46,20.43,22.5,27.97,46.52,28.05,46.76.23.75.92,1.23,1.66,1.23Z"/>
      </g>
      <g>
        <path class="cls-8" d="M224.89,19.87s-33.52-16.96-54.8.21c-21.28,17.17-23.32,51.78-23.32,51.78,0,0,34.65,7.9,55.93-9.28,21.28-17.17,22.2-42.71,22.2-42.71Z"/>
        <path class="cls-15" d="M149.92,54.22c3.66-8.98,9.19-18.25,17.53-24.98,19.63-15.84,49.16-4.08,56.16-.93,1.16-5.08,1.28-8.44,1.28-8.44,0,0-33.52-16.97-54.81.21-11.24,9.07-17.12,23.01-20.15,34.14Z"/>
        <path class="cls-7" d="M146.76,71.86s22.85,5.21,42.83-2.05c-11.68-7.81-25.25-13.04-39.87-14.86-2.54,9.59-2.97,16.91-2.97,16.91Z"/>
        <path class="cls-5" d="M146.37,73.55c-.83-.19-1.4-.95-1.35-1.8.09-1.44,2.34-35.58,23.97-53.03,21.91-17.68,55.27-1.12,56.68-.41.61.31.98.94.95,1.62-.04,1.07-1.19,26.53-22.84,44-11.51,9.29-26.56,11.52-38.37,11.52-10.44,0-18.36-1.75-19.04-1.9ZM171.18,21.43c-17.94,14.48-21.85,42.26-22.55,49.02,6.76,1.23,35.02,5.25,52.96-9.23,17.89-14.43,20.97-35.25,21.46-40.29-5.73-2.6-33.78-14.11-51.88.5Z"/>
        <path class="cls-5" d="M146.76,73.6c.51,0,1.02-.23,1.37-.66.18-.23,18.71-23.34,49.48-37.6.87-.4,1.25-1.44.85-2.31-.4-.87-1.44-1.25-2.31-.85-31.56,14.62-50.56,38.36-50.75,38.59-.6.75-.47,1.85.29,2.45.32.25.7.38,1.08.38Z"/>
      </g>
      <g>
        <circle class="cls-11" cx="134.73" cy="170.49" r="111.08" transform="translate(-81.09 145.21) rotate(-45)"/>
        <path class="cls-6" d="M25.43,190.84c9.56,51.63,54.81,90.74,109.22,90.74s99.67-39.11,109.23-90.75c-20.02,40.04-61.41,67.54-109.23,67.54s-89.21-27.49-109.22-67.53Z"/>
        <path class="cls-9" d="M39.76,112.68c22.96-26.66,56.95-43.53,94.88-43.53s71.9,16.86,94.86,43.51c-19.51-31.94-54.69-53.26-94.86-53.26s-75.37,21.33-94.88,53.28Z"/>
        <path class="cls-16" d="M21.83,170.49c0-62.21,50.61-112.82,112.82-112.82s112.82,50.61,112.82,112.82-50.61,112.82-112.82,112.82S21.83,232.7,21.83,170.49ZM25.31,170.49c0,60.29,49.05,109.34,109.34,109.34s109.34-49.05,109.34-109.34-49.05-109.34-109.34-109.34S25.31,110.2,25.31,170.49Z"/>
      </g>
      <g>
        <path class="cls-6" d="M222.55,196.68c-2.57,3.15-3.14,6.94-1.28,8.45s5.44.18,8.01-2.98c2.57-3.15,3.14-6.94,1.28-8.45-1.86-1.51-5.44-.18-8.01,2.98Z"/>
        <path class="cls-6" d="M212.9,212.56c-1.55,1.47-2.11,3.41-1.24,4.32.87.91,2.83.46,4.38-1.01s2.11-3.41,1.24-4.32c-.87-.91-2.83-.46-4.38,1.01Z"/>
      </g>
      <g>
        <path class="cls-4" d="M46.67,118.88c-1.66,2.22-1.95,4.81-.65,5.79,1.3.98,3.71-.03,5.37-2.25,1.66-2.22,1.95-4.81.65-5.79-1.3-.98-3.71.03-5.37,2.25Z"/>
        <path class="cls-4" d="M39.3,130.08c-1.2,1.61-1.41,3.49-.47,4.19.95.71,2.69-.02,3.89-1.63,1.2-1.61,1.41-3.49.47-4.19-.95-.71-2.69.02-3.89,1.63Z"/>
      </g>
      <g>
        <path class="cls-4" d="M139.69,157.54c.43-.6,1.25-.78,1.92-.48l3.95,1.76c.73.33,1.15,1.16.89,1.92-.3.86-1.26,1.27-2.07.9l-4.07-1.82c-.86-.39-1.19-1.47-.62-2.29Z"/>
        <path class="cls-4" d="M131.36,158.72c.43-.6,1.25-.78,1.92-.48l3.95,1.76c.73.33,1.15,1.16.89,1.92-.3.86-1.26,1.27-2.07.9l-4.07-1.82c-.86-.39-1.19-1.47-.62-2.29Z"/>
        <path class="cls-4" d="M123.03,159.89c.42-.6,1.25-.78,1.92-.48l3.95,1.76c.73.33,1.15,1.16.89,1.92-.3.86-1.26,1.27-2.07.9l-4.07-1.82c-.86-.39-1.19-1.47-.62-2.29Z"/>
      </g>
      <g>
        <path class="cls-16" d="M144.59,143.91c.5,0,.99-.21,1.34-.63,7.85-9.42,17.1-14.39,26.73-14.39s18.88,4.98,26.73,14.39c.62.74,1.71.84,2.45.22.74-.62.84-1.71.22-2.45-8.54-10.24-18.7-15.64-29.4-15.64s-20.87,5.41-29.4,15.64c-.62.74-.52,1.84.22,2.45.33.27.72.4,1.11.4Z"/>
        <path class="cls-16" d="M65.98,143.91c.5,0,.99-.21,1.34-.63,7.85-9.42,17.1-14.39,26.73-14.39s18.88,4.98,26.73,14.39c.62.74,1.71.84,2.45.22.74-.62.84-1.71.22-2.45-8.54-10.24-18.7-15.64-29.4-15.64s-20.87,5.41-29.4,15.64c-.62.74-.52,1.84.22,2.45.33.27.72.4,1.11.4Z"/>
        <g>
          <g>
            <path class="cls-14" d="M133.35,176.06c30.16,0,71.76,1.58,71.76,1.58,0,58.11-47.17,58.11-71.76,58.11s-71.76,0-71.76-58.11c0,0,41.6-1.58,71.76-1.58Z"/>
            <path class="cls-16" d="M87.48,230.05c-18.34-8.96-27.64-26.59-27.64-52.41,0-.94.74-1.7,1.68-1.74.42-.02,41.98-1.58,71.83-1.58s71.41,1.56,71.83,1.58c.94.04,1.68.8,1.68,1.74,0,25.82-9.3,43.45-27.64,52.41-15.23,7.44-33.67,7.44-45.87,7.44s-30.64,0-45.87-7.44ZM133.35,177.8c-26.36,0-61.9,1.22-70.01,1.51.9,54.69,45.78,54.69,70.01,54.69s69.11,0,70.01-54.69c-8.1-.29-43.64-1.51-70.01-1.51Z"/>
            <ellipse class="cls-2" cx="133.41" cy="205.9" rx="40.42" ry="29.84"/>
          </g>
          <g>
            <path class="cls-13" d="M107.34,240.1c0-17.2,8.36-21.02,15.79-21.02,5.36,0,8.75,1.49,10.21,2.32,1.47-.83,4.85-2.32,10.21-2.32,7.43,0,15.79,3.82,15.79,21.02s3.22,48.84-26.01,49.47c-29.23-.63-26.01-32.44-26.01-49.47Z"/>
            <path class="cls-12" d="M107.32,242.33s0-.02.02-.03c3.43-6.43,9.22-8.2,14.58-8.2,6,0,9.78,1.67,11.42,2.59,1.65-.92,5.42-2.59,11.42-2.59,5.36,0,11.15,1.78,14.58,8.2,0,0,0,.02.02.03,0-.77-.02-1.51-.02-2.24,0-17.19-8.36-21.02-15.79-21.02-5.36,0-8.74,1.49-10.21,2.32-1.47-.83-4.85-2.32-10.21-2.32-7.44,0-15.79,3.82-15.79,21.02,0,.72,0,1.46-.02,2.24Z"/>
            <path class="cls-16" d="M105.55,244.75c.02-1.64.05-3.2.05-4.65,0-19.81,10.99-22.76,17.53-22.76,4.89,0,8.28,1.17,10.21,2.1,1.93-.93,5.33-2.1,10.21-2.1,6.55,0,17.53,2.96,17.53,22.76,0,1.45.02,3.01.05,4.65.26,17.19.69,45.95-27.84,46.56-28.45-.61-28.02-29.37-27.76-46.56ZM134.2,222.91c-.53.3-1.18.3-1.71,0-1.38-.78-4.44-2.1-9.36-2.1-9.32,0-14.05,6.49-14.05,19.28,0,1.47-.02,3.05-.05,4.7-.27,17.93-.64,42.49,24.28,43.02,24.99-.54,24.62-25.09,24.35-43.02-.03-1.66-.05-3.23-.05-4.7,0-12.79-4.73-19.28-14.05-19.28-4.92,0-7.97,1.31-9.36,2.1Z"/>
          </g>
          <g>
            <path class="cls-18" d="M69.83,177.35c1.58,9.5,8.07,18.47,16.48,19.95,10.94,1.9,26.92,3.8,47.04,3.8s36.09-1.9,47.02-3.8c8.42-1.47,14.91-10.46,16.48-19.95-13.65-.44-41.6-1.28-63.51-1.28s-49.86.84-63.51,1.29Z"/>
            <path class="cls-17" d="M69.83,177.35c.39,2.39,1.1,4.74,2.07,6.95,14.26-.46,40.58-1.22,61.44-1.22s47.19.76,61.45,1.21c.97-2.21,1.67-4.56,2.06-6.95-13.65-.44-41.6-1.28-63.51-1.28s-49.86.84-63.51,1.29Z"/>
            <path class="cls-16" d="M86.02,199.01c-9.7-1.7-16.35-12.04-17.9-21.38-.08-.49.05-1,.37-1.39.32-.39.79-.62,1.29-.64,14.52-.48,42.09-1.29,63.57-1.29,15.84,0,37.82.44,63.57,1.28.5.02.97.25,1.29.64.32.39.45.89.37,1.39-1.54,9.34-8.19,19.69-17.9,21.39-10.05,1.74-26.41,3.82-47.32,3.82s-37.28-2.08-47.34-3.82ZM133.35,177.8c-20.46,0-46.46.74-61.4,1.22,2.06,8.57,8.01,15.39,14.66,16.56,9.92,1.72,26.08,3.77,46.74,3.77s36.81-2.05,46.72-3.77c6.66-1.16,12.61-7.99,14.67-16.57-24.83-.79-46.02-1.21-61.4-1.21Z"/>
          </g>
        </g>
        <path class="cls-16" d="M196,106.74c.54,0,1.07-.25,1.41-.72.56-.78.39-1.87-.39-2.43-6.34-4.58-13.84-7-21.7-7s-15.36,2.42-21.7,7c-.78.56-.96,1.65-.39,2.43.56.78,1.65.95,2.43.39,5.74-4.15,12.54-6.34,19.66-6.34s13.92,2.19,19.66,6.34c.31.22.67.33,1.02.33Z"/>
        <path class="cls-16" d="M70.7,106.74c.35,0,.71-.11,1.02-.33,5.74-4.15,12.54-6.34,19.66-6.34s13.92,2.19,19.66,6.34c.78.56,1.87.39,2.43-.39.56-.78.39-1.87-.39-2.43-6.34-4.58-13.84-7-21.7-7s-15.36,2.42-21.7,7c-.78.56-.96,1.65-.39,2.43.34.47.87.72,1.41.72Z"/>
      </g>
      <g>
        <path class="cls-5" d="M205.25,245.95c.12.02.25.02.37.01,1.78-.13,43.52-3.35,47.31-22.56,2.25-11.37-9.62-22.45-10.12-22.92-.71-.65-1.81-.61-2.46.1-.65.71-.61,1.81.1,2.46.11.1,10.94,10.23,9.07,19.68-3.28,16.61-43.74,19.73-44.15,19.76-.96.07-1.68.9-1.61,1.86.06.83.7,1.49,1.49,1.6Z"/>
        <path class="cls-5" d="M189.39,246.06c-.33-2.68,5.29-3.89,6.97-4.19.1-.02.09-.15,0-.18-3.05-.75-1.76-2.55,2.42-2.69,5.03-.17,7.43.98,7.91,4.87.43,3.48-2.79,4.98-6.7,5.45s-10.22-.12-10.6-3.26Z"/>
      </g>
      <g>
        <path class="cls-5" d="M22.12,195.57c2.33-.07,3.94-.36,4.13-.4.94-.18,1.56-1.09,1.38-2.04-.18-.94-1.09-1.56-2.04-1.38h0c-.13.02-12.57,2.27-18.45-5.24-8.51-10.88.33-39.56.42-39.85.29-.92-.22-1.89-1.14-2.18-.92-.29-1.89.22-2.18,1.14-.39,1.25-9.47,30.72.16,43.03,4.86,6.21,12.85,7.06,17.71,6.91Z"/>
        <path class="cls-5" d="M9.24,129.87c2.65.51,2.08,6.22,1.85,7.92-.01.1.12.14.17.05,1.65-2.67,2.97-.89,1.82,3.13-1.38,4.84-3.21,6.78-7.06,6.04-3.44-.66-3.88-4.18-3.14-8.04.74-3.86,3.24-9.69,6.35-9.09Z"/>
      </g>
    </g>
  </g>
</svg>