<?xml version="1.0" encoding="UTF-8"?>
<svg id="Layer_2" xmlns="http://www.w3.org/2000/svg" viewBox="0 0 248.74 355.91">
  <defs>
    <style>
      .cls-1 {
        fill: #b2e513;
      }

      .cls-2 {
        fill: #432812;
      }

      .cls-3 {
        fill: #a9c11a;
      }

      .cls-4 {
        fill: #fbd205;
      }

      .cls-5 {
        fill: #382208;
      }

      .cls-6 {
        fill: #f5881f;
      }

      .cls-7 {
        fill: #74ba2a;
      }

      .cls-8 {
        fill: #7dd82e;
      }

      .cls-9 {
        fill: #73cee5;
      }

      .cls-10 {
        fill: #fff08a;
      }

      .cls-11 {
        fill: #45c0ce;
      }

      .cls-12 {
        fill: #e3ff6c;
      }

      .cls-13 {
        fill: #faa81d;
      }

      .cls-14 {
        fill: #ec2224;
      }

      .cls-15 {
        fill: #583614;
      }

      .cls-16 {
        fill: #b0f467;
      }

      .cls-17 {
        fill: #372411;
      }

      .cls-18 {
        fill: #e1d6aa;
      }

      .cls-19 {
        fill: #fff2ba;
      }
    </style>
  </defs>
  <g id="Layer_1-2" data-name="Layer_1">
    <g>
      <g>
        <path class="cls-5" d="M103.06,349.56c2.24,0,4.17.5,5.69,1.1v-79.03c0-.97.7-1.85,1.66-1.94,1.11-.11,2.04.75,2.04,1.84v81.24s0,0,0,0v1.68c0,.8-.65,1.45-1.45,1.45h-8.35c-7.53,0-5.28-6.34.41-6.34Z"/>
        <path class="cls-5" d="M162.44,348.2c-2.21.4-4.01,1.23-5.4,2.09l-14-77.78c-.17-.95-1.01-1.7-1.98-1.62-1.11.09-1.87,1.1-1.68,2.17l14.39,79.96s0,0,0,0l.3,1.65c.14.79.9,1.32,1.69,1.17l8.22-1.48c7.41-1.33,4.08-7.18-1.53-6.17Z"/>
      </g>
      <g>
        <path class="cls-1" d="M88.1,1.82s33.62-2.31,45.21,19.3c11.59,21.62,1.19,50.92,1.19,50.92,0,0-31.38-5.57-42.97-27.19-11.59-21.62-3.43-43.04-3.43-43.04Z"/>
        <path class="cls-12" d="M86.27,8.95c7.43-.13,35.97.69,46.74,20.8,3.44,6.43,5.08,13.48,5.64,20.32.54-9.13-.41-19.74-5.35-28.94C121.72-.49,88.1,1.82,88.1,1.82c0,0-1.02,2.69-1.83,7.12Z"/>
        <path class="cls-3" d="M102.51,57.72c13.79,11.09,32,14.33,32,14.33,0,0,2.59-7.27,3.73-17.25-3.41-.39-6.88-.58-10.4-.58-8.78,0-17.28,1.22-25.34,3.5Z"/>
        <path class="cls-5" d="M134.2,73.76c-1.32-.23-32.35-5.97-44.2-28.08-11.83-22.06-3.87-43.57-3.52-44.48.24-.63.83-1.07,1.51-1.12,1.42-.1,34.88-2.13,46.86,20.22,11.82,22.04,1.74,51.1,1.3,52.33-.25.7-.91,1.16-1.64,1.16-.1,0-.2,0-.31-.03ZM89.37,3.52c-1.39,4.52-5.93,22.57,3.69,40.52,9.64,17.98,33.99,24.56,40.26,25.98,1.84-6.08,8.1-30.07-1.55-48.07C122.65,4.94,98.6,3.5,90.74,3.5c-.53,0-.99,0-1.37.02Z"/>
        <path class="cls-5" d="M134.5,73.79c.17,0,.34-.02.51-.08.92-.28,1.44-1.26,1.15-2.17-.31-1.01-7.82-24.97-28.8-48.07-.65-.71-1.75-.76-2.46-.12-.71.65-.77,1.75-.12,2.46,20.43,22.5,27.97,46.52,28.05,46.76.23.75.92,1.23,1.66,1.23Z"/>
      </g>
      <g>
        <path class="cls-8" d="M214.62,19.87s-33.52-16.96-54.8.21c-21.28,17.17-23.32,51.78-23.32,51.78,0,0,34.65,7.9,55.93-9.28,21.28-17.17,22.2-42.71,22.2-42.71Z"/>
        <path class="cls-16" d="M139.65,54.22c3.66-8.98,9.19-18.25,17.53-24.98,19.63-15.84,49.16-4.08,56.16-.93,1.16-5.08,1.28-8.44,1.28-8.44,0,0-33.52-16.97-54.81.21-11.24,9.07-17.12,23.01-20.15,34.14Z"/>
        <path class="cls-7" d="M136.49,71.86s22.85,5.21,42.83-2.05c-11.68-7.81-25.25-13.04-39.87-14.86-2.54,9.59-2.97,16.91-2.97,16.91Z"/>
        <path class="cls-5" d="M136.1,73.55c-.83-.19-1.4-.95-1.35-1.8.08-1.44,2.34-35.58,23.97-53.03,21.91-17.68,55.27-1.12,56.68-.41.61.31.98.94.95,1.62-.04,1.08-1.19,26.53-22.84,44-11.51,9.29-26.56,11.52-38.37,11.52-10.44,0-18.36-1.75-19.04-1.9ZM160.91,21.43c-17.94,14.48-21.85,42.26-22.55,49.02,6.76,1.23,35.02,5.25,52.96-9.23,17.89-14.43,20.97-35.25,21.46-40.29-5.73-2.6-33.78-14.11-51.88.5Z"/>
        <path class="cls-5" d="M136.49,73.6c.51,0,1.02-.23,1.37-.66.18-.23,18.71-23.34,49.48-37.6.87-.4,1.25-1.44.85-2.31-.4-.87-1.44-1.25-2.31-.85-31.56,14.62-50.56,38.36-50.75,38.59-.6.75-.47,1.85.29,2.45.32.25.7.38,1.08.38Z"/>
      </g>
      <g>
        <circle class="cls-13" cx="124.47" cy="170.49" r="111.08" transform="translate(-84.1 137.95) rotate(-45)"/>
        <path class="cls-6" d="M15.17,190.84c9.56,51.63,54.81,90.74,109.22,90.74s99.67-39.11,109.23-90.75c-20.02,40.04-61.41,67.54-109.23,67.54s-89.21-27.49-109.22-67.53Z"/>
        <path class="cls-10" d="M29.5,112.68c22.96-26.66,56.95-43.53,94.88-43.53s71.9,16.86,94.86,43.51c-19.51-31.94-54.69-53.26-94.86-53.26s-75.37,21.33-94.88,53.28Z"/>
        <path class="cls-17" d="M11.56,170.49c0-62.21,50.61-112.82,112.82-112.82s112.82,50.61,112.82,112.82-50.61,112.82-112.82,112.82S11.56,232.7,11.56,170.49ZM15.04,170.49c0,60.29,49.05,109.34,109.34,109.34s109.34-49.05,109.34-109.34-49.05-109.34-109.34-109.34S15.04,110.2,15.04,170.49Z"/>
      </g>
      <g>
        <path class="cls-6" d="M205.51,210.53c-3.2,2.51-4.59,6.08-3.11,7.96,1.48,1.88,5.27,1.37,8.47-1.15,3.2-2.51,4.59-6.08,3.11-7.96-1.48-1.88-5.27-1.37-8.47,1.15Z"/>
        <path class="cls-6" d="M192.61,223.9c-1.84,1.1-2.81,2.86-2.16,3.95.65,1.08,2.66,1.07,4.5-.02,1.84-1.1,2.81-2.86,2.16-3.95s-2.66-1.07-4.5.02Z"/>
      </g>
      <g>
        <path class="cls-4" d="M33.74,123.34c-1.49,2.89-1.33,5.94.37,6.82s4.29-.75,5.78-3.64c1.49-2.89,1.33-5.94-.37-6.82-1.7-.88-4.29.75-5.78,3.64Z"/>
        <path class="cls-4" d="M27.38,137.73c-1.08,2.09-.96,4.31.27,4.95,1.23.64,3.11-.54,4.19-2.64s.96-4.31-.27-4.95-3.11.54-4.19,2.64Z"/>
      </g>
      <g>
        <path class="cls-4" d="M130.91,154.48c.55-.78,1.62-1.01,2.49-.62l5.11,2.28c.95.42,1.49,1.5,1.16,2.48-.38,1.12-1.63,1.64-2.68,1.17l-5.28-2.36c-1.12-.5-1.54-1.91-.8-2.96Z"/>
        <path class="cls-4" d="M120.12,156c.55-.78,1.62-1.01,2.49-.62l5.11,2.28c.95.42,1.49,1.5,1.16,2.48-.38,1.12-1.63,1.64-2.68,1.17l-5.28-2.36c-1.12-.5-1.54-1.91-.8-2.96Z"/>
        <path class="cls-4" d="M109.34,157.53c.55-.78,1.62-1.01,2.49-.62l5.11,2.28c.95.42,1.49,1.5,1.16,2.48-.38,1.12-1.63,1.64-2.68,1.17l-5.28-2.36c-1.12-.5-1.54-1.91-.8-2.96Z"/>
      </g>
      <path class="cls-5" d="M206.81,244.04c1.21-1.28,4.02-2.02,9.77-3.45,10.28-2.55,25.8-6.4,28.26-15.44,3.18-11.73-11.9-33.29-12.05-33.5-.55-.79-.37-1.87.42-2.43.79-.55,1.87-.37,2.43.42.66.94,16.18,23.11,12.57,36.42-2.99,11.02-19.71,15.16-30.78,17.91-1.4.35-2.94.73-4.31,1.1,1.05.3,2.06.93,2.86,1.86,1.99,2.32,2.3,5.29.23,7.06-2.07,1.78-5.79,1.43-7.86-.82-1.92-1.96-4.41-6.08-1.53-9.14Z"/>
      <path class="cls-5" d="M41.93,244.04c-1.21-1.28-4.02-2.02-9.77-3.45-10.28-2.55-25.8-6.4-28.26-15.44-3.18-11.73,11.9-33.29,12.05-33.5.55-.79.37-1.87-.42-2.43-.79-.55-1.87-.37-2.43.42-.66.94-16.18,23.11-12.57,36.42,2.99,11.02,19.71,15.16,30.78,17.91,1.4.35,2.94.73,4.31,1.1-1.05.3-2.06.93-2.86,1.86-1.99,2.32-2.3,5.29-.23,7.06,2.07,1.78,5.79,1.43,7.86-.82,1.92-1.96,4.41-6.08,1.53-9.14Z"/>
      <g>
        <path class="cls-17" d="M135.63,141.1c.5,0,.99-.21,1.34-.63,7.85-9.42,17.1-14.39,26.73-14.39s18.88,4.98,26.73,14.39c.62.74,1.71.84,2.45.22.74-.62.84-1.71.22-2.45-8.54-10.23-18.7-15.64-29.4-15.64s-20.87,5.41-29.4,15.64c-.62.74-.52,1.84.22,2.45.33.27.72.4,1.11.4Z"/>
        <path class="cls-17" d="M57.03,141.1c.5,0,.99-.21,1.34-.63,7.85-9.42,17.1-14.39,26.73-14.39s18.88,4.98,26.73,14.39c.62.74,1.71.84,2.45.22.74-.62.84-1.71.22-2.45-8.54-10.23-18.7-15.64-29.4-15.64s-20.87,5.41-29.4,15.64c-.62.74-.52,1.84.22,2.45.33.27.72.4,1.11.4Z"/>
        <g>
          <path class="cls-9" d="M236.75,163.81c5.88,6.76,5.15,17.01-1.61,22.89-6.76,5.88-17.01,5.15-22.89-1.61-5.88-6.76-11.24-37.68-11.24-37.68,0,0,29.86,9.64,35.74,16.41Z"/>
          <path class="cls-11" d="M201.01,147.41s5.36,30.92,11.24,37.68c5.88,6.76,16.12,7.49,22.88,1.61,4.24-3.68,6.11-9.09,5.46-14.28-.91,1.73-2.15,3.32-3.71,4.68-6.76,5.88-17.01,5.15-22.89-1.61-3.58-4.12-6.96-17.17-9.06-26.75-2.41-.84-3.92-1.32-3.92-1.32Z"/>
          <path class="cls-17" d="M210.93,186.23c-6.12-7.05-11.42-37.24-11.64-38.53-.1-.6.11-1.21.57-1.61.46-.4,1.1-.53,1.68-.34,1.24.4,30.39,9.87,36.52,16.92,3.15,3.62,4.69,8.25,4.36,13.04-.34,4.79-2.52,9.16-6.14,12.3-3.39,2.95-7.59,4.39-11.77,4.39-5.03,0-10.03-2.09-13.58-6.18ZM213.56,183.95c5.24,6.03,14.4,6.67,20.43,1.44,2.92-2.54,4.68-6.06,4.95-9.92.27-3.86-.98-7.59-3.51-10.51-4.11-4.73-22.6-11.71-32.18-14.97,1.88,9.94,6.2,29.23,10.31,33.96Z"/>
        </g>
        <g>
          <path class="cls-9" d="M12.04,163.81c-5.88,6.76-5.15,17.01,1.61,22.89,6.76,5.88,17.01,5.15,22.89-1.61,5.88-6.76,11.24-37.68,11.24-37.68,0,0-29.86,9.64-35.74,16.41Z"/>
          <path class="cls-11" d="M47.77,147.41s-5.36,30.92-11.24,37.68c-5.88,6.76-16.12,7.49-22.88,1.61-4.24-3.68-6.11-9.09-5.46-14.28.91,1.73,2.15,3.32,3.71,4.68,6.76,5.88,17.01,5.15,22.89-1.61,3.58-4.12,6.96-17.17,9.06-26.75,2.41-.84,3.92-1.32,3.92-1.32Z"/>
          <path class="cls-17" d="M24.28,192.41c-4.18,0-8.37-1.44-11.77-4.39-3.62-3.15-5.8-7.51-6.14-12.3-.34-4.79,1.21-9.42,4.36-13.04,6.12-7.05,35.28-16.52,36.52-16.92.58-.19,1.22-.06,1.68.34.46.4.68,1.01.57,1.61-.22,1.28-5.52,31.48-11.64,38.53-3.55,4.08-8.55,6.18-13.58,6.18ZM45.54,149.99c-9.58,3.26-28.07,10.24-32.18,14.97-2.54,2.92-3.78,6.65-3.51,10.51.27,3.86,2.03,7.38,4.95,9.92,6.03,5.24,15.19,4.59,20.43-1.44,4.11-4.74,8.43-24.02,10.31-33.96Z"/>
        </g>
        <path class="cls-17" d="M187.05,104.81c.54,0,1.07-.25,1.41-.72.56-.78.39-1.87-.39-2.43-6.34-4.58-13.84-7-21.7-7s-15.36,2.42-21.7,7c-.78.56-.96,1.65-.39,2.43.56.78,1.65.95,2.43.39,5.74-4.15,12.54-6.34,19.66-6.34s13.92,2.19,19.66,6.34c.31.22.66.33,1.02.33Z"/>
        <path class="cls-17" d="M61.75,104.81c.35,0,.71-.11,1.02-.33,5.74-4.15,12.54-6.34,19.66-6.34s13.92,2.19,19.66,6.34c.78.56,1.87.39,2.43-.39.56-.78.39-1.87-.39-2.43-6.34-4.58-13.84-7-21.7-7s-15.36,2.42-21.7,7c-.78.56-.96,1.65-.39,2.43.34.47.87.72,1.41.72Z"/>
        <g>
          <g>
            <path class="cls-15" d="M124.4,177.39c26.95,0,64.11,1.63,64.11,1.63,0,60.09-42.14,60.09-64.11,60.09s-64.11,0-64.11-60.09c0,0,37.16-1.63,64.11-1.63Z"/>
            <path class="cls-17" d="M83.25,233.11c-16.39-9.27-24.7-27.47-24.7-54.09,0-.93.73-1.7,1.67-1.74.37-.02,37.51-1.63,64.19-1.63s63.82,1.62,64.19,1.63c.93.04,1.67.81,1.67,1.74,0,26.62-8.31,44.82-24.7,54.09-13.68,7.74-30.21,7.74-41.15,7.74s-27.47,0-41.15-7.74ZM124.4,179.13c-23.37,0-54.81,1.24-62.36,1.56.77,56.67,40.77,56.68,62.36,56.68s61.59,0,62.36-56.68c-7.55-.31-38.99-1.56-62.36-1.56Z"/>
          </g>
          <ellipse class="cls-2" cx="124.39" cy="208.65" rx="38.79" ry="29.84"/>
          <g>
            <path class="cls-19" d="M67.43,178.72c.84,9.43,6.91,17.19,14.95,18.67,9.78,1.78,24.05,3.55,42.03,3.55s32.25-1.78,42.02-3.55c8.04-1.47,14.1-9.24,14.94-18.67-12.11-.46-37.26-1.33-56.96-1.33s-44.86.87-56.96,1.33Z"/>
            <path class="cls-18" d="M67.43,178.72c.23,2.56.84,5,1.78,7.21,12.66-.47,36.41-1.26,55.19-1.26s42.52.79,55.19,1.26c.94-2.21,1.55-4.65,1.78-7.21-12.11-.46-37.26-1.33-56.96-1.33s-44.86.87-56.96,1.33Z"/>
            <path class="cls-17" d="M82.06,199.1c-8.72-1.6-15.46-9.91-16.37-20.22-.04-.48.11-.95.43-1.3.32-.36.76-.57,1.24-.59,13.06-.5,37.84-1.33,57.03-1.33s43.96.84,57.03,1.33c.48.02.92.23,1.24.59.32.36.47.83.43,1.3-.91,10.31-7.64,18.63-16.36,20.23-8.98,1.63-23.62,3.58-42.33,3.58s-33.35-1.95-42.34-3.58ZM124.39,179.13c-18.24,0-41.56.76-55,1.26,1.33,7.9,6.61,14.06,13.29,15.28,8.85,1.61,23.27,3.52,41.71,3.52s32.86-1.92,41.7-3.52c6.68-1.22,11.95-7.39,13.29-15.29-13.44-.5-36.78-1.26-55-1.26Z"/>
          </g>
          <g>
            <path class="cls-14" d="M91.58,234.99c11.46,4.11,23.83,4.11,32.81,4.11s21.34,0,32.82-4.11c-3.14-12.39-11.67-15.49-19.44-15.49-7.03,0-11.45,1.89-13.38,2.95-1.93-1.06-6.35-2.95-13.38-2.95-7.77,0-16.3,3.1-19.43,15.49Z"/>
            <path class="cls-17" d="M91,236.63c-.84-.3-1.32-1.2-1.1-2.06,3.5-13.89,13.42-16.81,21.12-16.81,6.51,0,10.95,1.56,13.38,2.73,2.43-1.18,6.87-2.73,13.38-2.73,7.7,0,17.61,2.92,21.13,16.8.22.87-.26,1.76-1.1,2.07-11.76,4.22-24.27,4.22-33.41,4.22s-21.65,0-33.4-4.22ZM137.77,221.24c-6.58,0-10.68,1.71-12.54,2.73-.52.29-1.15.29-1.67,0-1.86-1.02-5.96-2.73-12.54-2.73-8.87,0-14.69,4.25-17.31,12.63,10.75,3.49,22.21,3.49,30.68,3.49s19.94,0,30.69-3.49c-2.63-8.39-8.45-12.63-17.32-12.63Z"/>
          </g>
        </g>
      </g>
    </g>
  </g>
</svg>