<?xml version="1.0" encoding="UTF-8"?>
<svg id="Layer_2" xmlns="http://www.w3.org/2000/svg" viewBox="0 0 236.95 357.25">
  <defs>
    <style>
      .cls-1 {
        fill: #b2e513;
      }

      .cls-2 {
        fill: #432812;
      }

      .cls-3 {
        fill: #a9c11a;
      }

      .cls-4 {
        fill: #fbd205;
      }

      .cls-5 {
        fill: #382208;
      }

      .cls-6 {
        fill: #f5881f;
      }

      .cls-7 {
        fill: #74ba2a;
      }

      .cls-8 {
        fill: #7dd82e;
      }

      .cls-9 {
        fill: #fff08a;
      }

      .cls-10 {
        fill: #e3ff6c;
      }

      .cls-11 {
        fill: #faa81d;
      }

      .cls-12 {
        fill: #ec2224;
      }

      .cls-13 {
        fill: #583614;
      }

      .cls-14 {
        fill: #b0f467;
      }

      .cls-15 {
        fill: #372411;
      }

      .cls-16 {
        fill: #e1d6aa;
      }

      .cls-17 {
        fill: #fff2ba;
      }
    </style>
  </defs>
  <g id="Layer_1-2" data-name="Layer_1">
    <g>
      <g>
        <path class="cls-5" d="M135.1,350.9c2.24,0,4.17.5,5.69,1.1v-79.03c0-.97.7-1.85,1.66-1.94,1.11-.11,2.04.75,2.04,1.84v81.24s0,0,0,0v1.68c0,.8-.65,1.45-1.45,1.45h-8.35c-7.53,0-5.28-6.34.41-6.34Z"/>
        <path class="cls-5" d="M95.05,350.59c2.18-.31,4.17-.07,5.8.34l-7.99-35.69c-.06-.25-.06-.51,0-.76l8.04-40.6c.2-1,1.18-1.65,2.17-1.45,1,.2,1.65,1.17,1.45,2.17l-7.96,40.22,8.56,38.23.36,1.6c.14.61-.27,1.21-.89,1.3-1.81.26-5.42.78-8.35,1.2-7.31,1.05-6.72-5.75-1.19-6.55Z"/>
      </g>
      <g>
        <path class="cls-1" d="M82.22,1.83S115.84-.49,127.43,21.13c11.59,21.62,1.19,50.92,1.19,50.92,0,0-31.38-5.57-42.97-27.19-11.59-21.62-3.43-43.04-3.43-43.04Z"/>
        <path class="cls-10" d="M80.39,8.95c7.43-.13,35.97.69,46.74,20.8,3.44,6.43,5.08,13.48,5.64,20.32.54-9.13-.41-19.74-5.35-28.94C115.84-.49,82.22,1.82,82.22,1.82c0,0-1.02,2.69-1.83,7.12Z"/>
        <path class="cls-3" d="M96.63,57.72c13.79,11.09,32,14.33,32,14.33,0,0,2.59-7.27,3.74-17.25-3.41-.39-6.88-.58-10.4-.58-8.78,0-17.28,1.22-25.34,3.5Z"/>
        <path class="cls-5" d="M128.32,73.76c-1.32-.23-32.35-5.97-44.2-28.08-11.83-22.06-3.87-43.57-3.52-44.48.24-.63.83-1.07,1.51-1.12,1.42-.1,34.88-2.13,46.86,20.22,11.82,22.04,1.74,51.1,1.3,52.33-.25.7-.91,1.16-1.64,1.16-.1,0-.2,0-.31-.03ZM83.49,3.52c-1.39,4.52-5.93,22.57,3.69,40.52,9.64,17.98,33.99,24.56,40.26,25.98,1.84-6.08,8.1-30.07-1.55-48.07C116.77,4.94,92.72,3.5,84.86,3.5c-.53,0-.99,0-1.37.02Z"/>
        <path class="cls-5" d="M128.62,73.79c.17,0,.34-.02.51-.08.92-.28,1.44-1.26,1.15-2.17-.31-1.01-7.82-24.97-28.8-48.07-.65-.71-1.75-.76-2.46-.12-.71.65-.77,1.75-.12,2.46,20.43,22.5,27.97,46.52,28.05,46.76.23.75.92,1.23,1.66,1.23Z"/>
      </g>
      <g>
        <path class="cls-8" d="M208.74,19.87s-33.52-16.96-54.8.21c-21.28,17.17-23.32,51.78-23.32,51.78,0,0,34.65,7.9,55.93-9.28,21.28-17.17,22.2-42.71,22.2-42.71Z"/>
        <path class="cls-14" d="M133.78,54.22c3.66-8.98,9.19-18.25,17.53-24.98,19.63-15.84,49.16-4.08,56.16-.93,1.16-5.08,1.28-8.44,1.28-8.44,0,0-33.52-16.97-54.81.21-11.24,9.07-17.12,23.01-20.15,34.14Z"/>
        <path class="cls-7" d="M130.61,71.86s22.85,5.21,42.83-2.05c-11.68-7.81-25.25-13.04-39.87-14.86-2.54,9.59-2.97,16.91-2.97,16.91Z"/>
        <path class="cls-5" d="M130.22,73.55c-.83-.19-1.4-.95-1.35-1.8.09-1.44,2.34-35.58,23.97-53.03,21.91-17.68,55.27-1.12,56.68-.41.61.31.98.94.95,1.62-.04,1.07-1.19,26.53-22.85,44-11.51,9.29-26.56,11.52-38.37,11.52-10.44,0-18.36-1.75-19.04-1.9ZM155.03,21.43c-17.94,14.48-21.85,42.26-22.55,49.02,6.76,1.23,35.02,5.25,52.96-9.23,17.89-14.43,20.97-35.25,21.46-40.29-5.73-2.6-33.78-14.11-51.88.5Z"/>
        <path class="cls-5" d="M130.61,73.6c.51,0,1.02-.23,1.37-.66.18-.23,18.71-23.34,49.48-37.6.87-.4,1.25-1.44.85-2.31-.4-.87-1.44-1.25-2.31-.85-31.56,14.62-50.56,38.36-50.75,38.59-.6.75-.47,1.85.29,2.45.32.25.7.38,1.08.38Z"/>
      </g>
      <g>
        <circle class="cls-11" cx="118.59" cy="170.49" r="111.08" transform="translate(-85.82 133.79) rotate(-45)"/>
        <path class="cls-6" d="M9.29,190.84c9.56,51.63,54.81,90.74,109.22,90.74s99.67-39.11,109.23-90.75c-20.02,40.04-61.41,67.54-109.23,67.54S29.29,230.88,9.29,190.84Z"/>
        <path class="cls-9" d="M23.62,112.68c22.96-26.66,56.95-43.53,94.88-43.53s71.9,16.86,94.86,43.51c-19.51-31.94-54.69-53.26-94.86-53.26s-75.37,21.33-94.88,53.28Z"/>
        <path class="cls-15" d="M5.68,170.49c0-62.21,50.61-112.82,112.82-112.82s112.82,50.61,112.82,112.82-50.61,112.82-112.82,112.82S5.68,232.7,5.68,170.49ZM9.16,170.49c0,60.29,49.05,109.34,109.34,109.34s109.34-49.05,109.34-109.34-49.05-109.34-109.34-109.34S9.16,110.2,9.16,170.49Z"/>
      </g>
      <g>
        <path class="cls-6" d="M206.46,194.74c-2.35,3.32-2.67,7.13-.71,8.51,1.95,1.38,5.44-.19,7.79-3.51,2.35-3.32,2.67-7.13.71-8.51-1.95-1.38-5.44.19-7.79,3.51Z"/>
        <path class="cls-6" d="M197.91,211.23c-1.45,1.57-1.88,3.54-.95,4.4.93.85,2.85.27,4.31-1.3,1.45-1.57,1.88-3.54.95-4.4-.93-.85-2.85-.27-4.31,1.3Z"/>
      </g>
      <g>
        <path class="cls-4" d="M27.86,123.34c-1.49,2.89-1.33,5.94.37,6.82s4.29-.75,5.78-3.64c1.49-2.89,1.33-5.94-.37-6.82s-4.29.75-5.78,3.64Z"/>
        <path class="cls-4" d="M21.5,137.73c-1.08,2.09-.96,4.31.27,4.95,1.23.64,3.11-.54,4.19-2.64,1.08-2.09.96-4.31-.27-4.95-1.23-.64-3.11.54-4.19,2.64Z"/>
      </g>
      <g>
        <path class="cls-4" d="M124.11,155.9c.47-.67,1.39-.87,2.14-.53l4.4,1.96c.82.36,1.28,1.29.99,2.13-.33.96-1.4,1.41-2.31,1.01l-4.54-2.03c-.96-.43-1.33-1.64-.69-2.55Z"/>
        <path class="cls-4" d="M114.84,157.21c.47-.67,1.39-.87,2.14-.53l4.4,1.96c.82.36,1.28,1.29.99,2.14-.33.96-1.4,1.41-2.31,1.01l-4.54-2.03c-.96-.43-1.33-1.64-.69-2.55Z"/>
        <path class="cls-4" d="M105.56,158.52c.47-.67,1.39-.87,2.14-.53l4.4,1.96c.82.36,1.28,1.29.99,2.13-.33.96-1.4,1.41-2.31,1.01l-4.54-2.03c-.96-.43-1.33-1.64-.69-2.55Z"/>
      </g>
      <g>
        <path class="cls-5" d="M188.99,245.25c.12.02.25.02.37.01,1.78-.13,43.52-3.35,47.31-22.56,2.25-11.37-9.62-22.45-10.13-22.92-.71-.65-1.81-.61-2.46.1-.65.71-.61,1.81.1,2.46.11.1,10.94,10.23,9.07,19.68-3.28,16.61-43.74,19.73-44.15,19.76-.96.07-1.68.9-1.61,1.86.06.83.7,1.49,1.49,1.6Z"/>
        <path class="cls-5" d="M173.13,245.36c-.33-2.68,5.29-3.89,6.97-4.19.1-.02.09-.15,0-.18-3.05-.75-1.76-2.55,2.42-2.69,5.03-.17,7.44.98,7.91,4.87.43,3.48-2.79,4.98-6.7,5.45s-10.22-.12-10.6-3.26Z"/>
      </g>
      <g>
        <path class="cls-5" d="M47.97,245.25c-.12.02-.25.02-.37.01-1.78-.13-43.52-3.35-47.31-22.56-2.25-11.37,9.62-22.45,10.12-22.92.71-.65,1.81-.61,2.46.1.65.71.61,1.81-.1,2.46-.11.1-10.94,10.23-9.07,19.68,3.28,16.61,43.74,19.73,44.15,19.76.96.07,1.68.9,1.61,1.86-.06.83-.7,1.49-1.49,1.6Z"/>
        <path class="cls-5" d="M63.82,245.36c.33-2.68-5.29-3.89-6.97-4.19-.1-.02-.09-.15,0-.18,3.05-.75,1.76-2.55-2.42-2.69-5.03-.17-7.43.98-7.91,4.87-.43,3.48,2.79,4.98,6.7,5.45s10.21-.12,10.6-3.26Z"/>
      </g>
      <g>
        <g>
          <g>
            <path class="cls-13" d="M118.47,172.48c26.98,0,64.18,1.63,64.18,1.63,0,60.15-42.19,60.15-64.18,60.15s-64.18,0-64.18-60.15c0,0,37.21-1.63,64.18-1.63Z"/>
            <path class="cls-15" d="M77.28,228.26c-16.41-9.28-24.73-27.5-24.73-54.15,0-.93.73-1.7,1.67-1.74.37-.02,37.55-1.63,64.26-1.63s63.89,1.62,64.26,1.63c.93.04,1.67.81,1.67,1.74,0,26.65-8.32,44.87-24.73,54.15-13.7,7.74-30.25,7.74-41.2,7.74s-27.5,0-41.2-7.74ZM118.47,174.22c-23.39,0-54.87,1.25-62.43,1.56.77,56.74,40.82,56.74,62.43,56.74s61.66,0,62.43-56.74c-7.56-.31-39.04-1.56-62.43-1.56Z"/>
          </g>
          <ellipse class="cls-2" cx="118.47" cy="203.77" rx="38.83" ry="29.88"/>
          <g>
            <path class="cls-17" d="M61.44,173.81c.84,9.44,6.92,17.21,14.97,18.69,9.79,1.78,24.07,3.56,42.07,3.56s32.28-1.78,42.06-3.56c8.04-1.47,14.12-9.25,14.96-18.69-12.12-.46-37.31-1.33-57.03-1.33s-44.91.87-57.03,1.33Z"/>
            <path class="cls-16" d="M61.44,173.81c.23,2.56.84,5,1.78,7.22,12.67-.47,36.45-1.26,55.25-1.26s42.57.79,55.25,1.26c.94-2.21,1.55-4.65,1.78-7.22-12.12-.46-37.31-1.33-57.03-1.33s-44.91.87-57.03,1.33Z"/>
            <path class="cls-15" d="M76.09,194.21c-8.73-1.6-15.47-9.93-16.39-20.25-.04-.48.11-.95.43-1.31.32-.36.76-.57,1.24-.59,13.08-.5,37.89-1.33,57.1-1.33s44.01.84,57.1,1.33c.48.02.93.23,1.24.59.32.36.47.83.43,1.31-.91,10.32-7.65,18.65-16.38,20.25-8.99,1.64-23.65,3.58-42.38,3.58s-33.38-1.95-42.39-3.58ZM118.47,174.22c-18.26,0-41.61.76-55.06,1.26,1.34,7.91,6.62,14.08,13.31,15.3,8.86,1.61,23.3,3.53,41.76,3.53s32.9-1.92,41.75-3.53c6.69-1.22,11.97-7.4,13.3-15.3-13.46-.5-36.82-1.26-55.06-1.26Z"/>
          </g>
          <g>
            <path class="cls-12" d="M85.62,230.15c11.48,4.12,23.86,4.12,32.84,4.12s21.37,0,32.86-4.12c-3.14-12.4-11.69-15.51-19.46-15.51-7.04,0-11.47,1.89-13.39,2.95-1.93-1.06-6.35-2.95-13.39-2.95-7.78,0-16.32,3.11-19.45,15.51Z"/>
            <path class="cls-15" d="M85.03,231.79c-.84-.3-1.32-1.2-1.1-2.07,3.51-13.91,13.43-16.82,21.14-16.82,6.52,0,10.96,1.56,13.39,2.73,2.43-1.18,6.87-2.73,13.39-2.73,7.71,0,17.63,2.92,21.15,16.82.22.87-.26,1.77-1.1,2.07-11.77,4.22-24.3,4.22-33.44,4.22s-21.67,0-33.43-4.22ZM131.86,216.38c-6.58,0-10.69,1.71-12.56,2.74-.52.29-1.15.29-1.68,0-1.86-1.02-5.97-2.74-12.55-2.74-8.88,0-14.7,4.25-17.33,12.65,10.76,3.49,22.24,3.49,30.72,3.49s19.96,0,30.73-3.49c-2.63-8.39-8.46-12.65-17.34-12.65Z"/>
          </g>
        </g>
        <g>
          <g>
            <path class="cls-17" d="M44.78,132.68c0,5.82,1.61,11.25,4.41,15.9,4.98-2.77,10.94-4.77,17.48-5.73,2.86-.43,5.84-.65,8.89-.65s6.03.22,8.89.65c6.55.96,12.51,2.95,17.48,5.73,2.8-4.65,4.41-10.08,4.41-15.9,0-17-13.78-30.78-30.79-30.78s-30.79,13.78-30.79,30.78Z"/>
            <path class="cls-15" d="M47.7,149.48c-3.05-5.06-4.66-10.87-4.66-16.8,0-17.93,14.59-32.52,32.53-32.52s32.53,14.59,32.53,32.52c0,5.93-1.61,11.74-4.66,16.8-.49.81-1.52,1.08-2.34.62-4.86-2.71-10.7-4.62-16.89-5.52-5.56-.83-11.7-.83-17.27,0-6.19.91-12.03,2.82-16.89,5.52-.27.15-.56.22-.85.22-.59,0-1.17-.3-1.49-.84ZM46.52,132.68c0,4.74,1.15,9.4,3.35,13.56,4.9-2.48,10.58-4.24,16.54-5.11,5.9-.88,12.4-.88,18.29,0,5.97.87,11.65,2.63,16.55,5.12,2.2-4.17,3.35-8.82,3.35-13.56,0-16.01-13.03-29.03-29.04-29.03s-29.04,13.02-29.04,29.03Z"/>
          </g>
          <path class="cls-15" d="M61.58,132.08c0,4.34,1.98,8.22,5.09,10.77,2.86-.43,5.84-.65,8.89-.65s6.03.22,8.89.65c3.11-2.55,5.09-6.43,5.09-10.77,0-7.72-6.26-13.98-13.98-13.98s-13.98,6.26-13.98,13.98Z"/>
        </g>
        <g>
          <g>
            <path class="cls-17" d="M130.63,127.42c0,4.88,1.61,9.43,4.41,13.33,4.98-2.32,10.94-4,17.48-4.8,2.86-.36,5.84-.54,8.89-.54s6.03.18,8.89.54c6.55.8,12.51,2.48,17.48,4.8,2.8-3.89,4.41-8.45,4.41-13.33,0-14.25-13.78-25.8-30.79-25.8s-30.79,11.55-30.79,25.8Z"/>
            <path class="cls-15" d="M133.54,141.5c-3.05-4.24-4.66-9.11-4.66-14.08,0-15.03,14.59-27.26,32.53-27.26s32.53,12.23,32.53,27.26c0,4.97-1.61,9.84-4.66,14.08-.48.68-1.52.91-2.34.52-4.86-2.27-10.7-3.87-16.89-4.63-5.56-.7-11.7-.7-17.27,0-6.19.76-12.03,2.36-16.89,4.63-.27.13-.56.19-.85.19-.59,0-1.17-.25-1.49-.71ZM132.37,127.42c0,3.97,1.15,7.88,3.35,11.37,4.9-2.08,10.58-3.55,16.54-4.29,5.9-.74,12.4-.74,18.29,0,5.97.73,11.65,2.21,16.55,4.29,2.2-3.49,3.35-7.39,3.35-11.37,0-13.42-13.03-24.34-29.04-24.34s-29.04,10.92-29.04,24.34Z"/>
          </g>
          <path class="cls-15" d="M147.43,126.91c0,3.64,1.98,6.89,5.09,9.03,2.86-.36,5.84-.54,8.89-.54s6.03.18,8.89.54c3.11-2.14,5.09-5.39,5.09-9.03,0-6.47-6.26-11.72-13.98-11.72s-13.98,5.25-13.98,11.72Z"/>
        </g>
      </g>
    </g>
  </g>
</svg>