<?xml version="1.0" encoding="UTF-8"?>
<svg id="Layer_2" xmlns="http://www.w3.org/2000/svg" viewBox="0 0 317.98 357.28">
  <defs>
    <style>
      .cls-1 {
        fill: #bd2126;
      }

      .cls-2 {
        fill: #b2e513;
      }

      .cls-3 {
        fill: #432812;
      }

      .cls-4 {
        fill: #a9c11a;
      }

      .cls-5 {
        fill: #fbd205;
      }

      .cls-6 {
        fill: #382208;
      }

      .cls-7 {
        fill: #f5881f;
      }

      .cls-8 {
        fill: #74ba2a;
      }

      .cls-9 {
        fill: #7dd82e;
      }

      .cls-10 {
        fill: #fff08a;
      }

      .cls-11 {
        fill: #e3ff6c;
      }

      .cls-12 {
        fill: #faa81d;
      }

      .cls-13 {
        fill: #ec2224;
      }

      .cls-14 {
        fill: #583614;
      }

      .cls-15 {
        fill: #b0f467;
      }

      .cls-16 {
        fill: #372411;
      }

      .cls-17 {
        fill: #e1d6aa;
      }

      .cls-18 {
        fill: #fff2ba;
      }
    </style>
  </defs>
  <g id="Layer_1-2" data-name="Layer_1">
    <g>
      <g>
        <path class="cls-6" d="M119.34,350.94c-2.24,0-4.17.5-5.69,1.1v-79.03c0-.97-.7-1.85-1.66-1.94-1.11-.11-2.04.75-2.04,1.84v81.24s0,0,0,0v1.68c0,.8.65,1.45,1.45,1.45h8.35c7.53,0,5.28-6.34-.41-6.34Z"/>
        <path class="cls-6" d="M159.39,350.63c-2.17-.31-4.17-.07-5.8.34l7.99-35.69c.06-.25.06-.51,0-.76l-8.04-40.6c-.2-1-1.18-1.65-2.17-1.45-1,.2-1.65,1.17-1.45,2.17l7.96,40.22-8.56,38.23-.36,1.6c-.14.61.27,1.21.89,1.3,1.81.26,5.42.78,8.35,1.2,7.31,1.05,6.72-5.75,1.19-6.55Z"/>
      </g>
      <g>
        <path class="cls-2" d="M98.37,1.82s33.62-2.31,45.21,19.3c11.59,21.62,1.19,50.92,1.19,50.92,0,0-31.38-5.57-42.97-27.19-11.59-21.62-3.43-43.04-3.43-43.04Z"/>
        <path class="cls-11" d="M96.54,8.95c7.43-.13,35.97.69,46.74,20.8,3.44,6.43,5.08,13.48,5.64,20.32.54-9.13-.41-19.74-5.35-28.94C131.99-.49,98.37,1.82,98.37,1.82c0,0-1.02,2.69-1.83,7.12Z"/>
        <path class="cls-4" d="M112.78,57.72c13.79,11.09,32,14.33,32,14.33,0,0,2.59-7.27,3.74-17.25-3.41-.39-6.88-.58-10.4-.58-8.78,0-17.28,1.22-25.34,3.5Z"/>
        <path class="cls-6" d="M144.47,73.76c-1.32-.23-32.35-5.97-44.2-28.08-11.83-22.06-3.87-43.57-3.52-44.48.24-.63.83-1.07,1.51-1.12,1.42-.1,34.88-2.13,46.86,20.22,11.82,22.04,1.74,51.1,1.3,52.33-.25.7-.91,1.16-1.64,1.16-.1,0-.2,0-.31-.03ZM99.64,3.52c-1.39,4.52-5.93,22.57,3.69,40.52,9.64,17.98,33.99,24.56,40.26,25.98,1.84-6.08,8.1-30.07-1.55-48.07C132.92,4.94,108.86,3.5,101.01,3.5c-.53,0-.99,0-1.37.02Z"/>
        <path class="cls-6" d="M144.77,73.79c.17,0,.34-.02.51-.08.92-.28,1.44-1.26,1.15-2.17-.31-1.01-7.82-24.97-28.8-48.07-.65-.71-1.75-.76-2.46-.12-.71.65-.77,1.75-.12,2.46,20.43,22.5,27.97,46.52,28.05,46.76.23.75.92,1.23,1.66,1.23Z"/>
      </g>
      <g>
        <path class="cls-9" d="M224.89,19.87s-33.52-16.96-54.8.21c-21.28,17.17-23.32,51.78-23.32,51.78,0,0,34.65,7.9,55.93-9.28s22.2-42.71,22.2-42.71Z"/>
        <path class="cls-15" d="M149.92,54.22c3.66-8.98,9.19-18.25,17.53-24.98,19.63-15.84,49.16-4.08,56.16-.93,1.16-5.08,1.28-8.44,1.28-8.44,0,0-33.52-16.97-54.81.21-11.24,9.07-17.12,23.01-20.15,34.14Z"/>
        <path class="cls-8" d="M146.76,71.86s22.85,5.21,42.83-2.05c-11.68-7.81-25.25-13.04-39.87-14.86-2.54,9.59-2.97,16.91-2.97,16.91Z"/>
        <path class="cls-6" d="M146.37,73.55c-.83-.19-1.4-.95-1.35-1.8.09-1.44,2.34-35.58,23.97-53.03,21.91-17.68,55.27-1.12,56.68-.41.61.31.98.94.95,1.62-.04,1.07-1.19,26.53-22.84,44-11.51,9.29-26.56,11.52-38.37,11.52-10.44,0-18.36-1.75-19.04-1.9ZM171.18,21.43c-17.94,14.48-21.85,42.26-22.55,49.02,6.76,1.23,35.02,5.25,52.96-9.23,17.89-14.43,20.97-35.25,21.46-40.29-5.73-2.6-33.78-14.11-51.88.5Z"/>
        <path class="cls-6" d="M146.76,73.6c.51,0,1.02-.23,1.37-.66.18-.23,18.71-23.34,49.48-37.6.87-.4,1.25-1.44.85-2.31-.4-.87-1.44-1.25-2.31-.85-31.56,14.62-50.56,38.36-50.75,38.59-.6.75-.47,1.85.29,2.45.32.25.7.38,1.08.38Z"/>
      </g>
      <g>
        <circle class="cls-12" cx="135.95" cy="170.52" r="111.08"/>
        <path class="cls-7" d="M25.08,190.87c9.56,51.63,54.81,90.74,109.22,90.74s99.67-39.11,109.23-90.75c-20.02,40.04-61.41,67.54-109.23,67.54s-89.21-27.49-109.22-67.53Z"/>
        <path class="cls-10" d="M39.41,112.71c22.96-26.66,56.95-43.53,94.88-43.53s71.9,16.86,94.86,43.51c-19.51-31.94-54.69-53.26-94.86-53.26s-75.37,21.33-94.88,53.28Z"/>
        <path class="cls-16" d="M21.48,170.52c0-62.21,50.61-112.82,112.82-112.82s112.82,50.61,112.82,112.82-50.61,112.82-112.82,112.82S21.48,232.73,21.48,170.52ZM24.96,170.52c0,60.29,49.05,109.34,109.34,109.34s109.34-49.05,109.34-109.34-49.05-109.34-109.34-109.34S24.96,110.23,24.96,170.52Z"/>
      </g>
      <g>
        <path class="cls-5" d="M31.82,161.71c.12,3.07,1.67,5.51,3.48,5.44,1.81-.07,3.18-2.61,3.06-5.69-.12-3.07-1.67-5.51-3.48-5.44-1.81.07-3.18,2.61-3.06,5.69Z"/>
        <path class="cls-5" d="M33.28,176.51c.08,2.23,1.21,3.99,2.52,3.94,1.31-.05,2.3-1.89,2.22-4.12-.08-2.23-1.21-3.99-2.52-3.94-1.31.05-2.3,1.89-2.22,4.12Z"/>
        <path class="cls-7" d="M225.73,188.36c-2.57,3.15-3.14,6.94-1.28,8.45,1.86,1.51,5.44.18,8.01-2.98,2.57-3.15,3.14-6.94,1.28-8.45-1.86-1.51-5.44-.18-8.01,2.98Z"/>
        <path class="cls-7" d="M216.15,210.16c-1.55,1.47-2.11,3.41-1.24,4.32.87.91,2.83.46,4.38-1.01,1.55-1.47,2.11-3.41,1.24-4.32-.87-.91-2.83-.46-4.38,1.01Z"/>
      </g>
      <g>
        <path class="cls-5" d="M138.09,158.31c.32-.46.94-.59,1.45-.36l2.97,1.33c.55.25.87.87.67,1.44-.22.65-.95.95-1.56.68l-3.07-1.37c-.65-.29-.9-1.11-.47-1.72Z"/>
        <path class="cls-5" d="M131.82,159.19c.32-.45.94-.59,1.45-.36l2.97,1.33c.55.25.87.87.67,1.44-.22.65-.95.95-1.56.68l-3.07-1.37c-.65-.29-.9-1.11-.47-1.72Z"/>
        <path class="cls-5" d="M125.55,160.08c.32-.46.94-.59,1.45-.36l2.97,1.33c.55.25.87.87.67,1.44-.22.65-.95.95-1.56.68l-3.07-1.37c-.65-.29-.9-1.11-.47-1.72Z"/>
      </g>
      <g>
        <g>
          <g>
            <circle class="cls-18" cx="83.44" cy="135.83" r="34.15" transform="translate(-55.49 214.01) rotate(-87.81)"/>
            <path class="cls-16" d="M48.44,143.76c-2.12-9.35-.47-18.96,4.65-27.07,5.11-8.11,13.08-13.74,22.43-15.85,9.35-2.12,18.96-.47,27.07,4.65,8.11,5.11,13.74,13.08,15.86,22.43,4.37,19.3-7.78,38.56-27.08,42.92-2.66.6-5.31.89-7.93.89-16.39,0-31.23-11.32-35-27.97ZM76.28,104.23c-8.44,1.91-15.63,7-20.25,14.32-4.62,7.32-6.11,16-4.2,24.44,3.95,17.43,21.34,28.39,38.76,24.45,17.43-3.95,28.39-21.33,24.45-38.76-3.4-15.03-16.8-25.25-31.6-25.25-2.36,0-4.76.26-7.16.8Z"/>
          </g>
          <path class="cls-16" d="M106.69,133.49c-2.34-10.35-12.64-16.85-22.99-14.5-10.35,2.34-16.85,12.64-14.5,22.99,2.34,10.35,12.64,16.85,22.99,14.5,10.35-2.34,16.85-12.64,14.5-22.99Z"/>
        </g>
        <path class="cls-16" d="M137.04,133.14c.63,0,1.24-.35,1.55-.95,5.58-10.92,13.5-17.82,22.89-19.94,9.4-2.13,19.51.69,29.25,8.14.76.58,1.86.44,2.44-.33.58-.76.44-1.86-.32-2.44-10.59-8.1-21.7-11.13-32.14-8.77-10.44,2.36-19.16,9.88-25.23,21.75-.44.86-.1,1.91.76,2.34.25.13.52.19.79.19Z"/>
        <g>
          <g>
            <rect class="cls-13" x="199.46" y="43.19" width="84.95" height="139.05" rx="9.16" ry="9.16" transform="translate(87.92 330.7) rotate(-79.74)"/>
            <path class="cls-1" d="M176.14,143.97l116.45,21.09c5.63,1.02,11.01-2.72,12.03-8.35l11.45-63.21c1.02-5.62-2.72-11.01-8.34-12.03l-4.86-.88-11.02,60.88c-1.02,5.63-6.41,9.37-12.04,8.35l-111.6-20.21-.42,2.32c-1.02,5.62,2.73,11.01,8.35,12.03Z"/>
            <circle class="cls-1" cx="220.63" cy="110.74" r="31.32" transform="translate(11.9 242.55) rotate(-58.93)"/>
            <path class="cls-16" d="M292.28,166.76l-116.45-21.08h0c-6.56-1.19-10.94-7.5-9.75-14.06l11.45-63.21c1.19-6.56,7.49-10.94,14.06-9.75l116.45,21.09c3.18.58,5.94,2.35,7.79,5.01,1.84,2.66,2.54,5.87,1.96,9.05l-11.45,63.21c-.58,3.18-2.36,5.94-5.01,7.79-2.05,1.42-4.43,2.16-6.87,2.16-.72,0-1.45-.07-2.18-.2ZM180.96,69.03l-11.45,63.21c-.85,4.67,2.27,9.16,6.94,10.01l116.45,21.08c2.26.41,4.55-.09,6.44-1.4,1.89-1.31,3.16-3.28,3.57-5.54l11.45-63.21c.41-2.26-.09-4.55-1.4-6.44-1.31-1.89-3.28-3.16-5.54-3.57l-116.45-21.09c-.52-.09-1.03-.14-1.54-.14-4.08,0-7.72,2.92-8.47,7.08ZM176.14,143.97h0,0Z"/>
          </g>
          <g>
            <path class="cls-18" d="M189.39,101.37c-2.87,15.85,7.65,31.03,23.51,33.91,15.85,2.87,31.03-7.65,33.9-23.51,2.87-15.85-7.65-31.03-23.51-33.9-15.85-2.87-31.03,7.65-33.9,23.51Z"/>
            <path class="cls-17" d="M201.71,130.71c-4.16-6.1-6.02-13.77-4.6-21.62,2.86-15.85,18.05-26.38,33.9-23.51,4.15.75,7.93,2.34,11.2,4.59-4.24-6.25-10.9-10.86-18.93-12.31-15.85-2.87-31.03,7.65-33.9,23.51-2.12,11.71,3.06,23.05,12.32,29.34Z"/>
            <path class="cls-16" d="M212.59,136.99c-16.77-3.04-27.95-19.16-24.91-35.93h0c3.04-16.77,19.15-27.95,35.93-24.91,16.77,3.04,27.95,19.16,24.91,35.93-2.7,14.92-15.75,25.41-30.41,25.41-1.82,0-3.67-.16-5.52-.5ZM191.1,101.68h0c-2.69,14.88,7.22,29.19,22.11,31.88,14.88,2.69,29.19-7.22,31.88-22.11,2.69-14.88-7.22-29.19-22.11-31.88-1.65-.3-3.28-.44-4.9-.44-13,0-24.58,9.31-26.98,22.55Z"/>
          </g>
        </g>
        <g>
          <g>
            <path class="cls-14" d="M135.47,176.33c29.39-6.64,70.32-14.03,70.32-14.03,14.81,65.53-31.15,75.92-55.11,81.34-23.96,5.42-69.92,15.81-84.73-49.72,0,0,40.13-10.94,69.52-17.58Z"/>
            <ellipse class="cls-3" cx="143.04" cy="209.8" rx="42.35" ry="32.59" transform="translate(-42.74 36.7) rotate(-12.74)"/>
            <path class="cls-16" d="M104.39,247.04c-20.08-6.04-33.59-23.79-40.13-52.75-.21-.91.34-1.82,1.24-2.06.4-.11,40.5-11.03,69.59-17.6,29.09-6.58,69.99-13.97,70.4-14.04.92-.17,1.8.42,2.01,1.33,6.55,28.96,1.99,50.79-13.54,64.88-12.97,11.77-30.97,15.84-42.88,18.53-11.91,2.69-29.91,6.76-46.68,1.71ZM135.86,178.02c-25.69,5.81-60.03,15.02-67.83,17.13,14.81,62.04,58.64,52.13,82.27,46.78,23.64-5.34,67.47-15.25,54.15-77.62-7.95,1.45-42.9,7.9-68.6,13.71Z"/>
          </g>
          <g>
            <path class="cls-18" d="M85.31,233.48c20.17,20.17,48.31,13.81,65.33,9.96,17.03-3.85,45.16-10.21,54.7-37.1v-.02c-3.42-6.36-10.52-9.8-17.62-8.55-.34.06-.68.12-1.04.18-9.12,1.65-23.46,4.46-44.25,9.16-21.6,4.88-36.02,8.6-44.9,11.05-6.96,1.92-11.89,8.09-12.23,15.31h0Z"/>
            <path class="cls-17" d="M85.31,233.48c20.17,20.17,48.3,13.81,65.33,9.96,17.03-3.85,45.16-10.21,54.7-37.09v-.02c-.83-1.51-1.85-2.86-3.04-4.02-10.62,24.04-37.06,30.01-53.35,33.7-16.29,3.68-42.73,9.66-62.66-7.48-.57,1.57-.91,3.23-.99,4.96Z"/>
            <path class="cls-16" d="M84.08,234.71c-.35-.35-.53-.82-.51-1.31.37-7.99,5.79-14.78,13.5-16.91,8.28-2.28,22.8-6.06,44.98-11.07,17.1-3.86,32.01-6.95,44.33-9.17l1.04-.19c7.86-1.39,15.68,2.4,19.46,9.46.23.43.27.94.1,1.4-9.86,27.79-38.71,34.31-55.95,38.21-17.24,3.9-46.1,10.42-66.95-10.43ZM188.03,199.5l-1.03.18c-12.27,2.21-27.13,5.29-44.18,9.14-22.11,5-36.58,8.76-44.82,11.03-6.01,1.66-10.3,6.81-10.9,12.95,19.46,18.82,46.78,12.65,63.16,8.94,16.38-3.7,43.7-9.88,53.17-35.24-3.18-5.29-9.27-8.1-15.4-7.01Z"/>
          </g>
          <g>
            <path class="cls-18" d="M73.61,191.84c2.59,8.91,11.07,14.93,20.43,14.27,11.04-.78,26.97-2.67,46.57-7.1,19.59-4.43,34.8-9.58,45.08-13.62,8.73-3.44,13.79-12.51,12.3-21.67-13.3,2.46-41.01,7.73-62.52,12.59-21.53,4.87-48.8,12.03-61.87,15.52Z"/>
            <path class="cls-17" d="M73.61,191.84c.77,2.67,2.09,5.09,3.79,7.13,13.71-3.65,39.36-10.34,59.82-14.97,20.44-4.62,46.47-9.61,60.43-12.21.66-2.58.8-5.32.35-8.07-13.3,2.47-41.01,7.73-62.52,12.6-21.53,4.87-48.8,12.03-61.87,15.52Z"/>
            <path class="cls-16" d="M94.16,207.86c-10.05.7-19.4-5.83-22.22-15.52-.13-.45-.07-.93.15-1.34.23-.41.61-.71,1.07-.83,11.16-2.99,39.54-10.48,61.94-15.54,22.39-5.06,51.22-10.5,62.59-12.61.46-.09.94.02,1.32.29.38.27.64.68.72,1.14,1.62,9.97-4.01,19.88-13.39,23.57-9.44,3.71-24.97,9.1-45.34,13.7-20.36,4.6-36.7,6.42-46.83,7.14ZM135.86,178.02c-21.22,4.8-47.83,11.78-60,15.03,2.9,7.19,10.22,11.88,18.05,11.34,10.01-.71,26.17-2.51,46.31-7.06,20.15-4.56,35.5-9.88,44.83-13.54,7.31-2.88,11.9-10.26,11.42-18-12.38,2.3-39.41,7.45-60.61,12.24Z"/>
          </g>
        </g>
      </g>
      <g>
        <path class="cls-6" d="M205.25,245.95c.12.02.25.02.37.01,1.78-.13,43.52-3.35,47.31-22.56,2.25-11.37-9.62-22.45-10.13-22.92-.71-.65-1.81-.61-2.46.1-.65.71-.61,1.81.1,2.46.11.1,10.94,10.23,9.07,19.68-3.28,16.61-43.74,19.73-44.15,19.76-.96.07-1.68.9-1.61,1.86.06.83.7,1.49,1.49,1.6Z"/>
        <path class="cls-6" d="M189.39,246.06c-.33-2.68,5.29-3.89,6.97-4.19.1-.02.09-.15,0-.18-3.05-.75-1.76-2.55,2.42-2.69,5.03-.17,7.43.98,7.91,4.87.43,3.48-2.79,4.98-6.7,5.45-3.9.48-10.21-.12-10.6-3.26Z"/>
      </g>
      <g>
        <path class="cls-6" d="M22.12,195.57c2.33-.07,3.94-.36,4.13-.4.94-.18,1.56-1.09,1.38-2.04-.18-.94-1.09-1.56-2.04-1.38h0c-.13.02-12.57,2.27-18.45-5.24-8.51-10.88.33-39.56.42-39.85.29-.92-.22-1.89-1.14-2.18-.92-.29-1.9.22-2.18,1.14-.39,1.25-9.47,30.72.16,43.03,4.86,6.21,12.85,7.06,17.71,6.91Z"/>
        <path class="cls-6" d="M9.24,129.87c2.65.51,2.08,6.22,1.85,7.92-.01.1.12.14.17.05,1.65-2.67,2.97-.89,1.82,3.13-1.38,4.84-3.21,6.78-7.06,6.04-3.44-.66-3.88-4.18-3.14-8.04s3.24-9.69,6.35-9.09Z"/>
      </g>
    </g>
  </g>
</svg>