<?xml version="1.0" encoding="UTF-8"?>
<svg id="Layer_2" xmlns="http://www.w3.org/2000/svg" viewBox="0 0 90.46 157.4">
  <defs>
    <style>
      .cls-1 {
        fill: #fcc3b2;
      }

      .cls-2 {
        fill: #e2890b;
      }

      .cls-3 {
        fill: #ffc32c;
      }

      .cls-4 {
        fill: #333131;
      }

      .cls-5 {
        fill: #f4a795;
        opacity: .5;
      }

      .cls-6 {
        fill: #2b2622;
      }

      .cls-7 {
        fill: #8e0909;
      }

      .cls-8 {
        fill: #a54828;
      }

      .cls-9 {
        fill: #ffb19d;
        opacity: .3;
      }

      .cls-10 {
        fill: #a54321;
      }

      .cls-11 {
        fill: #ba5d35;
      }
    </style>
  </defs>
  <g id="OBJECTS">
    <g>
      <g>
        <g>
          <rect class="cls-11" x="36.03" y="82.33" width="18.44" height="23.87"/>
          <path class="cls-8" d="M35.98,94.26s12.68,1.77,18.5-4.74v-6.73h-18.5v11.46Z"/>
        </g>
        <g>
          <rect class="cls-1" x="35.93" y="104.12" width="18.44" height="23.87"/>
          <path class="cls-5" d="M35.88,116.05s12.68,1.77,18.49-4.74v-6.73h-18.49v11.46Z"/>
        </g>
        <path class="cls-11" d="M45.15,8.13h0C-3.23,8.13,6.61,64.69,17.6,77.56c9.25,10.85,27.55,10.85,27.55,10.85h0s18.3,0,27.56-10.85c10.98-12.87,20.83-69.43-27.56-69.43Z"/>
        <g>
          <path class="cls-11" d="M13.26,54.67c0,2.7-2.18,4.88-4.88,4.88s-4.88-2.19-4.88-4.88,2.19-4.88,4.88-4.88,4.88,2.19,4.88,4.88Z"/>
          <path class="cls-11" d="M88.55,54.67c0,2.7-2.19,4.88-4.88,4.88s-4.88-2.19-4.88-4.88,2.19-4.88,4.88-4.88,4.88,2.19,4.88,4.88Z"/>
        </g>
        <g>
          <g>
            <path class="cls-4" d="M29.17,48.69c0,3.28-.95,5.94-2.12,5.94s-2.12-2.66-2.12-5.94.95-5.95,2.12-5.95,2.12,2.66,2.12,5.95Z"/>
            <path class="cls-4" d="M65.39,48.69c0,3.28-.95,5.94-2.12,5.94s-2.12-2.66-2.12-5.94.95-5.95,2.12-5.95,2.12,2.66,2.12,5.95Z"/>
          </g>
          <path class="cls-10" d="M41.05,60.19s.15.08.39.2c.12.06.28.13.43.21.17.08.36.15.54.25.2.08.42.14.63.24.22.06.45.12.68.2.24.03.48.08.71.13.25,0,.48.02.73.05h.02s-.17.01-.09,0h.01s.01,0,.01,0h.06s.11-.01.11-.01l.22-.02c.15-.02.3-.02.45-.03.24-.04.41-.1.64-.12.23-.07.46-.13.67-.19.21-.09.42-.16.62-.24.18-.1.37-.17.54-.25.15-.09.31-.16.43-.22.24-.13.39-.21.39-.21,0,0-.02.17-.12.44-.1.27-.28.65-.6,1.05-.17.19-.36.39-.57.59-.24.17-.49.36-.79.52-.32.13-.7.29-1.04.36-.15.02-.29.05-.44.06l-.22.03h-.11s-.06.02-.06.02h-.12s-.03,0-.03,0c-.36-.04-.72-.07-1.06-.14-.33-.11-.66-.24-.96-.36-.28-.17-.54-.35-.78-.52-.22-.2-.41-.4-.57-.59-.32-.39-.5-.77-.61-1.04-.1-.28-.13-.44-.13-.44Z"/>
          <path class="cls-7" d="M53.36,67.54c-1.02,3.48-4.93,4.91-8.2,5.02-3.28-.11-7.18-1.54-8.2-5.02-.2-.67-1.24-.38-1.04.29,1.13,3.86,5.25,5.6,8.95,5.8.04,0,.07.02.12.02.06,0,.12,0,.18,0,.06,0,.12,0,.18,0,.04,0,.08-.01.12-.02,3.7-.2,7.81-1.94,8.95-5.8.2-.67-.85-.96-1.04-.29Z"/>
          <g>
            <path class="cls-9" d="M27.87,62.69c0,3.51-2.84,6.35-6.35,6.35s-6.35-2.84-6.35-6.35,2.84-6.35,6.35-6.35,6.35,2.84,6.35,6.35Z"/>
            <path class="cls-9" d="M75.13,62.69c0,3.51-2.84,6.35-6.35,6.35s-6.35-2.84-6.35-6.35,2.84-6.35,6.35-6.35,6.35,2.84,6.35,6.35Z"/>
          </g>
        </g>
        <g>
          <path class="cls-2" d="M79.46,108.15c-9.21-6.73-25.09-11.28-25.09-11.28-2.26,5.67-7.82,6.07-9.14,6.08-1.33-.01-7.04-.41-9.3-6.08,0,0-15.72,4.56-24.93,11.28C1.79,114.88-.74,147.42.18,157.4h90.11c.92-9.98-1.61-42.53-10.82-49.25Z"/>
          <path class="cls-3" d="M45.13,110.29c10.5,0,14.95-6.19,16.82-10.88-4.36-1.62-7.57-2.54-7.57-2.54-2.26,5.67-7.82,6.07-9.14,6.08-1.33-.01-7.04-.41-9.3-6.08,0,0-2.99.87-7.12,2.4,1.54,4.65,5.6,11.02,16.32,11.02Z"/>
        </g>
      </g>
      <path class="cls-6" d="M75.33,7.23C64.93.98,46.84-.08,45.25,0c-1.58-.08-19.67.97-30.08,7.22C4.29,13.77,5.09,41.46,6.01,50.4c0,0,5.06.93,5.49,4.27,0,0,1.58-23.09,5.64-26.47,0,0,13.03,4.01,27.99,4.06h0s.08,0,.12,0,.08,0,.12,0h0c14.96-.05,27.99-4.06,27.99-4.06,4.06,3.38,5.64,26.47,5.64,26.47.43-3.34,5.49-4.27,5.49-4.27.92-8.94,1.73-36.63-9.16-43.17Z"/>
    </g>
  </g>
</svg>