<?xml version="1.0" encoding="UTF-8"?>
<svg id="Layer_2" xmlns="http://www.w3.org/2000/svg" xmlns:xlink="http://www.w3.org/1999/xlink" viewBox="0 0 125.14 160.74">
  <defs>
    <style>
      .cls-1 {
        fill: #fcc3b2;
      }

      .cls-2 {
        opacity: .3;
      }

      .cls-3 {
        fill: none;
      }

      .cls-4 {
        fill: #333131;
      }

      .cls-5 {
        fill: #f4a795;
        opacity: .5;
      }

      .cls-6 {
        fill: #f4ab9a;
      }

      .cls-7 {
        fill: #f47e56;
      }

      .cls-8 {
        fill: #bdbeb9;
      }

      .cls-9 {
        fill: #ffb19d;
      }

      .cls-10 {
        clip-path: url(#clippath);
      }

      .cls-11 {
        fill: #dddddb;
      }
    </style>
    <clipPath id="clippath">
      <path class="cls-3" d="M96.51,111.49c-9.21-6.73-25.09-11.28-25.09-11.28-2.26,5.67-7.82,6.07-9.14,6.08-1.32-.01-7.04-.41-9.3-6.08,0,0-15.72,4.56-24.93,11.28-9.21,6.73-11.74,39.27-10.82,49.25h90.11c.92-9.98-1.61-42.53-10.82-49.25Z"/>
    </clipPath>
  </defs>
  <g id="OBJECTS">
    <g>
      <g>
        <rect class="cls-1" x="52.98" y="85.67" width="18.44" height="23.87"/>
        <path class="cls-5" d="M52.93,97.6s12.68,1.77,18.49-4.74v-6.73h-18.49v11.46Z"/>
      </g>
      <path class="cls-1" d="M62.21,11.46h0c-48.39,0-38.54,56.56-27.56,69.43,9.25,10.85,27.55,10.85,27.56,10.85h0s18.3,0,27.56-10.85c10.98-12.87,20.83-69.43-27.56-69.43Z"/>
      <g>
        <path class="cls-1" d="M30.31,58.01c0,2.7-2.19,4.88-4.88,4.88s-4.88-2.19-4.88-4.88,2.19-4.88,4.88-4.88,4.88,2.19,4.88,4.88Z"/>
        <path class="cls-1" d="M105.6,58.01c0,2.7-2.19,4.88-4.88,4.88s-4.88-2.19-4.88-4.88,2.19-4.88,4.88-4.88,4.88,2.19,4.88,4.88Z"/>
      </g>
      <path class="cls-7" d="M102.2,7.34s-3.62,5.79-8.25,5.35c-4.63-.43-9.26-5.5-15.77-8.82-6.51-3.33-30.23-8.68-34.57,5.06,0,0-5.35-3.76-12.3.87-6.94,4.63-11.75,25.6-9.13,44.55,0,0,1.75-1.66,4.79-.97,0,0,4.34-2.07,8.39-10.6,4.05-8.53,7.38-16.92,14.9-17.36,0,0,3.04,12.73,17.94,15.48,6.83,1.26,16.67.02,24.35-4.3,4.31,6.96,6.01,17.34,6.01,17.34l2.14-.81c1.49-7.21-.05-16.98-1.11-22.23,4.6-5.46,6.45-13.19,2.6-23.55Z"/>
      <g>
        <g>
          <path class="cls-4" d="M46.22,52.03c0,3.28-.95,5.94-2.12,5.94s-2.12-2.66-2.12-5.94.95-5.95,2.12-5.95,2.12,2.66,2.12,5.95Z"/>
          <path class="cls-4" d="M82.44,52.03c0,3.28-.95,5.94-2.12,5.94s-2.12-2.66-2.12-5.94.95-5.95,2.12-5.95,2.12,2.66,2.12,5.95Z"/>
        </g>
        <path class="cls-6" d="M58.1,63.53s.15.08.39.2c.12.06.28.13.43.21.17.08.36.15.54.25.2.08.42.14.63.24.22.06.45.12.68.2.24.03.48.08.71.13.24,0,.48.02.73.05h.02s-.17.01-.09,0h.01s.01,0,.01,0h.06s.11-.01.11-.01l.23-.02c.15-.02.3-.02.45-.03.24-.04.41-.1.64-.12.23-.07.46-.13.67-.19.21-.09.42-.16.62-.24.18-.1.37-.17.54-.25.15-.09.31-.16.43-.22.24-.13.39-.21.39-.21,0,0-.02.17-.12.44-.1.27-.28.65-.6,1.05-.17.19-.35.39-.57.59-.24.17-.49.36-.79.52-.32.13-.7.29-1.04.36-.15.02-.29.05-.44.06l-.23.03h-.11s-.06.02-.06.02h-.12s-.03,0-.03,0c-.36-.04-.72-.07-1.06-.14-.33-.11-.66-.24-.96-.36-.28-.17-.54-.35-.78-.52-.22-.2-.41-.4-.57-.59-.32-.39-.5-.77-.61-1.04-.1-.28-.13-.44-.13-.44Z"/>
        <path class="cls-7" d="M70.41,70.88c-1.02,3.48-4.93,4.91-8.2,5.02-3.27-.11-7.18-1.54-8.2-5.02-.2-.67-1.24-.38-1.05.29,1.13,3.86,5.25,5.6,8.95,5.8.04,0,.07.02.12.02.06,0,.12,0,.18,0,.06,0,.12,0,.18,0,.05,0,.08-.01.12-.02,3.7-.2,7.81-1.94,8.95-5.8.2-.67-.85-.96-1.05-.29Z"/>
        <g>
          <path class="cls-9" d="M44.92,66.03c0,3.51-2.84,6.35-6.35,6.35s-6.35-2.84-6.35-6.35,2.84-6.35,6.35-6.35,6.35,2.84,6.35,6.35Z"/>
          <path class="cls-9" d="M92.18,66.03c0,3.51-2.84,6.35-6.35,6.35s-6.35-2.84-6.35-6.35,2.84-6.35,6.35-6.35,6.35,2.84,6.35,6.35Z"/>
        </g>
      </g>
      <g>
        <path class="cls-8" d="M96.51,111.49c-9.21-6.73-25.09-11.28-25.09-11.28-2.26,5.67-7.82,6.07-9.14,6.08-1.32-.01-7.04-.41-9.3-6.08,0,0-15.72,4.56-24.93,11.28-9.21,6.73-11.74,39.27-10.82,49.25h90.11c.92-9.98-1.61-42.53-10.82-49.25Z"/>
        <g class="cls-10">
          <g class="cls-2">
            <path class="cls-11" d="M62.32,118.67c-.1,0-.19,0-.28,0-18.29-.16-31.46-15.82-32.02-16.49l2.67-2.21c.13.15,12.73,15.1,29.4,15.23,9.88.11,19.37-5.05,28.12-15.26l2.63,2.26c-9.38,10.93-19.65,16.47-30.53,16.47Z"/>
            <path class="cls-11" d="M62.88,132.21c-33.73,0-47.76-20.84-48.34-21.72l2.9-1.9c.03.05,3.42,5.11,10.68,10.09,6.69,4.59,18.15,10.06,34.76,10.06,13.29,0,24.83-3.94,34.31-11.71,7.1-5.82,10.32-11.73,10.35-11.78l3.06,1.64c-.14.26-3.5,6.48-11.08,12.73-6.97,5.75-18.99,12.6-36.64,12.6Z"/>
            <path class="cls-11" d="M62.95,146.02c-40.76,0-57.69-25.14-58.4-26.21l2.9-1.9c.16.25,16.69,24.65,55.49,24.65,20.3,0,34.07-7.85,42.06-14.43,8.62-7.11,12.48-14.23,12.51-14.3l3.06,1.63c-.16.31-16.77,30.56-57.63,30.56Z"/>
            <path class="cls-11" d="M62.99,159.43c-43.97,0-62.23-27.11-62.99-28.26l2.9-1.9c.18.27,18.07,26.7,60.08,26.7,21.9,0,36.79-8.44,45.41-15.52,9.38-7.7,13.64-15.52,13.68-15.6l3.06,1.64c-.18.33-18.08,32.96-62.16,32.96Z"/>
          </g>
        </g>
      </g>
    </g>
  </g>
</svg>