<?xml version="1.0" encoding="UTF-8"?>
<svg id="Layer_2" xmlns="http://www.w3.org/2000/svg" xmlns:xlink="http://www.w3.org/1999/xlink" viewBox="0 0 110.34 160.3">
  <defs>
    <style>
      .cls-1 {
        fill: #fcc3b2;
      }

      .cls-2 {
        fill: #323941;
      }

      .cls-3 {
        fill: none;
      }

      .cls-4 {
        fill: #333131;
      }

      .cls-5 {
        fill: #f4a795;
        opacity: .5;
      }

      .cls-6 {
        fill: #f4ab9a;
      }

      .cls-7 {
        fill: #398478;
      }

      .cls-8 {
        fill: #f47e56;
      }

      .cls-9 {
        fill: #ffb19d;
      }

      .cls-10 {
        fill: #5d9a92;
      }

      .cls-11 {
        clip-path: url(#clippath);
      }
    </style>
    <clipPath id="clippath">
      <path class="cls-3" d="M85.1,111.05c-9.21-6.73-25.09-11.28-25.09-11.28-2.26,5.67-7.82,6.07-9.14,6.08-1.32,0-7.04-.41-9.3-6.08,0,0-15.72,4.56-24.93,11.28-9.21,6.73-11.74,39.27-10.82,49.25h90.1c.92-9.98-1.61-42.53-10.82-49.25Z"/>
    </clipPath>
  </defs>
  <g id="OBJECTS">
    <g>
      <g>
        <rect class="cls-1" x="41.67" y="85.23" width="18.44" height="23.87"/>
        <path class="cls-5" d="M41.62,97.16s12.68,1.77,18.49-4.74v-6.73h-18.49v11.46Z"/>
      </g>
      <g>
        <rect class="cls-1" x="41.57" y="107.02" width="18.44" height="23.87"/>
        <path class="cls-5" d="M41.52,118.95s12.68,1.77,18.49-4.74v-6.73h-18.49v11.46Z"/>
      </g>
      <path class="cls-1" d="M50.79,11.02h0c-48.39,0-38.54,56.56-27.56,69.43,9.25,10.85,27.55,10.85,27.56,10.85h0s18.3,0,27.55-10.85c10.98-12.87,20.83-69.43-27.55-69.43Z"/>
      <g>
        <path class="cls-1" d="M18.89,57.56c0,2.7-2.19,4.88-4.88,4.88s-4.88-2.19-4.88-4.88,2.19-4.88,4.88-4.88,4.88,2.19,4.88,4.88Z"/>
        <path class="cls-1" d="M94.18,57.56c0,2.7-2.19,4.88-4.88,4.88s-4.88-2.19-4.88-4.88,2.19-4.88,4.88-4.88,4.88,2.19,4.88,4.88Z"/>
      </g>
      <g>
        <g>
          <path class="cls-4" d="M34.8,51.58c0,3.28-.95,5.94-2.12,5.94s-2.12-2.66-2.12-5.94.95-5.95,2.12-5.95,2.12,2.66,2.12,5.95Z"/>
          <path class="cls-4" d="M71.02,51.58c0,3.28-.95,5.94-2.12,5.94s-2.12-2.66-2.12-5.94.95-5.95,2.12-5.95,2.12,2.66,2.12,5.95Z"/>
        </g>
        <path class="cls-6" d="M46.68,63.08s.15.08.39.2c.12.06.28.12.43.21.17.08.36.15.54.25.2.08.42.14.63.24.22.06.45.12.68.2.24.03.48.08.71.13.25,0,.48.02.73.04h.02s-.17.01-.09,0h0s.01,0,.01,0h.06s.11-.01.11-.01l.22-.02c.15-.01.3-.02.45-.03.24-.04.41-.1.64-.12.23-.07.46-.13.67-.19.21-.09.42-.16.62-.24.18-.1.37-.17.54-.25.15-.09.31-.16.43-.22.24-.13.39-.21.39-.21,0,0-.02.17-.12.44-.1.27-.28.65-.6,1.05-.17.19-.36.39-.57.59-.24.17-.49.36-.79.52-.32.13-.7.29-1.04.36-.15.02-.29.05-.44.06l-.22.03h-.11s-.06.02-.06.02h-.12s-.03,0-.03,0c-.36-.04-.72-.08-1.06-.14-.33-.11-.66-.23-.96-.36-.28-.17-.55-.35-.78-.52-.22-.2-.41-.4-.57-.59-.32-.39-.5-.77-.61-1.04-.1-.28-.13-.44-.13-.44Z"/>
        <path class="cls-8" d="M58.99,70.44c-1.02,3.48-4.93,4.91-8.2,5.02-3.27-.11-7.18-1.54-8.2-5.02-.2-.67-1.24-.38-1.05.29,1.13,3.85,5.25,5.6,8.95,5.8.04,0,.07.02.12.02.06,0,.12,0,.18,0,.06,0,.12,0,.18,0,.04,0,.08-.01.12-.02,3.7-.2,7.81-1.95,8.95-5.8.2-.67-.85-.96-1.04-.29Z"/>
        <g>
          <path class="cls-9" d="M33.5,65.58c0,3.5-2.84,6.35-6.35,6.35s-6.35-2.84-6.35-6.35,2.84-6.35,6.35-6.35,6.35,2.84,6.35,6.35Z"/>
          <path class="cls-9" d="M80.77,65.58c0,3.5-2.84,6.35-6.35,6.35s-6.35-2.84-6.35-6.35,2.84-6.35,6.35-6.35,6.35,2.84,6.35,6.35Z"/>
        </g>
      </g>
      <path class="cls-2" d="M14.01,52.68s9.89-12.93,10.57-20.37c0,0,26.38,14.06,34.28,10.19,7.89-3.87-3.96-7.03-3.96-7.03,0,0,29.72,10.61,32.29,17.71,0,0,2.51-1.39,4.24,0,0,0,8.7-44.77-21.52-43.87,0,0-11.05-12.4-34.05-8.57C12.85,4.57,7.77,42.62,11.88,53.17l2.13-.49Z"/>
      <g>
        <path class="cls-10" d="M85.1,111.05c-9.21-6.73-25.09-11.28-25.09-11.28-2.26,5.67-7.82,6.07-9.14,6.08-1.32,0-7.04-.41-9.3-6.08,0,0-15.72,4.56-24.93,11.28-9.21,6.73-11.74,39.27-10.82,49.25h90.1c.92-9.98-1.61-42.53-10.82-49.25Z"/>
        <g class="cls-11">
          <g>
            <rect class="cls-7" y="114.58" width="110.34" height="2.71"/>
            <rect class="cls-7" y="123.6" width="110.34" height="2.71"/>
            <rect class="cls-7" y="132.62" width="110.34" height="2.71"/>
          </g>
        </g>
      </g>
    </g>
  </g>
</svg>