<?xml version="1.0" encoding="UTF-8"?>
<svg id="Layer_2" xmlns="http://www.w3.org/2000/svg" viewBox="0 0 91.97 158.29">
  <defs>
    <style>
      .cls-1 {
        fill: #333131;
      }

      .cls-2 {
        fill: #efc307;
      }

      .cls-3 {
        fill: #2b2622;
      }

      .cls-4 {
        fill: #8e0909;
      }

      .cls-5 {
        fill: #a54828;
      }

      .cls-6 {
        fill: #ffb19d;
        opacity: .3;
      }

      .cls-7 {
        fill: #f4d642;
      }

      .cls-8 {
        fill: #a54321;
      }

      .cls-9 {
        fill: #ba5d35;
      }
    </style>
  </defs>
  <g id="OBJECTS">
    <g>
      <path class="cls-3" d="M84.91,95.37c-7.48-13.5-.18-20.5,3.4-34.29,3.58-13.8-7.51-39.56-7.51-39.56l-36.29,1.63-36.29-1.63S-2.87,47.27.71,61.07c3.58,13.8,10.88,20.79,3.4,34.29s-2.15,24.13,1.52,32.65-5.91,22.85-1.12,25.19h80.01c4.79-2.33-4.79-16.67-1.12-25.19s9-19.15,1.52-32.65Z"/>
      <g>
        <g>
          <rect class="cls-9" x="36.64" y="83.21" width="18.44" height="23.87"/>
          <path class="cls-5" d="M36.59,95.15s12.68,1.77,18.49-4.74v-6.73h-18.49v11.46Z"/>
        </g>
        <path class="cls-9" d="M45.87,9.01h0c-48.39,0-38.54,56.56-27.56,69.43,9.25,10.85,27.55,10.85,27.56,10.85h0s18.3,0,27.55-10.85c10.98-12.87,20.83-69.43-27.55-69.43Z"/>
        <g>
          <path class="cls-9" d="M13.97,55.55c0,2.7-2.19,4.88-4.88,4.88s-4.88-2.19-4.88-4.88,2.18-4.88,4.88-4.88,4.88,2.19,4.88,4.88Z"/>
          <path class="cls-9" d="M89.26,55.55c0,2.7-2.19,4.88-4.88,4.88s-4.88-2.19-4.88-4.88,2.19-4.88,4.88-4.88,4.88,2.19,4.88,4.88Z"/>
        </g>
        <g>
          <g>
            <path class="cls-1" d="M29.88,49.57c0,3.28-.95,5.94-2.12,5.94s-2.12-2.66-2.12-5.94.95-5.95,2.12-5.95,2.12,2.66,2.12,5.95Z"/>
            <path class="cls-1" d="M66.1,49.57c0,3.28-.95,5.94-2.12,5.94s-2.12-2.66-2.12-5.94.95-5.95,2.12-5.95,2.12,2.66,2.12,5.95Z"/>
          </g>
          <path class="cls-8" d="M41.76,61.07s.16.08.4.2c.12.06.28.12.43.21.17.08.36.15.55.25.2.08.42.14.63.24.23.06.45.12.68.2.24.03.48.08.71.13.25,0,.48.02.73.04h.02s-.17.01-.09,0h.01s.01,0,.01,0h.06s.11-.01.11-.01l.23-.02c.15-.01.3-.02.45-.03.24-.04.41-.1.63-.12.23-.07.46-.13.67-.19.21-.09.42-.16.62-.24.18-.1.37-.17.54-.25.15-.09.31-.16.43-.22.24-.13.39-.21.39-.21,0,0-.02.17-.12.44-.1.27-.28.65-.6,1.05-.17.19-.35.39-.57.59-.24.17-.49.36-.79.52-.32.13-.7.29-1.04.36-.15.02-.29.05-.44.06l-.23.03h-.11s-.06.02-.06.02h-.12s-.03,0-.03,0c-.36-.04-.72-.08-1.06-.14-.33-.11-.66-.23-.96-.36-.28-.17-.55-.35-.78-.52-.21-.2-.41-.4-.57-.59-.31-.39-.5-.77-.61-1.04-.1-.28-.13-.44-.13-.44Z"/>
          <path class="cls-4" d="M54.07,68.42c-1.02,3.48-4.93,4.91-8.2,5.02-3.28-.11-7.18-1.54-8.2-5.02-.2-.67-1.24-.38-1.04.29,1.13,3.85,5.25,5.6,8.95,5.8.04,0,.07.02.12.02.06,0,.12,0,.18,0,.06,0,.12,0,.18,0,.05,0,.08-.01.12-.02,3.7-.2,7.81-1.95,8.95-5.8.2-.67-.85-.96-1.05-.29Z"/>
          <g>
            <path class="cls-6" d="M28.58,63.57c0,3.5-2.84,6.35-6.35,6.35s-6.35-2.84-6.35-6.35,2.84-6.35,6.35-6.35,6.35,2.84,6.35,6.35Z"/>
            <path class="cls-6" d="M75.84,63.57c0,3.5-2.84,6.35-6.35,6.35s-6.35-2.84-6.35-6.35,2.84-6.35,6.35-6.35,6.35,2.84,6.35,6.35Z"/>
          </g>
        </g>
        <path class="cls-9" d="M80.17,109.04c-9.21-6.73-25.09-11.28-25.09-11.28-2.26,5.67-7.82,6.07-9.15,6.08-1.32,0-7.04-.41-9.3-6.08,0,0-15.72,4.56-24.93,11.28C2.5,115.76-.03,148.31.89,158.29h90.1c.92-9.98-1.61-42.53-10.82-49.25Z"/>
      </g>
      <g>
        <path class="cls-7" d="M80.97,109.04c-4.39-3.2-11.15-5.91-16.09-7.87,0,0-2.55,18.25-19,26.83-16.45-8.58-19-26.83-19-26.83-4.94,1.96-10.8,4.67-15.18,7.87C2.5,115.76-.03,148.31.89,158.29h90.9c.92-9.98-1.61-42.53-10.82-49.25Z"/>
        <path class="cls-2" d="M69.75,103.14c-1.71-.72-3.37-1.38-4.86-1.98,0,0-2.55,18.25-19,26.83-16.45-8.58-19-26.83-19-26.83-1.49.59-3.07,1.26-4.66,1.98,0,.08-.41,20.76,23.71,31.71,0,0,20.56-6.83,23.81-31.71Z"/>
      </g>
      <path class="cls-3" d="M9.09,50.67s17.21-14.13,23.21-23.13c0,0,34.27,20.57,50.13,23.62,0,0,4.8-1.55,5.82,1.42,0,0,3.71-52.58-44.29-52.58S5.22,52.58,5.22,52.58l3.87-1.91Z"/>
    </g>
  </g>
</svg>