<?xml version="1.0" encoding="UTF-8"?>
<svg id="Layer_2" xmlns="http://www.w3.org/2000/svg" viewBox="0 0 90.52 161.97">
  <defs>
    <style>
      .cls-1 {
        fill: #fcc3b2;
      }

      .cls-2 {
        fill: #a52157;
      }

      .cls-3 {
        fill: #c17426;
      }

      .cls-4 {
        fill: #333131;
      }

      .cls-5 {
        fill: #f4a795;
        opacity: .5;
      }

      .cls-6 {
        fill: #f4ab9a;
      }

      .cls-7 {
        fill: #f47e56;
      }

      .cls-8 {
        fill: #ffb19d;
      }

      .cls-9 {
        fill: #b74f8c;
      }
    </style>
  </defs>
  <g id="OBJECTS">
    <g>
      <path class="cls-3" d="M5.44,33.97s-23.43,115.91,39.53,115.91,43.11-106.58,40.44-115.91H5.44Z"/>
      <g>
        <rect class="cls-1" x="35.93" y="86.9" width="18.44" height="23.87"/>
        <path class="cls-5" d="M35.88,98.83s12.68,1.77,18.49-4.74v-6.73h-18.49v11.46Z"/>
      </g>
      <path class="cls-1" d="M45.15,12.69h0C-3.23,12.69,6.61,69.25,17.6,82.12c9.25,10.85,27.55,10.85,27.56,10.85h0s18.3,0,27.56-10.85c10.98-12.87,20.83-69.43-27.56-69.43Z"/>
      <g>
        <path class="cls-1" d="M13.26,59.23c0,2.7-2.19,4.88-4.88,4.88s-4.88-2.19-4.88-4.88,2.19-4.88,4.88-4.88,4.88,2.19,4.88,4.88Z"/>
        <path class="cls-1" d="M88.55,59.23c0,2.7-2.18,4.88-4.88,4.88s-4.88-2.19-4.88-4.88,2.19-4.88,4.88-4.88,4.88,2.19,4.88,4.88Z"/>
      </g>
      <g>
        <g>
          <path class="cls-4" d="M29.17,53.25c0,3.28-.95,5.94-2.12,5.94s-2.12-2.66-2.12-5.94.95-5.95,2.12-5.95,2.12,2.66,2.12,5.95Z"/>
          <path class="cls-4" d="M65.38,53.25c0,3.28-.95,5.94-2.12,5.94s-2.12-2.66-2.12-5.94.95-5.95,2.12-5.95,2.12,2.66,2.12,5.95Z"/>
        </g>
        <path class="cls-6" d="M41.05,64.75s.15.08.39.2c.12.06.28.13.43.21.17.08.36.15.55.25.2.08.42.14.63.24.23.06.45.12.68.2.24.03.48.08.71.13.24,0,.48.02.73.05h.02s-.17.01-.09,0h.01s.01,0,.01,0h.06s.11-.01.11-.01l.22-.02c.15-.02.3-.02.45-.03.24-.04.41-.1.63-.12.23-.07.46-.13.67-.19.21-.09.42-.16.62-.24.18-.1.37-.17.54-.25.15-.09.31-.16.43-.22.24-.13.39-.21.39-.21,0,0-.02.17-.12.44-.1.27-.29.65-.6,1.05-.17.19-.35.39-.57.59-.24.17-.49.36-.79.52-.32.13-.7.29-1.04.36-.15.02-.29.05-.44.06l-.22.03h-.11s-.06.02-.06.02h-.12s-.03,0-.03,0c-.36-.04-.72-.07-1.06-.14-.33-.11-.66-.24-.96-.36-.28-.17-.55-.35-.78-.52-.22-.2-.41-.4-.57-.59-.32-.39-.5-.77-.61-1.04-.1-.28-.13-.44-.13-.44Z"/>
        <path class="cls-7" d="M53.35,72.11c-1.02,3.48-4.93,4.91-8.2,5.02-3.27-.11-7.18-1.54-8.2-5.02-.2-.67-1.24-.38-1.05.29,1.13,3.86,5.25,5.6,8.95,5.8.04,0,.07.02.12.02.06,0,.12,0,.18,0,.06,0,.12,0,.18,0,.04,0,.08-.01.12-.02,3.7-.2,7.81-1.94,8.95-5.8.2-.67-.85-.96-1.05-.29Z"/>
        <g>
          <path class="cls-8" d="M27.87,67.25c0,3.51-2.84,6.35-6.35,6.35s-6.35-2.84-6.35-6.35,2.84-6.35,6.35-6.35,6.35,2.84,6.35,6.35Z"/>
          <path class="cls-8" d="M75.13,67.25c0,3.51-2.84,6.35-6.35,6.35s-6.35-2.84-6.35-6.35,2.84-6.35,6.35-6.35,6.35,2.84,6.35,6.35Z"/>
        </g>
      </g>
      <path class="cls-1" d="M79.46,112.72c-9.21-6.73-25.09-11.28-25.09-11.28-2.26,5.67-7.82,6.07-9.14,6.08-1.33-.01-7.04-.41-9.3-6.08,0,0-15.72,4.56-24.93,11.28C1.79,119.44-.74,151.99.18,161.97h90.11c.92-9.98-1.61-42.53-10.82-49.25Z"/>
      <path class="cls-3" d="M9.15,54.42s3.61-10.82,19.39-12.18l.62-11.88,1.93,12.03h16.54l1.62-8.72,1.83,8.72s8.56-.29,14.29.75c5.73,1.04,13.67,10.52,15.77,12.78,0,0,1.97-2.22,5.34-.66,0,0,6.6-55.26-41.54-55.26S4.79,55.92,4.79,55.92c0,0,1.41-1.65,4.36-1.5Z"/>
      <path class="cls-2" d="M83.67,54.35l-7.32-1.92c-.11-7.58-6.3-13.72-13.91-13.72-6.94,0-12.7,5.11-13.74,11.77-3.23-1.75-6.08-.85-7.66,0-1.04-6.65-6.8-11.76-13.74-11.76-7.63,0-13.84,6.17-13.92,13.79l-7.11,2.33,2.28.4,4.94-.92c.83,6.89,6.7,12.24,13.81,12.24,7.68,0,13.92-6.25,13.92-13.92,0-.06,0-.11,0-.17.91-.65,3.85-2.32,7.31.02,0,.05,0,.1,0,.15,0,7.68,6.25,13.92,13.92,13.92,7.13,0,13.02-5.39,13.82-12.31l5.3.99,2.11-.89ZM27.29,64.75c-6.68,0-12.12-5.44-12.12-12.12s5.44-12.12,12.12-12.12,12.12,5.44,12.12,12.12-5.44,12.12-12.12,12.12ZM62.44,64.75c-6.68,0-12.12-5.44-12.12-12.12s5.44-12.12,12.12-12.12,12.12,5.44,12.12,12.12-5.44,12.12-12.12,12.12Z"/>
      <path class="cls-9" d="M79.52,112.72c-1.29-.94-2.7-1.83-4.18-2.68,0,0-8.09,11.33-30.08,11.43-22-.1-30.09-11.43-30.09-11.43-1.48.85-2.89,1.74-4.18,2.68C1.79,119.44-.74,151.99.18,161.97h90.17c.92-9.98-1.61-42.53-10.82-49.25Z"/>
    </g>
  </g>
</svg>