<?xml version="1.0" encoding="UTF-8"?>
<svg id="Layer_2" xmlns="http://www.w3.org/2000/svg" viewBox="0 0 101.8 162.69">
  <defs>
    <style>
      .cls-1 {
        fill: #fcc3b2;
      }

      .cls-2 {
        fill: #333131;
      }

      .cls-3 {
        fill: #f4a795;
        opacity: .5;
      }

      .cls-4 {
        fill: #f4ab9a;
      }

      .cls-5 {
        fill: #f47e56;
      }

      .cls-6 {
        fill: #e94939;
      }

      .cls-7 {
        fill: #ce1b13;
      }

      .cls-8 {
        fill: #ffb19d;
      }
    </style>
  </defs>
  <g id="OBJECTS">
    <g>
      <path class="cls-2" d="M91.36,21.21C79.21-1.12,50.94,0,50.94,0h-.08S22.59-1.12,10.44,21.21C-1.7,43.53-.34,95.4.56,107.12h100.68c.9-11.73,2.25-63.59-9.89-85.92Z"/>
      <g>
        <g>
          <rect class="cls-1" x="41.56" y="87.62" width="18.44" height="23.87"/>
          <path class="cls-3" d="M41.51,99.55s12.68,1.77,18.49-4.74v-6.73h-18.49v11.46Z"/>
        </g>
        <path class="cls-1" d="M50.79,13.41h0C2.4,13.41,12.25,69.97,23.23,82.85c9.25,10.85,27.55,10.85,27.56,10.85h0s18.3,0,27.56-10.85c10.98-12.87,20.83-69.43-27.56-69.43Z"/>
        <g>
          <path class="cls-1" d="M18.89,59.96c0,2.7-2.19,4.88-4.88,4.88s-4.88-2.19-4.88-4.88,2.18-4.88,4.88-4.88,4.88,2.19,4.88,4.88Z"/>
          <path class="cls-1" d="M94.18,59.96c0,2.7-2.19,4.88-4.88,4.88s-4.88-2.19-4.88-4.88,2.18-4.88,4.88-4.88,4.88,2.19,4.88,4.88Z"/>
        </g>
        <g>
          <g>
            <path class="cls-2" d="M34.8,53.98c0,3.28-.95,5.94-2.12,5.94s-2.12-2.66-2.12-5.94.95-5.95,2.12-5.95,2.12,2.66,2.12,5.95Z"/>
            <path class="cls-2" d="M71.02,53.98c0,3.28-.95,5.94-2.12,5.94s-2.12-2.66-2.12-5.94.95-5.95,2.12-5.95,2.12,2.66,2.12,5.95Z"/>
          </g>
          <path class="cls-4" d="M46.68,65.48s.16.08.39.2c.12.06.28.13.43.21.17.08.36.15.55.25.2.08.42.15.63.24.23.06.46.12.68.2.24.03.48.08.71.13.25,0,.49.02.73.04h.02s-.17.01-.09,0h0s0,0,0,0h.01s.06,0,.06,0h.11s.23-.03.23-.03c.15-.01.3-.02.45-.03.24-.04.41-.09.63-.11.23-.07.46-.13.67-.19.21-.09.42-.16.62-.24.18-.1.37-.17.54-.25.15-.09.31-.16.43-.22.24-.13.39-.21.39-.21,0,0-.02.16-.12.44-.1.27-.28.65-.6,1.05-.17.19-.36.39-.57.59-.24.17-.49.36-.79.52-.32.13-.7.29-1.04.36-.15.02-.29.05-.44.06l-.23.03h-.11s-.06.02-.06.02h-.12s-.03,0-.03,0c-.36-.04-.72-.08-1.06-.14-.33-.11-.66-.23-.96-.36-.28-.17-.55-.35-.78-.52-.21-.2-.41-.4-.57-.59-.32-.39-.5-.76-.61-1.04-.1-.28-.13-.44-.13-.44Z"/>
          <path class="cls-5" d="M58.99,72.83c-1.02,3.48-4.93,4.91-8.2,5.02-3.27-.11-7.18-1.54-8.2-5.02-.2-.67-1.24-.38-1.04.29,1.13,3.85,5.25,5.6,8.95,5.8.04,0,.07.02.12.02.06,0,.12,0,.18,0,.06,0,.12,0,.18,0,.05,0,.08-.01.12-.02,3.7-.2,7.82-1.95,8.95-5.8.2-.67-.85-.96-1.04-.29Z"/>
          <g>
            <path class="cls-8" d="M33.5,67.98c0,3.51-2.84,6.35-6.35,6.35s-6.35-2.84-6.35-6.35,2.84-6.35,6.35-6.35,6.35,2.84,6.35,6.35Z"/>
            <path class="cls-8" d="M80.76,67.98c0,3.51-2.84,6.35-6.35,6.35s-6.35-2.84-6.35-6.35,2.84-6.35,6.35-6.35,6.35,2.84,6.35,6.35Z"/>
          </g>
        </g>
        <path class="cls-1" d="M85.09,113.44c-9.21-6.73-25.09-11.28-25.09-11.28-2.26,5.67-7.82,6.07-9.14,6.08-1.33,0-7.04-.41-9.3-6.08,0,0-15.72,4.56-24.93,11.28-9.21,6.73-11.74,39.27-10.82,49.25h90.1c.92-9.98-1.61-42.53-10.82-49.25Z"/>
      </g>
      <path class="cls-2" d="M14.01,55.07s8.62-18.31,13.14-20.56c0,0,17.15,9.7,35.42,8.34,0,0-13.74-3.83-15.89-6.31,0,0,15.21,4.06,23.33,5.19,8.12,1.13,17.16,13.84,17.16,13.84,0,0,2.48-1.46,4.26,0,0,0,5.64-51.16-41.94-51.16S11.17,55.99,11.17,55.99l2.84-.91Z"/>
      <g>
        <path class="cls-6" d="M85.17,113.44s-18.41,14.4-34.27,20.94c-15.86-6.54-34.27-20.94-34.27-20.94-9.21,6.73-11.74,39.27-10.82,49.25h90.18c.92-9.98-1.61-42.53-10.82-49.25Z"/>
        <path class="cls-7" d="M16.63,113.44s-7.05,2.25-8.86,6.53c0,0,20.41,13.47,43.13,14.4l-34.27-20.94Z"/>
        <path class="cls-7" d="M85.31,113.44s7.05,2.25,8.86,6.53c0,0-20.41,13.47-43.13,14.4l34.27-20.94Z"/>
      </g>
    </g>
  </g>
</svg>