<?xml version="1.0" encoding="UTF-8"?>
<svg id="Layer_2" xmlns="http://www.w3.org/2000/svg" viewBox="0 0 253.22 358.47">
  <defs>
    <style>
      .cls-1 {
        fill: #b2e513;
      }

      .cls-2 {
        fill: #a9c11a;
      }

      .cls-3 {
        fill: #fbd205;
      }

      .cls-4 {
        fill: #fcfdff;
      }

      .cls-5 {
        fill: #382208;
      }

      .cls-6 {
        fill: #f5881f;
      }

      .cls-7 {
        fill: #fff;
      }

      .cls-8 {
        fill: #74ba2a;
      }

      .cls-9 {
        fill: #7dd82e;
      }

      .cls-10 {
        fill: #fff08a;
      }

      .cls-11 {
        fill: #e3ff6c;
      }

      .cls-12 {
        fill: #faa81d;
      }

      .cls-13 {
        fill: #583614;
      }

      .cls-14 {
        fill: #b0f467;
      }

      .cls-15 {
        fill: #372411;
      }
    </style>
  </defs>
  <g id="Layer_1-2" data-name="Layer_1">
    <g>
      <g>
        <path class="cls-5" d="M151.07,352.12c2.24,0,4.17.5,5.69,1.1v-79.03c0-.97.7-1.85,1.66-1.94,1.11-.11,2.04.75,2.04,1.84v81.24s0,0,0,0v1.68c0,.8-.65,1.45-1.45,1.45h-8.35c-7.53,0-5.28-6.34.41-6.34Z"/>
        <path class="cls-5" d="M110.25,351.81c2.18-.31,4.17-.07,5.8.34l-7.99-35.69c-.06-.25-.06-.51,0-.76l8.04-40.6c.2-1,1.18-1.65,2.17-1.45,1,.2,1.65,1.17,1.45,2.17l-7.96,40.22,8.56,38.23.36,1.6c.14.61-.27,1.21-.89,1.3-1.81.26-5.42.78-8.35,1.2-7.31,1.05-6.72-5.75-1.19-6.55Z"/>
      </g>
      <g>
        <path class="cls-1" d="M98.37,1.83s33.62-2.31,45.21,19.3c11.59,21.62,1.19,50.92,1.19,50.92,0,0-31.38-5.57-42.97-27.19-11.59-21.62-3.43-43.04-3.43-43.04Z"/>
        <path class="cls-11" d="M96.54,8.95c7.43-.13,35.97.69,46.74,20.8,3.44,6.43,5.08,13.48,5.64,20.32.54-9.13-.41-19.74-5.35-28.94C131.99-.49,98.37,1.82,98.37,1.82c0,0-1.02,2.69-1.83,7.12Z"/>
        <path class="cls-2" d="M112.78,57.72c13.79,11.09,32,14.33,32,14.33,0,0,2.59-7.27,3.73-17.25-3.41-.39-6.88-.58-10.4-.58-8.78,0-17.28,1.22-25.34,3.5Z"/>
        <path class="cls-5" d="M144.47,73.76c-1.32-.23-32.35-5.97-44.2-28.08-11.83-22.06-3.87-43.57-3.52-44.48.24-.63.83-1.07,1.51-1.12,1.42-.1,34.88-2.13,46.86,20.22,11.82,22.04,1.74,51.1,1.3,52.33-.25.7-.91,1.16-1.64,1.16-.1,0-.2,0-.31-.03ZM99.64,3.52c-1.39,4.52-5.93,22.57,3.69,40.52,9.64,17.98,33.99,24.56,40.26,25.98,1.84-6.08,8.1-30.07-1.55-48.07C132.92,4.94,108.86,3.5,101.01,3.5c-.53,0-.99,0-1.37.02Z"/>
        <path class="cls-5" d="M144.77,73.79c.17,0,.34-.02.51-.08.92-.28,1.44-1.26,1.15-2.17-.31-1.01-7.82-24.97-28.8-48.07-.65-.71-1.75-.76-2.46-.12-.71.65-.77,1.75-.12,2.46,20.43,22.5,27.97,46.52,28.05,46.76.23.75.92,1.23,1.66,1.23Z"/>
      </g>
      <g>
        <path class="cls-9" d="M224.89,19.87s-33.52-16.96-54.8.21c-21.28,17.17-23.32,51.78-23.32,51.78,0,0,34.65,7.9,55.93-9.28,21.28-17.17,22.2-42.71,22.2-42.71Z"/>
        <path class="cls-14" d="M149.92,54.22c3.66-8.98,9.19-18.25,17.53-24.98,19.63-15.84,49.16-4.08,56.16-.93,1.16-5.08,1.28-8.44,1.28-8.44,0,0-33.52-16.97-54.81.21-11.24,9.07-17.12,23.01-20.15,34.14Z"/>
        <path class="cls-8" d="M146.76,71.86s22.85,5.21,42.83-2.05c-11.68-7.81-25.25-13.04-39.87-14.86-2.54,9.59-2.97,16.91-2.97,16.91Z"/>
        <path class="cls-5" d="M146.37,73.55c-.83-.19-1.4-.95-1.35-1.8.09-1.44,2.34-35.58,23.97-53.03,21.91-17.68,55.27-1.12,56.68-.41.61.31.98.94.95,1.62-.04,1.08-1.19,26.53-22.85,44-11.51,9.29-26.56,11.52-38.37,11.52-10.44,0-18.36-1.75-19.04-1.9ZM171.18,21.43c-17.94,14.48-21.85,42.26-22.55,49.02,6.76,1.23,35.02,5.25,52.96-9.23,17.89-14.43,20.97-35.25,21.46-40.29-5.73-2.6-33.78-14.11-51.88.5Z"/>
        <path class="cls-5" d="M146.76,73.6c.51,0,1.02-.23,1.37-.66.18-.23,18.71-23.34,49.48-37.6.87-.4,1.25-1.44.85-2.31-.4-.87-1.44-1.25-2.31-.85-31.56,14.62-50.56,38.36-50.75,38.59-.6.75-.47,1.85.29,2.45.32.25.7.38,1.08.38Z"/>
      </g>
      <g>
        <circle class="cls-12" cx="134.73" cy="170.49" r="111.08" transform="translate(-81.09 145.21) rotate(-45)"/>
        <path class="cls-6" d="M25.43,190.84c9.56,51.63,54.81,90.74,109.22,90.74s99.67-39.11,109.23-90.75c-20.02,40.04-61.41,67.54-109.23,67.54s-89.21-27.49-109.22-67.53Z"/>
        <path class="cls-10" d="M39.76,112.68c22.96-26.66,56.95-43.53,94.88-43.53s71.9,16.86,94.86,43.51c-19.51-31.94-54.69-53.26-94.86-53.26s-75.37,21.33-94.88,53.28Z"/>
        <path class="cls-15" d="M21.83,170.49c0-62.21,50.61-112.82,112.82-112.82s112.82,50.61,112.82,112.82-50.61,112.82-112.82,112.82S21.83,232.7,21.83,170.49ZM25.31,170.49c0,60.29,49.05,109.34,109.34,109.34s109.34-49.05,109.34-109.34-49.05-109.34-109.34-109.34S25.31,110.2,25.31,170.49Z"/>
      </g>
      <g>
        <path class="cls-6" d="M222.55,196.68c-2.57,3.15-3.14,6.94-1.28,8.45,1.86,1.51,5.44.18,8.01-2.98s3.14-6.94,1.28-8.45c-1.86-1.51-5.44-.18-8.01,2.98Z"/>
        <path class="cls-6" d="M212.9,212.56c-1.55,1.47-2.11,3.41-1.24,4.32.87.91,2.83.46,4.38-1.01,1.55-1.47,2.11-3.41,1.24-4.32-.87-.91-2.83-.46-4.38,1.01Z"/>
      </g>
      <g>
        <path class="cls-3" d="M110.79,76.01c-2.65.83-4.4,2.76-3.91,4.31.49,1.56,3.02,2.15,5.67,1.32,2.65-.83,4.4-2.76,3.91-4.31-.49-1.56-3.02-2.15-5.67-1.32Z"/>
        <path class="cls-3" d="M98.26,80.77c-1.92.6-3.19,2-2.83,3.13.35,1.13,2.19,1.56,4.11.96,1.92-.6,3.19-2,2.83-3.13-.35-1.13-2.19-1.56-4.11-.96Z"/>
      </g>
      <path class="cls-15" d="M141.12,230.18c2.59,0,5.25-.19,7.93-.57,13.92-1.98,25.77-8.88,30.2-17.57.44-.86.1-1.91-.76-2.34-.86-.44-1.91-.1-2.34.76-3.93,7.71-14.76,13.88-27.59,15.7-12.84,1.83-24.96-1.07-30.89-7.38-.66-.7-1.76-.73-2.46-.08-.7.66-.73,1.76-.08,2.46,5.4,5.74,15.12,9.01,25.99,9.01Z"/>
      <g>
        <g>
          <path class="cls-13" d="M25.7,146.7c0,24.09,22.55,43.63,50.37,43.63s50.37-19.53,50.37-43.63,0-43.63-50.37-43.63-50.37,19.53-50.37,43.63Z"/>
          <path class="cls-15" d="M23.96,146.7c0-24.34,0-45.37,52.12-45.37s52.12,21.02,52.12,45.37-23.38,45.37-52.12,45.37-52.12-20.35-52.12-45.37ZM27.44,146.7c0,23.1,21.82,41.89,48.63,41.89s48.63-18.79,48.63-41.89c0-24.32,0-41.89-48.63-41.89s-48.63,17.57-48.63,41.89Z"/>
        </g>
        <g>
          <path class="cls-13" d="M142.74,145.71c0,24.09,22.55,44.62,50.37,44.62s50.37-20.52,50.37-44.62,0-43.63-50.37-43.63-50.37,19.53-50.37,43.63Z"/>
          <path class="cls-15" d="M156.34,178.35c-9.89-8.83-15.34-20.43-15.34-32.64,0-24.34,0-45.37,52.12-45.37s52.12,21.02,52.12,45.37c0,12.22-5.45,23.81-15.34,32.64-9.9,8.84-22.96,13.72-36.78,13.72s-26.88-4.87-36.78-13.72ZM144.48,145.71c0,23.24,22.27,42.88,48.63,42.88s48.63-19.64,48.63-42.88,0-41.89-48.63-41.89-48.63,17.57-48.63,41.89Z"/>
        </g>
        <path class="cls-15" d="M121.41,119.35h25.76c.96,0,1.74-.78,1.74-1.74s-.78-1.74-1.74-1.74h-25.76c-.96,0-1.74.78-1.74,1.74s.78,1.74,1.74,1.74Z"/>
        <g>
          <path class="cls-7" d="M44.04,166.55c.78.64,1.92.77,2.71.15.85-.67.85-1.79.26-3.26-5.26-13.16-5.78-26.52-1.72-40.04.46-1.55.48-2.75-.43-3.41-.86-.62-2.06-.39-2.8.36-12.32,12.55-11.35,35.16,1.99,46.2Z"/>
          <path class="cls-4" d="M106.64,130.46c0,2.7,2.19,4.88,4.88,4.88s4.88-2.19,4.88-4.88-2.19-4.88-4.88-4.88-4.88,2.19-4.88,4.88Z"/>
        </g>
        <g>
          <path class="cls-7" d="M161.08,166.55c.78.64,1.92.77,2.71.15.85-.67.85-1.79.26-3.26-5.26-13.16-5.78-26.52-1.72-40.04.46-1.55.48-2.75-.43-3.41-.86-.62-2.06-.39-2.8.36-12.32,12.55-11.35,35.16,1.99,46.2Z"/>
          <circle class="cls-4" cx="228.56" cy="130.46" r="4.88"/>
        </g>
      </g>
      <g>
        <path class="cls-3" d="M141.18,186.49c.55-.78,1.62-1.01,2.49-.62l5.11,2.28c.95.42,1.49,1.5,1.16,2.48-.38,1.12-1.63,1.64-2.68,1.17l-5.28-2.36c-1.12-.5-1.54-1.91-.8-2.96Z"/>
        <path class="cls-3" d="M130.39,188.02c.55-.78,1.62-1.01,2.49-.62l5.11,2.28c.95.42,1.49,1.5,1.16,2.48-.38,1.12-1.63,1.64-2.68,1.17l-5.28-2.36c-1.12-.5-1.54-1.91-.8-2.96Z"/>
        <path class="cls-3" d="M119.61,189.54c.55-.78,1.62-1.01,2.49-.62l5.11,2.28c.95.42,1.49,1.5,1.16,2.48-.38,1.12-1.63,1.64-2.68,1.17l-5.28-2.36c-1.12-.5-1.54-1.91-.8-2.96Z"/>
      </g>
      <g>
        <path class="cls-5" d="M205.25,245.95c.12.02.25.02.37.01,1.78-.13,43.52-3.35,47.31-22.56,2.25-11.37-9.62-22.45-10.13-22.92-.71-.65-1.81-.61-2.46.1-.65.71-.61,1.81.1,2.46.11.1,10.94,10.23,9.07,19.68-3.28,16.61-43.74,19.73-44.15,19.76-.96.07-1.68.9-1.61,1.86.06.83.7,1.49,1.49,1.6Z"/>
        <path class="cls-5" d="M189.39,246.06c-.33-2.68,5.29-3.89,6.97-4.19.1-.02.09-.15,0-.18-3.05-.75-1.76-2.55,2.42-2.69,5.03-.17,7.44.98,7.91,4.87.43,3.48-2.79,4.98-6.7,5.45-3.9.48-10.21-.12-10.6-3.26Z"/>
      </g>
      <g>
        <path class="cls-5" d="M22.12,195.57c2.33-.07,3.94-.36,4.13-.4.94-.18,1.56-1.09,1.38-2.04-.18-.94-1.09-1.56-2.04-1.38h0c-.13.02-12.57,2.27-18.45-5.24-8.51-10.88.33-39.56.42-39.85.29-.92-.22-1.89-1.14-2.18-.92-.29-1.9.22-2.18,1.14-.39,1.25-9.47,30.72.16,43.03,4.86,6.21,12.85,7.06,17.71,6.91Z"/>
        <path class="cls-5" d="M9.24,129.87c2.65.51,2.08,6.22,1.85,7.92-.01.1.12.14.17.05,1.65-2.67,2.97-.89,1.82,3.13-1.38,4.84-3.21,6.78-7.06,6.04-3.44-.66-3.88-4.18-3.14-8.04.74-3.86,3.24-9.69,6.35-9.09Z"/>
      </g>
    </g>
  </g>
</svg>