<?xml version="1.0" encoding="UTF-8"?>
<svg id="Layer_2" xmlns="http://www.w3.org/2000/svg" viewBox="0 0 280.18 359.18">
  <defs>
    <style>
      .cls-1 {
        fill: #b2e513;
      }

      .cls-2 {
        fill: #a9c11a;
      }

      .cls-3 {
        fill: #fbd205;
      }

      .cls-4 {
        fill: #382208;
      }

      .cls-5 {
        fill: #f5881f;
      }

      .cls-6 {
        fill: #74ba2a;
      }

      .cls-7 {
        fill: #7dd82e;
      }

      .cls-8 {
        fill: #fff08a;
      }

      .cls-9 {
        fill: #e3ff6c;
      }

      .cls-10 {
        fill: #faa81d;
      }

      .cls-11 {
        fill: #ec2224;
      }

      .cls-12 {
        fill: #583614;
      }

      .cls-13 {
        fill: #b0f467;
      }

      .cls-14 {
        fill: #372411;
      }

      .cls-15 {
        fill: #fff2ba;
      }
    </style>
  </defs>
  <g id="Layer_1-2" data-name="Layer_1">
    <g>
      <g>
        <path class="cls-4" d="M111.15,352.83c2.24,0,4.17.5,5.69,1.1v-79.03c0-.97.7-1.85,1.66-1.94,1.11-.11,2.04.75,2.04,1.84v81.24s0,0,0,0v1.68c0,.8-.65,1.45-1.45,1.45h-8.35c-7.53,0-5.28-6.34.41-6.34Z"/>
        <path class="cls-4" d="M169.06,352.83c-2.24,0-4.17.5-5.69,1.1v-79.03c0-.97-.7-1.85-1.66-1.94-1.11-.11-2.04.75-2.04,1.84v81.24s0,0,0,0v1.68c0,.8.65,1.45,1.45,1.45h8.35c7.53,0,5.28-6.34-.41-6.34Z"/>
      </g>
      <g>
        <path class="cls-1" d="M103.82,1.83s33.62-2.31,45.21,19.3c11.59,21.62,1.19,50.92,1.19,50.92,0,0-31.38-5.57-42.97-27.19-11.59-21.62-3.43-43.04-3.43-43.04Z"/>
        <path class="cls-9" d="M101.99,8.95c7.43-.13,35.97.69,46.74,20.8,3.44,6.43,5.08,13.48,5.64,20.32.54-9.13-.41-19.74-5.35-28.94C137.44-.49,103.82,1.82,103.82,1.82c0,0-1.02,2.69-1.83,7.12Z"/>
        <path class="cls-2" d="M118.23,57.72c13.79,11.09,32,14.33,32,14.33,0,0,2.59-7.27,3.74-17.25-3.41-.39-6.88-.58-10.4-.58-8.78,0-17.28,1.22-25.34,3.5Z"/>
        <path class="cls-4" d="M149.92,73.76c-1.32-.23-32.35-5.97-44.2-28.08-11.83-22.06-3.87-43.57-3.52-44.48.24-.63.83-1.07,1.51-1.12,1.42-.1,34.88-2.13,46.86,20.22,11.82,22.04,1.74,51.1,1.3,52.33-.25.7-.91,1.16-1.64,1.16-.1,0-.2,0-.31-.03ZM105.1,3.52c-1.39,4.52-5.93,22.57,3.69,40.52,9.64,17.98,33.99,24.56,40.26,25.98,1.84-6.08,8.1-30.07-1.55-48.07C138.38,4.94,114.32,3.5,106.46,3.5c-.53,0-.99,0-1.37.02Z"/>
        <path class="cls-4" d="M150.22,73.79c.17,0,.34-.02.51-.08.92-.28,1.44-1.26,1.15-2.17-.31-1.01-7.82-24.97-28.8-48.07-.65-.71-1.75-.76-2.46-.12-.71.65-.77,1.75-.12,2.46,20.43,22.5,27.97,46.52,28.05,46.76.23.75.92,1.23,1.66,1.23Z"/>
      </g>
      <g>
        <path class="cls-7" d="M230.34,19.87s-33.52-16.96-54.8.21c-21.28,17.17-23.32,51.78-23.32,51.78,0,0,34.65,7.9,55.93-9.28s22.2-42.71,22.2-42.71Z"/>
        <path class="cls-13" d="M155.38,54.22c3.66-8.98,9.19-18.25,17.53-24.98,19.63-15.84,49.16-4.08,56.16-.93,1.16-5.08,1.28-8.44,1.28-8.44,0,0-33.52-16.97-54.81.21-11.24,9.07-17.12,23.01-20.15,34.14Z"/>
        <path class="cls-6" d="M152.21,71.86s22.85,5.21,42.83-2.05c-11.68-7.81-25.25-13.04-39.87-14.86-2.54,9.59-2.97,16.91-2.97,16.91Z"/>
        <path class="cls-4" d="M151.83,73.55c-.83-.19-1.4-.95-1.35-1.8.09-1.44,2.34-35.58,23.97-53.03,21.91-17.68,55.27-1.12,56.68-.41.61.31.98.94.95,1.62-.04,1.07-1.19,26.53-22.84,44-11.51,9.29-26.56,11.52-38.37,11.52-10.44,0-18.36-1.75-19.04-1.9ZM176.63,21.43c-17.94,14.48-21.85,42.26-22.55,49.02,6.76,1.23,35.02,5.25,52.96-9.23,17.89-14.43,20.97-35.25,21.46-40.29-5.73-2.6-33.78-14.11-51.88.5Z"/>
        <path class="cls-4" d="M152.21,73.6c.51,0,1.02-.23,1.37-.66.18-.23,18.71-23.34,49.48-37.6.87-.4,1.25-1.44.85-2.31-.4-.87-1.44-1.25-2.31-.85-31.56,14.62-50.56,38.36-50.75,38.59-.6.75-.47,1.85.29,2.45.32.25.7.38,1.08.38Z"/>
      </g>
      <g>
        <circle class="cls-10" cx="140.19" cy="170.49" r="111.08" transform="translate(-79.49 149.06) rotate(-45)"/>
        <path class="cls-5" d="M30.89,190.84c9.56,51.63,54.81,90.74,109.22,90.74s99.67-39.11,109.23-90.75c-20.02,40.04-61.41,67.54-109.23,67.54s-89.21-27.49-109.22-67.53Z"/>
        <path class="cls-8" d="M45.22,112.68c22.96-26.66,56.95-43.53,94.88-43.53s71.9,16.86,94.86,43.51c-19.51-31.94-54.69-53.26-94.86-53.26s-75.37,21.33-94.88,53.28Z"/>
        <path class="cls-14" d="M27.28,170.49c0-62.21,50.61-112.82,112.82-112.82s112.82,50.61,112.82,112.82-50.61,112.82-112.82,112.82S27.28,232.7,27.28,170.49ZM30.76,170.49c0,60.29,49.05,109.34,109.34,109.34s109.34-49.05,109.34-109.34-49.05-109.34-109.34-109.34S30.76,110.2,30.76,170.49Z"/>
      </g>
      <g>
        <path class="cls-5" d="M228,196.68c-2.57,3.15-3.14,6.94-1.28,8.45,1.86,1.51,5.44.18,8.01-2.98,2.57-3.15,3.14-6.94,1.28-8.45-1.86-1.51-5.44-.18-8.01,2.98Z"/>
        <path class="cls-5" d="M218.35,212.56c-1.55,1.47-2.11,3.41-1.24,4.32.87.91,2.83.46,4.38-1.01,1.55-1.47,2.11-3.41,1.24-4.32-.87-.91-2.83-.46-4.38,1.01Z"/>
      </g>
      <g>
        <path class="cls-3" d="M40.39,136.19c-.78,2.67-.15,5.21,1.42,5.67s3.48-1.33,4.26-4c.78-2.67.15-5.21-1.42-5.67-1.57-.46-3.48,1.33-4.26,4Z"/>
        <path class="cls-3" d="M37.38,149.31c-.57,1.93-.11,3.77,1.03,4.11,1.14.33,2.52-.96,3.09-2.9s.11-3.77-1.03-4.11c-1.14-.33-2.52.96-3.09,2.9Z"/>
      </g>
      <g>
        <path class="cls-3" d="M144.51,178.05c.36-.51,1.06-.66,1.64-.4l3.36,1.5c.62.28.98.98.76,1.63-.25.73-1.07,1.08-1.76.77l-3.47-1.55c-.73-.33-1.01-1.25-.53-1.95Z"/>
        <path class="cls-3" d="M137.43,179.05c.36-.51,1.06-.66,1.64-.4l3.36,1.5c.62.28.98.98.76,1.63-.25.73-1.07,1.08-1.76.77l-3.47-1.55c-.73-.33-1.01-1.25-.53-1.95Z"/>
        <path class="cls-3" d="M130.35,180.05c.36-.51,1.06-.66,1.64-.4l3.36,1.5c.62.28.98.98.76,1.63-.25.73-1.07,1.08-1.76.77l-3.47-1.55c-.73-.33-1.01-1.25-.53-1.95Z"/>
      </g>
      <g>
        <g>
          <g>
            <circle class="cls-15" cx="95.37" cy="149.92" r="36.48"/>
            <path class="cls-14" d="M57.15,149.92c0-21.07,17.14-38.22,38.22-38.22s38.22,17.14,38.22,38.22-17.14,38.22-38.22,38.22-38.22-17.15-38.22-38.22ZM60.63,149.92c0,19.15,15.58,34.74,34.74,34.74s34.74-15.58,34.74-34.74-15.58-34.74-34.74-34.74-34.74,15.58-34.74,34.74Z"/>
          </g>
          <circle class="cls-14" cx="99.61" cy="156.18" r="17.99" transform="translate(-70.51 229.49) rotate(-80.78)"/>
        </g>
        <g>
          <g>
            <circle class="cls-15" cx="185.07" cy="149.92" r="36.48"/>
            <path class="cls-14" d="M146.85,149.92c0-21.07,17.14-38.22,38.22-38.22s38.22,17.14,38.22,38.22-17.14,38.22-38.22,38.22-38.22-17.15-38.22-38.22ZM150.33,149.92c0,19.15,15.58,34.74,34.74,34.74s34.74-15.58,34.74-34.74-15.58-34.74-34.74-34.74-34.74,15.58-34.74,34.74Z"/>
          </g>
          <circle class="cls-14" cx="180.82" cy="156.18" r="17.99" transform="translate(-22.57 30.8) rotate(-9.17)"/>
        </g>
        <path class="cls-14" d="M59.84,117.83c.64,0,1.26-.35,1.56-.97,3.16-6.34,8.16-11.44,14.47-14.74,6.31-3.31,13.35-4.52,20.35-3.52.95.14,1.83-.52,1.97-1.48.14-.95-.52-1.83-1.48-1.97-7.74-1.11-15.51.23-22.47,3.88-6.96,3.65-12.48,9.28-15.97,16.27-.43.86-.08,1.91.78,2.34.25.12.51.18.77.18Z"/>
        <path class="cls-14" d="M220.6,117.83c.26,0,.53-.06.77-.18.86-.43,1.21-1.47.78-2.34-3.49-7-9.01-12.62-15.97-16.27-6.96-3.65-14.73-4.99-22.47-3.88-.95.14-1.61,1.02-1.48,1.97.14.95,1.02,1.61,1.97,1.48,7.01-1,14.05.21,20.35,3.52,6.31,3.31,11.31,8.41,14.47,14.74.3.61.92.97,1.56.97Z"/>
        <g>
          <g>
            <path class="cls-12" d="M140.22,302.01h0c14.34,0,25.96-11.62,25.96-25.96l1-58.42c0-14.34-12.62-25.96-26.96-25.96h0c-14.34,0-26.96,11.62-26.96,25.96l1,58.42c0,14.34,11.62,25.96,25.96,25.96Z"/>
            <path class="cls-14" d="M112.52,276.05l-1-58.42c0-15.27,13.43-27.7,28.7-27.7s28.7,12.43,28.7,27.7l-1,58.42c0,15.27-12.43,27.7-27.7,27.7s-27.7-12.43-27.7-27.7ZM115,217.63l1,58.42c0,13.35,10.86,24.22,24.22,24.22s24.22-10.86,24.22-24.22l1-58.42c0-13.35-11.86-24.22-25.22-24.22s-25.22,10.86-25.22,24.22Z"/>
          </g>
          <g>
            <path class="cls-11" d="M115.48,278.54c-.56,1.76-.56,3.66,0,5.42,3.35,10.47,13.16,18.05,24.73,18.05s21.39-7.58,24.73-18.05c.56-1.77.56-3.67,0-5.44-3.35-10.47-13.16-18.05-24.73-18.05-7.17,0-13.66,2.91-18.36,7.6-2.89,2.89-5.11,6.47-6.38,10.47Z"/>
            <path class="cls-14" d="M113.82,284.49c-.68-2.12-.68-4.36,0-6.48,1.33-4.19,3.69-8.05,6.81-11.17,5.23-5.23,12.19-8.11,19.59-8.11,12.11,0,22.71,7.74,26.39,19.26.68,2.13.68,4.37,0,6.5-3.68,11.52-14.29,19.26-26.39,19.26s-22.71-7.74-26.39-19.26ZM123.09,269.31c-2.73,2.73-4.79,6.1-5.95,9.76h0c-.45,1.42-.45,2.93,0,4.36,3.22,10.07,12.49,16.84,23.07,16.84s19.86-6.77,23.07-16.84c.46-1.43.46-2.95,0-4.38-3.22-10.07-12.49-16.84-23.08-16.84-6.47,0-12.55,2.52-17.13,7.09Z"/>
          </g>
        </g>
      </g>
      <g>
        <path class="cls-4" d="M25.69,193.08c2.31-.34,3.87-.82,4.06-.87.92-.29,1.43-1.27,1.14-2.18-.29-.92-1.26-1.43-2.18-1.14h0c-.12.04-12.22,3.71-18.93-3.08-9.71-9.82-4.23-39.33-4.17-39.63.18-.94-.44-1.86-1.38-2.04-.95-.18-1.86.44-2.04,1.38-.24,1.29-5.87,31.61,5.12,42.73,5.54,5.61,13.58,5.53,18.39,4.83Z"/>
        <path class="cls-4" d="M5.32,129.3c2.69.2,2.78,5.94,2.75,7.65,0,.1.13.12.17.03,1.33-2.84,2.85-1.23,2.17,2.9-.81,4.97-2.41,7.1-6.31,6.81-3.5-.26-4.34-3.71-4.05-7.63.29-3.92,2.1-10,5.26-9.76Z"/>
      </g>
      <g>
        <path class="cls-4" d="M254.5,193.08c-2.31-.34-3.87-.82-4.06-.87-.92-.29-1.43-1.27-1.14-2.18.29-.92,1.26-1.43,2.18-1.14h0c.12.04,12.22,3.71,18.93-3.08,9.71-9.82,4.23-39.33,4.17-39.63-.18-.94.44-1.86,1.38-2.04.95-.18,1.86.44,2.04,1.38.24,1.29,5.87,31.61-5.12,42.73-5.54,5.61-13.58,5.53-18.39,4.83Z"/>
        <path class="cls-4" d="M274.87,129.3c-2.69.2-2.78,5.94-2.75,7.65,0,.1-.13.12-.17.03-1.33-2.84-2.85-1.23-2.17,2.9.81,4.97,2.41,7.1,6.31,6.81,3.5-.26,4.34-3.71,4.05-7.63-.29-3.92-2.1-10-5.26-9.76Z"/>
      </g>
    </g>
  </g>
</svg>