<?xml version="1.0" encoding="UTF-8"?>
<svg id="Layer_2" xmlns="http://www.w3.org/2000/svg" viewBox="0 0 225.65 357.89">
  <defs>
    <style>
      .cls-1 {
        fill: #b2e513;
      }

      .cls-2 {
        fill: #a9c11a;
      }

      .cls-3 {
        fill: #fbd205;
      }

      .cls-4 {
        fill: #382208;
      }

      .cls-5 {
        fill: #f5881f;
      }

      .cls-6 {
        fill: #74ba2a;
      }

      .cls-7 {
        fill: #7dd82e;
      }

      .cls-8 {
        fill: #fff08a;
      }

      .cls-9 {
        fill: #e3ff6c;
      }

      .cls-10 {
        fill: #faa81d;
      }

      .cls-11 {
        fill: #b0f467;
      }

      .cls-12 {
        fill: #372411;
      }

      .cls-13 {
        fill: #fff2ba;
      }
    </style>
  </defs>
  <g id="Layer_1-2" data-name="Layer_1">
    <g>
      <g>
        <path class="cls-4" d="M87.78,351.23c2.18-.31,4.17-.07,5.8.34l-7.99-35.69c-.06-.25-.06-.51,0-.76l9.03-45.71c.2-1,1.18-1.65,2.17-1.45,1,.2,1.65,1.17,1.45,2.17l-8.96,45.32,8.56,38.23.36,1.6c.14.61-.27,1.21-.89,1.3-1.81.26-5.42.78-8.35,1.2-7.31,1.05-6.72-5.75-1.19-6.55Z"/>
        <path class="cls-4" d="M139.24,351.23c-2.18-.31-4.17-.07-5.8.34l7.99-35.69c.06-.25.06-.51,0-.76l-7.04-45.71c-.2-1-1.18-1.65-2.17-1.45-1,.2-1.65,1.17-1.45,2.17l6.97,45.32-8.56,38.23-.36,1.6c-.14.61.27,1.21.89,1.3,1.81.26,5.42.78,8.35,1.2,7.31,1.05,6.72-5.75,1.19-6.55Z"/>
      </g>
      <g>
        <path class="cls-1" d="M76.54,1.83S110.16-.49,121.75,21.13c11.59,21.62,1.19,50.92,1.19,50.92,0,0-31.38-5.57-42.97-27.19-11.59-21.62-3.43-43.04-3.43-43.04Z"/>
        <path class="cls-9" d="M74.71,8.95c7.43-.13,35.97.69,46.74,20.8,3.44,6.43,5.08,13.48,5.64,20.32.54-9.13-.41-19.74-5.35-28.94C110.16-.49,76.54,1.82,76.54,1.82c0,0-1.02,2.69-1.83,7.12Z"/>
        <path class="cls-2" d="M90.95,57.72c13.79,11.09,32,14.33,32,14.33,0,0,2.59-7.27,3.74-17.25-3.41-.39-6.88-.58-10.4-.58-8.78,0-17.28,1.22-25.34,3.5Z"/>
        <path class="cls-4" d="M122.64,73.76c-1.32-.23-32.35-5.97-44.2-28.08-11.83-22.06-3.87-43.57-3.52-44.48.24-.63.83-1.07,1.51-1.12,1.42-.1,34.88-2.13,46.86,20.22,11.82,22.04,1.74,51.1,1.3,52.33-.25.7-.91,1.16-1.64,1.16-.1,0-.2,0-.31-.03ZM77.81,3.52c-1.39,4.52-5.93,22.57,3.69,40.52,9.64,17.98,33.99,24.56,40.26,25.98,1.84-6.08,8.1-30.07-1.55-48.07C111.09,4.94,87.04,3.5,79.18,3.5c-.53,0-.99,0-1.37.02Z"/>
        <path class="cls-4" d="M122.94,73.79c.17,0,.34-.02.51-.08.92-.28,1.44-1.26,1.15-2.17-.31-1.01-7.82-24.97-28.8-48.07-.65-.71-1.75-.76-2.46-.12-.71.65-.77,1.75-.12,2.46,20.43,22.5,27.97,46.52,28.05,46.76.23.75.92,1.23,1.66,1.23Z"/>
      </g>
      <g>
        <path class="cls-7" d="M203.06,19.87s-33.52-16.96-54.8.21c-21.28,17.17-23.32,51.78-23.32,51.78,0,0,34.65,7.9,55.93-9.28,21.28-17.17,22.2-42.71,22.2-42.71Z"/>
        <path class="cls-11" d="M128.1,54.22c3.66-8.98,9.19-18.25,17.53-24.98,19.63-15.84,49.16-4.08,56.16-.93,1.16-5.08,1.28-8.44,1.28-8.44,0,0-33.52-16.97-54.81.21-11.24,9.07-17.12,23.01-20.15,34.14Z"/>
        <path class="cls-6" d="M124.93,71.86s22.85,5.21,42.83-2.05c-11.68-7.81-25.25-13.04-39.87-14.86-2.54,9.59-2.97,16.91-2.97,16.91Z"/>
        <path class="cls-4" d="M124.54,73.55c-.83-.19-1.4-.95-1.35-1.8.09-1.44,2.34-35.58,23.97-53.03,21.91-17.68,55.27-1.12,56.68-.41.61.31.98.94.95,1.62-.04,1.08-1.19,26.53-22.84,44-11.51,9.29-26.56,11.52-38.37,11.52-10.44,0-18.36-1.75-19.04-1.9ZM149.35,21.43c-17.94,14.48-21.85,42.26-22.55,49.02,6.76,1.23,35.02,5.25,52.96-9.23,17.89-14.43,20.97-35.25,21.46-40.29-5.73-2.6-33.78-14.11-51.88.5Z"/>
        <path class="cls-4" d="M124.93,73.6c.51,0,1.02-.23,1.37-.66.18-.23,18.71-23.34,49.48-37.6.87-.4,1.25-1.44.85-2.31-.4-.87-1.44-1.25-2.31-.85-31.56,14.62-50.56,38.36-50.75,38.59-.6.75-.47,1.85.29,2.45.32.25.7.38,1.08.38Z"/>
      </g>
      <g>
        <circle class="cls-10" cx="112.91" cy="170.49" r="111.08" transform="translate(-87.48 129.77) rotate(-45)"/>
        <path class="cls-5" d="M3.61,190.84c9.56,51.63,54.81,90.74,109.22,90.74s99.67-39.11,109.23-90.75c-20.02,40.04-61.41,67.54-109.23,67.54S23.61,230.88,3.61,190.84Z"/>
        <path class="cls-8" d="M17.94,112.68c22.96-26.66,56.95-43.53,94.88-43.53s71.9,16.86,94.86,43.51c-19.51-31.94-54.69-53.26-94.86-53.26s-75.37,21.33-94.88,53.28Z"/>
        <path class="cls-12" d="M0,170.49C0,108.28,50.61,57.66,112.82,57.66s112.82,50.61,112.82,112.82-50.61,112.82-112.82,112.82S0,232.7,0,170.49ZM3.48,170.49c0,60.29,49.05,109.34,109.34,109.34s109.34-49.05,109.34-109.34-49.05-109.34-109.34-109.34S3.48,110.2,3.48,170.49Z"/>
      </g>
      <g>
        <path class="cls-5" d="M193.95,210.53c-3.2,2.51-4.59,6.08-3.11,7.96s5.27,1.37,8.47-1.15c3.2-2.51,4.59-6.08,3.11-7.96-1.48-1.88-5.27-1.37-8.47,1.15Z"/>
        <path class="cls-5" d="M181.05,223.9c-1.84,1.1-2.81,2.86-2.16,3.95.65,1.08,2.66,1.07,4.5-.02,1.84-1.1,2.81-2.86,2.16-3.95-.65-1.08-2.66-1.07-4.5.02Z"/>
      </g>
      <g>
        <path class="cls-3" d="M22.18,123.34c-1.49,2.89-1.33,5.94.37,6.82,1.7.88,4.29-.75,5.78-3.64,1.49-2.89,1.33-5.94-.37-6.82-1.7-.88-4.29.75-5.78,3.64Z"/>
        <path class="cls-3" d="M15.82,137.73c-1.08,2.09-.96,4.31.27,4.95,1.23.64,3.11-.54,4.19-2.64,1.08-2.09.96-4.31-.27-4.95-1.23-.64-3.11.54-4.19,2.64Z"/>
      </g>
      <g>
        <path class="cls-3" d="M118.13,167.94c.45-.64,1.32-.82,2.03-.5l4.16,1.86c.77.35,1.22,1.22.94,2.02-.31.91-1.32,1.34-2.18.95l-4.3-1.92c-.91-.41-1.26-1.55-.65-2.41Z"/>
        <path class="cls-3" d="M109.35,169.18c.45-.64,1.32-.82,2.03-.5l4.16,1.86c.77.35,1.22,1.22.94,2.02-.31.91-1.32,1.34-2.18.95l-4.3-1.92c-.91-.41-1.26-1.55-.65-2.41Z"/>
        <path class="cls-3" d="M100.57,170.42c.45-.64,1.32-.82,2.03-.5l4.16,1.86c.77.35,1.22,1.22.94,2.02-.31.91-1.33,1.34-2.18.95l-4.3-1.92c-.91-.41-1.26-1.55-.65-2.41Z"/>
      </g>
      <g>
        <path class="cls-12" d="M112.71,215.87c25.24,0,48.01-9.28,58.01-23.65.55-.79.36-1.87-.42-2.43-.78-.55-1.85-.36-2.4.42-9.37,13.47-31.03,22.17-55.19,22.17s-45.81-8.7-55.18-22.17c-.55-.79-1.62-.98-2.4-.42-.78.55-.96,1.64-.42,2.43,10,14.37,32.76,23.65,57.99,23.65Z"/>
        <path class="cls-12" d="M174.33,102.33c.53,0,1.06-.25,1.4-.72.56-.78.38-1.87-.39-2.43-6.27-4.58-13.69-7-21.46-7s-15.2,2.42-21.46,7c-.77.56-.94,1.65-.39,2.43.56.78,1.63.95,2.4.39,5.68-4.15,12.4-6.34,19.45-6.34s13.77,2.19,19.45,6.34c.3.22.66.33,1.01.33Z"/>
        <path class="cls-12" d="M50.4,102.33c.35,0,.7-.11,1.01-.33,5.68-4.15,12.4-6.34,19.45-6.34s13.77,2.19,19.45,6.34c.77.56,1.85.39,2.4-.39.56-.78.38-1.87-.39-2.43-6.27-4.58-13.69-7-21.46-7s-15.19,2.42-21.46,7c-.77.56-.94,1.65-.39,2.43.34.47.86.72,1.4.72Z"/>
        <g>
          <g>
            <path class="cls-13" d="M40.65,142.94c0,5.82,1.59,11.24,4.36,15.88,4.92-2.77,10.81-4.76,17.27-5.72,2.82-.43,5.77-.64,8.78-.64s5.96.22,8.78.64c6.47.96,12.36,2.95,17.27,5.72,2.76-4.64,4.36-10.06,4.36-15.88,0-16.98-13.61-30.74-30.41-30.74s-30.41,13.76-30.41,30.74Z"/>
            <path class="cls-12" d="M43.53,159.72c-3.01-5.06-4.6-10.86-4.6-16.78,0-17.91,14.42-32.48,32.14-32.48s32.14,14.57,32.14,32.48c0,5.92-1.59,11.72-4.6,16.78-.48.8-1.5,1.08-2.31.62-4.8-2.7-10.57-4.61-16.69-5.52-5.49-.83-11.56-.83-17.06,0-6.11.9-11.88,2.81-16.69,5.52-.26.15-.55.22-.84.22-.58,0-1.15-.3-1.48-.84ZM42.37,142.94c0,4.73,1.14,9.38,3.31,13.55,4.84-2.48,10.45-4.24,16.35-5.11,5.83-.88,12.25-.88,18.07,0,5.9.87,11.51,2.63,16.35,5.11,2.17-4.16,3.31-8.81,3.31-13.55,0-15.99-12.87-29-28.69-29s-28.69,13.01-28.69,29Z"/>
          </g>
          <path class="cls-12" d="M57.25,142.34c0,4.34,1.95,8.21,5.03,10.76,2.82-.43,5.77-.64,8.78-.64s5.96.22,8.78.64c3.07-2.55,5.03-6.43,5.03-10.76,0-7.71-6.18-13.96-13.81-13.96s-13.81,6.25-13.81,13.96Z"/>
        </g>
        <g>
          <g>
            <path class="cls-13" d="M124.75,142.94c0,5.82,1.59,11.24,4.36,15.88,4.92-2.77,10.81-4.76,17.27-5.72,2.82-.43,5.77-.64,8.78-.64s5.96.22,8.78.64c6.47.96,12.36,2.95,17.27,5.72,2.76-4.64,4.36-10.06,4.36-15.88,0-16.98-13.61-30.74-30.41-30.74s-30.41,13.76-30.41,30.74Z"/>
            <path class="cls-12" d="M127.63,159.72c-3.01-5.06-4.6-10.86-4.6-16.78,0-17.91,14.42-32.48,32.14-32.48s32.14,14.57,32.14,32.48c0,5.92-1.59,11.72-4.6,16.78-.48.8-1.5,1.08-2.31.62-4.8-2.7-10.57-4.61-16.69-5.52-5.49-.83-11.56-.83-17.06,0-6.11.9-11.88,2.81-16.69,5.52-.26.15-.55.22-.84.22-.58,0-1.15-.3-1.48-.84ZM126.48,142.94c0,4.73,1.14,9.38,3.31,13.55,4.84-2.48,10.45-4.24,16.35-5.11,5.83-.88,12.25-.88,18.07,0,5.9.87,11.51,2.63,16.35,5.11,2.17-4.16,3.31-8.81,3.31-13.55,0-15.99-12.87-29-28.69-29s-28.69,13.01-28.69,29Z"/>
          </g>
          <path class="cls-12" d="M141.36,142.34c0,4.34,1.95,8.21,5.03,10.76,2.82-.43,5.77-.64,8.78-.64s5.96.22,8.78.64c3.07-2.55,5.03-6.43,5.03-10.76,0-7.71-6.18-13.96-13.81-13.96s-13.81,6.25-13.81,13.96Z"/>
        </g>
      </g>
      <g>
        <path class="cls-10" d="M52.74,257.47s-1.39-15.84-5.3-24.5c-3.9-8.67-9.75-18.58.07-21.32,9.82-2.75,17.27,17.37,17.27,17.37l23.7-39.52c2.28-3.8,7.2-5.03,10.99-2.75h0c3.8,2.28,5.03,7.2,2.75,10.99l5.43-9.05c2.28-3.8,7.2-5.03,10.99-2.75h0c3.8,2.28,5.03,7.2,2.75,10.99l-2.75,4.59c2.28-3.8,7.2-5.03,10.99-2.75h0c3.8,2.28,5.03,7.2,2.75,10.99l-4.89,8.15c2.28-3.8,7.2-5.03,10.99-2.75h0c3.8,2.28,5.03,7.2,2.75,10.99l-28.97,48.31c-9.1,15.18-28.79,20.11-43.97,11h0c-10.17-6.1-15.73-16.94-15.57-28"/>
        <path class="cls-5" d="M127.84,197.74c2.51,2.57,3.02,6.63,1.02,9.8l-18.37,30.62c-1.22,2.04-.6,4.68,1.4,5.95h0l20.19-34.55c2.35-3.73,1.22-8.66-2.51-11.01-.55-.35-1.14-.62-1.73-.82Z"/>
        <path class="cls-5" d="M116.85,185.38c2.52,2.48,3.11,6.46,1.2,9.63l-21.35,35.51c-1.11,1.84-.49,4.23,1.37,5.31h0l23.18-38.9c2.23-3.72,1.03-8.54-2.68-10.78-.55-.33-1.13-.58-1.72-.77Z"/>
        <path class="cls-5" d="M97.62,186.07c2.53,2.47,3.14,6.43,1.25,9.61l-15.87,26.47c-1.12,1.87-.53,4.28,1.32,5.43h0l17.76-29.99c2.21-3.73.98-8.54-2.75-10.76-.55-.33-1.13-.58-1.72-.76Z"/>
        <path class="cls-5" d="M55.88,271.77c.91,1.93,2.02,3.77,3.32,5.5,2.41,3.2,5.46,6,9.11,8.19,15.18,9.11,34.86,4.18,43.97-11l28.97-48.31c.77-1.29,1.15-2.71,1.15-4.12,0-1.87-.65-3.71-1.89-5.17-.19.78-.5,1.54-.93,2.27l-29.65,49.43c-9.32,15.53-29.46,20.57-44.99,11.25-3.61-2.16-6.64-4.91-9.06-8.04Z"/>
        <path class="cls-12" d="M67.58,286.67c-10.2-6.12-16.42-17.3-16.25-29.2-.14-1.49-1.59-15.97-5.17-23.93-.39-.86-.79-1.73-1.2-2.6-2.74-5.88-5.58-11.97-3.57-16.34.95-2.06,2.88-3.52,5.74-4.32,8.7-2.43,15.35,9.98,17.87,15.61l22.27-37.13c2.67-4.45,8.47-5.91,12.93-3.23,2.13,1.28,3.65,3.31,4.27,5.72l1.97-3.29c2.67-4.46,8.47-5.91,12.93-3.23,4.08,2.45,5.64,7.53,3.82,11.79.01,0,.03,0,.04-.01,2.44-.61,4.97-.23,7.13,1.06,4.46,2.67,5.91,8.47,3.23,12.93l-1.44,2.39c2.32-.56,4.85-.25,7.06,1.07,2.16,1.29,3.68,3.35,4.29,5.79.61,2.44.23,4.97-1.06,7.13l-28.97,48.31c-6.27,10.45-17.37,16.24-28.75,16.24-5.85,0-11.78-1.53-17.15-4.76ZM128.71,218.64l-14.96,24.94c-.4.67-1.26.88-1.93.48-.67-.4-.88-1.27-.48-1.93l19.85-33.09c1.87-3.12.86-7.19-2.27-9.06-1.51-.91-3.29-1.17-5-.74-1.71.43-3.15,1.5-4.06,3.01l-19.85,33.09c-.4.67-1.26.88-1.93.48-.67-.4-.88-1.27-.48-1.93l22.6-37.68c1.87-3.12.86-7.19-2.27-9.06-3.12-1.87-7.19-.86-9.06,2.27l-5.4,9.01s-.02.03-.02.04l-17.17,28.64c-.4.67-1.26.88-1.93.48-.67-.4-.88-1.27-.48-1.93l17.19-28.67c1.85-3.12.82-7.16-2.29-9.03-3.12-1.87-7.19-.86-9.06,2.27l-23.7,39.52c-.28.46-.8.73-1.34.68-.54-.05-1-.41-1.19-.91-1.95-5.26-8.55-18.47-15.57-16.51-2.06.58-3.35,1.48-3.94,2.78-1.47,3.19,1.09,8.67,3.56,13.97.41.88.82,1.76,1.21,2.63,3.96,8.78,5.36,24.3,5.42,24.96,0,.09,0,.18,0,.27-.12,10.86,5.58,21.06,14.89,26.64,14.49,8.69,33.35,3.97,42.04-10.52l28.97-48.31c.91-1.51,1.17-3.29.74-5-.43-1.71-1.5-3.15-3.01-4.06-1.06-.64-2.23-.94-3.39-.94-2.25,0-4.44,1.14-5.68,3.21Z"/>
      </g>
    </g>
  </g>
</svg>