<?xml version="1.0" encoding="UTF-8"?>
<svg id="Layer_2" xmlns="http://www.w3.org/2000/svg" viewBox="0 0 258.4 355.9">
  <defs>
    <style>
      .cls-1 {
        fill: #b2e513;
      }

      .cls-2 {
        fill: #a9c11a;
      }

      .cls-3 {
        fill: #382208;
      }

      .cls-4 {
        fill: #74ba2a;
      }

      .cls-5 {
        fill: #7dd82e;
      }

      .cls-6 {
        fill: #fb9905;
      }

      .cls-7 {
        fill: #f5431f;
      }

      .cls-8 {
        fill: #e3ff6c;
      }

      .cls-9 {
        fill: #581f14;
      }

      .cls-10 {
        fill: #371811;
      }

      .cls-11 {
        fill: #fa651d;
      }

      .cls-12 {
        fill: #ffe2ba;
      }

      .cls-13 {
        fill: #b0f467;
      }

      .cls-14 {
        fill: #372411;
      }

      .cls-15 {
        fill: #ffd58a;
      }
    </style>
  </defs>
  <g id="Layer_1-2" data-name="Layer_1">
    <g>
      <g>
        <path class="cls-3" d="M123.47,349.56c-2.24,0-4.17.5-5.69,1.1v-79.03c0-.97-.7-1.85-1.66-1.94-1.11-.11-2.04.75-2.04,1.84v81.24s0,0,0,0v1.68c0,.8.65,1.45,1.45,1.45h8.35c7.53,0,5.28-6.34-.41-6.34Z"/>
        <path class="cls-3" d="M164.28,349.25c-2.18-.31-4.17-.07-5.8.34l7.99-35.69c.06-.25.06-.51,0-.76l-8.04-40.6c-.2-1-1.18-1.65-2.17-1.45-1,.2-1.65,1.17-1.45,2.17l7.96,40.22-8.56,38.23-.36,1.6c-.14.61.27,1.21.89,1.3,1.81.26,5.42.78,8.35,1.2,7.31,1.05,6.72-5.75,1.19-6.55Z"/>
      </g>
      <g>
        <path class="cls-1" d="M176.33,1.82s-33.62-2.31-45.21,19.3-1.19,50.92-1.19,50.92c0,0,31.38-5.57,42.97-27.19s3.43-43.04,3.43-43.04Z"/>
        <path class="cls-8" d="M178.16,8.95c-7.43-.13-35.97.69-46.74,20.8-3.44,6.43-5.08,13.48-5.64,20.32-.54-9.13.41-19.74,5.35-28.94C142.71-.49,176.33,1.82,176.33,1.82c0,0,1.02,2.69,1.83,7.12Z"/>
        <path class="cls-2" d="M161.92,57.72c-13.79,11.09-32,14.33-32,14.33,0,0-2.59-7.27-3.74-17.25,3.41-.39,6.88-.58,10.4-.58,8.78,0,17.28,1.22,25.34,3.5Z"/>
        <path class="cls-3" d="M129.93,73.79c-.73,0-1.39-.45-1.64-1.16-.43-1.23-10.52-30.28,1.3-52.33C141.57-2.04,175.03,0,176.45.09c.68.05,1.27.48,1.51,1.12.34.9,8.31,22.42-3.52,44.48-11.85,22.11-42.89,27.85-44.2,28.08-.1.02-.2.03-.31.03ZM173.69,3.5c-7.86,0-31.91,1.44-41.03,18.45-9.65,18-3.39,41.99-1.55,48.07,6.26-1.42,30.62-8.01,40.26-25.98,9.62-17.95,5.08-36,3.69-40.52-.37,0-.83-.02-1.37-.02Z"/>
        <path class="cls-3" d="M129.93,73.79c-.17,0-.34-.02-.51-.08-.92-.28-1.44-1.26-1.15-2.17.31-1.01,7.82-24.97,28.8-48.07.65-.71,1.75-.76,2.46-.12.71.65.77,1.75.12,2.46-20.43,22.5-27.97,46.52-28.05,46.76-.23.75-.92,1.23-1.66,1.23Z"/>
      </g>
      <g>
        <path class="cls-5" d="M49.81,19.87s33.52-16.96,54.8.21c21.28,17.17,23.32,51.78,23.32,51.78,0,0-34.65,7.9-55.93-9.28-21.28-17.17-22.2-42.71-22.2-42.71Z"/>
        <path class="cls-13" d="M124.78,54.22c-3.66-8.98-9.19-18.25-17.53-24.98-19.63-15.84-49.16-4.08-56.16-.93-1.16-5.08-1.28-8.44-1.28-8.44,0,0,33.52-16.97,54.81.21,11.24,9.07,17.12,23.01,20.15,34.14Z"/>
        <path class="cls-4" d="M127.94,71.86s-22.85,5.21-42.83-2.05c11.68-7.81,25.25-13.04,39.87-14.86,2.54,9.59,2.97,16.91,2.97,16.91Z"/>
        <path class="cls-3" d="M109.29,75.46c-11.81,0-26.86-2.23-38.37-11.52-21.65-17.47-22.81-42.93-22.84-44-.02-.68.35-1.31.95-1.62,1.41-.71,34.78-17.27,56.68.41,21.63,17.45,23.88,51.59,23.97,53.03.05.85-.52,1.61-1.35,1.8-.68.15-8.59,1.9-19.04,1.9ZM51.64,20.93c.49,5.04,3.57,25.86,21.46,40.29,17.94,14.48,46.2,10.45,52.96,9.23-.7-6.76-4.6-34.54-22.55-49.02-18.11-14.61-46.15-3.1-51.88-.5Z"/>
        <path class="cls-3" d="M127.94,73.6c-.51,0-1.02-.23-1.37-.66-.18-.23-18.71-23.34-49.48-37.6-.87-.4-1.25-1.44-.85-2.31.4-.87,1.44-1.25,2.31-.85,31.56,14.62,50.56,38.36,50.75,38.59.6.75.47,1.85-.29,2.45-.32.25-.7.38-1.08.38Z"/>
      </g>
      <g>
        <circle class="cls-11" cx="139.96" cy="170.49" r="111.08" transform="translate(-79.56 148.9) rotate(-45)"/>
        <path class="cls-7" d="M249.26,190.84c-9.56,51.63-54.81,90.74-109.22,90.74s-99.67-39.11-109.23-90.75c20.02,40.04,61.41,67.54,109.23,67.54s89.21-27.49,109.22-67.53Z"/>
        <path class="cls-15" d="M234.93,112.68c-22.96-26.66-56.95-43.53-94.88-43.53s-71.9,16.86-94.86,43.51c19.51-31.94,54.69-53.26,94.86-53.26s75.37,21.33,94.88,53.28Z"/>
        <path class="cls-14" d="M140.05,283.31c-62.21,0-112.82-50.61-112.82-112.82s50.61-112.82,112.82-112.82,112.82,50.61,112.82,112.82-50.61,112.82-112.82,112.82ZM140.05,61.14c-60.29,0-109.34,49.05-109.34,109.34s49.05,109.34,109.34,109.34,109.34-49.05,109.34-109.34-49.05-109.34-109.34-109.34Z"/>
      </g>
      <g>
        <path class="cls-7" d="M52.15,196.68c2.57,3.15,3.14,6.94,1.28,8.45-1.86,1.51-5.44.18-8.01-2.98-2.57-3.15-3.14-6.94-1.28-8.45,1.86-1.51,5.44-.18,8.01,2.98Z"/>
        <path class="cls-7" d="M61.8,212.56c1.55,1.47,2.11,3.41,1.24,4.32-.87.91-2.83.46-4.38-1.01-1.55-1.47-2.11-3.41-1.24-4.32.87-.91,2.83-.46,4.38,1.01Z"/>
      </g>
      <g>
        <path class="cls-6" d="M236.45,134.84c.73,2.58.05,5.03-1.52,5.48-1.57.44-3.43-1.29-4.16-3.87-.73-2.58-.05-5.03,1.52-5.48,1.57-.44,3.43,1.29,4.16,3.87Z"/>
        <path class="cls-6" d="M239.18,147.53c.53,1.87.03,3.65-1.1,3.97s-2.49-.94-3.02-2.81c-.53-1.87-.03-3.65,1.1-3.97,1.14-.32,2.49.94,3.02,2.81Z"/>
      </g>
      <g>
        <path class="cls-6" d="M133.52,173.32c-.55-.78-1.62-1.01-2.49-.62l-5.11,2.28c-.95.42-1.49,1.5-1.16,2.48.38,1.12,1.63,1.64,2.68,1.17l5.28-2.36c1.12-.5,1.54-1.91.8-2.96Z"/>
        <path class="cls-6" d="M144.31,174.85c-.55-.78-1.62-1.01-2.49-.62l-5.11,2.28c-.95.42-1.49,1.5-1.16,2.48.38,1.12,1.63,1.64,2.68,1.17l5.28-2.36c1.12-.5,1.54-1.91.8-2.96Z"/>
        <path class="cls-6" d="M155.09,176.37c-.55-.78-1.62-1.01-2.49-.62l-5.11,2.28c-.95.42-1.49,1.5-1.16,2.48.38,1.12,1.63,1.64,2.68,1.17l5.28-2.36c1.12-.5,1.54-1.91.8-2.96Z"/>
      </g>
      <g>
        <path class="cls-3" d="M210.43,245.95c.12.02.25.02.37.01,1.78-.13,43.52-3.35,47.31-22.56,2.25-11.37-9.62-22.45-10.12-22.92-.71-.65-1.81-.61-2.46.1-.65.71-.61,1.81.1,2.46.11.1,10.94,10.23,9.07,19.68-3.28,16.61-43.74,19.73-44.15,19.76-.96.07-1.68.9-1.61,1.86.06.83.7,1.49,1.49,1.6Z"/>
        <path class="cls-3" d="M216.15,240.93c.05,2.73-2.39,4.98-5.44,5.04-3.06.06-5.58-2.1-5.63-4.83s2.39-4.98,5.44-5.04c3.06-.06,5.58,2.1,5.63,4.83Z"/>
      </g>
      <g>
        <g>
          <path class="cls-9" d="M216.51,140.29c-1.52,17.6-17.03,30.63-34.62,29.11-16.61-1.44-29.16-15.34-29.22-31.72l15.13-3.41,30.66-6.92,15.13-3.41c2.33,4.93,3.42,10.52,2.91,16.34Z"/>
          <path class="cls-12" d="M201.74,139.01c-.82,9.43-9.15,16.44-18.58,15.63-9.43-.82-16.43-9.16-15.62-18.58.05-.6.13-1.19.25-1.78l30.66-6.92c2.47,3.33,3.65,7.43,3.28,11.65Z"/>
          <path class="cls-10" d="M181.74,171.14c-17.5-1.51-30.75-15.89-30.81-33.44,0-.82.56-1.53,1.36-1.71l60.93-13.74c.79-.18,1.61.22,1.96.96,2.52,5.35,3.59,11.3,3.07,17.23-1.6,18.53-17.98,32.3-36.5,30.7ZM154.45,139.07c.73,15.1,12.37,27.28,27.6,28.6,16.61,1.44,31.29-10.91,32.73-27.53.42-4.85-.34-9.72-2.19-14.18l-58.14,13.11Z"/>
        </g>
        <path class="cls-10" d="M151.93,127.09c-.28-.02-.56-.12-.8-.28-.39-.26-.67-.66-.76-1.12l-1.62-8.28c-.18-.94.43-1.86,1.37-2.04.95-.19,1.86.43,2.04,1.37l1.28,6.52,57.14-12.95c.94-.21,1.87.38,2.08,1.31s-.38,1.87-1.31,2.08l-58.89,13.34c-.18.04-.36.05-.53.04Z"/>
        <g>
          <path class="cls-9" d="M63.62,140.29c1.52,17.6,17.02,30.63,34.62,29.11,16.61-1.44,29.16-15.34,29.22-31.72l-15.13-3.41-30.66-6.92-15.13-3.41c-2.33,4.93-3.42,10.52-2.91,16.34Z"/>
          <path class="cls-12" d="M78.38,139.01c.82,9.43,9.15,16.44,18.58,15.63,9.43-.82,16.43-9.16,15.62-18.58-.05-.6-.13-1.19-.25-1.78l-30.66-6.92c-2.47,3.33-3.65,7.43-3.28,11.65Z"/>
          <path class="cls-10" d="M61.88,140.44c-.51-5.93.55-11.89,3.07-17.23.35-.74,1.16-1.13,1.96-.96l60.93,13.74c.8.18,1.36.89,1.36,1.71-.06,17.55-13.31,31.93-30.81,33.44-18.52,1.6-34.9-12.17-36.5-30.7ZM67.54,125.96c-1.85,4.45-2.61,9.33-2.19,14.18,1.44,16.62,16.12,28.96,32.73,27.53,15.23-1.32,26.87-13.49,27.6-28.6l-58.14-13.11Z"/>
        </g>
        <path class="cls-10" d="M128.19,127.09c.28-.02.56-.12.8-.28.39-.26.67-.66.76-1.12l1.62-8.28c.18-.94-.43-1.86-1.37-2.04-.95-.19-1.86.43-2.04,1.37l-1.28,6.52-57.14-12.95c-.94-.21-1.87.38-2.08,1.31-.21.94.38,1.87,1.31,2.08l58.89,13.34c.18.04.36.05.53.04Z"/>
        <path class="cls-10" d="M91.1,230.51c-.23,0-.47-.05-.7-.15-.88-.39-1.28-1.41-.9-2.29,5.53-12.65,21.77-23.41,41.36-27.4,19.61-3.99,38.76-.45,48.8,9.03.7.66.73,1.76.07,2.46-.66.7-1.76.73-2.46.07-9.24-8.73-27.18-11.93-45.71-8.15-18.52,3.77-33.78,13.74-38.87,25.38-.29.65-.93,1.04-1.6,1.04Z"/>
      </g>
      <g>
        <path class="cls-3" d="M3.3,124.67c.35-.18.76-.25,1.17-.16.94.2,1.54,1.13,1.34,2.07-.04.19-4.03,19.08-1.44,33.44,6.03,33.42,29.61,42.15,29.85,42.24.91.32,1.38,1.31,1.06,2.22-.32.91-1.31,1.38-2.22,1.06-1.05-.37-25.72-9.4-32.12-44.9-2.72-15.05,1.29-34,1.46-34.8.11-.53.46-.95.9-1.18Z"/>
        <path class="cls-3" d="M4.8,131.93c-2.45-1.2-3.33-4.4-1.98-7.15,1.35-2.74,4.43-3.99,6.87-2.79,2.45,1.2,3.33,4.4,1.98,7.15-1.35,2.74-4.43,3.99-6.87,2.79Z"/>
      </g>
    </g>
  </g>
</svg>