<?xml version="1.0" encoding="UTF-8"?>
<svg id="Layer_2" xmlns="http://www.w3.org/2000/svg" viewBox="0 0 236.95 356.99">
  <defs>
    <style>
      .cls-1 {
        fill: #b2e513;
      }

      .cls-2 {
        fill: #a9c11a;
      }

      .cls-3 {
        fill: #fbd205;
      }

      .cls-4 {
        fill: #382208;
      }

      .cls-5 {
        fill: #f5881f;
      }

      .cls-6 {
        fill: #f68f1e;
      }

      .cls-7 {
        fill: #74ba2a;
      }

      .cls-8 {
        fill: #7dd82e;
      }

      .cls-9 {
        fill: #fff08a;
      }

      .cls-10 {
        fill: #e3ff6c;
      }

      .cls-11 {
        fill: #faa81d;
      }

      .cls-12 {
        fill: #b0f467;
      }

      .cls-13 {
        fill: #372411;
      }

      .cls-14 {
        fill: #fff2ba;
      }
    </style>
  </defs>
  <g id="Layer_1-2" data-name="Layer_1">
    <g>
      <g>
        <path class="cls-4" d="M89.57,350.64c2.24,0,4.17.5,5.69,1.1v-79.03c0-.97.7-1.85,1.66-1.94,1.11-.11,2.04.75,2.04,1.84v81.24s0,0,0,0v1.68c0,.8-.65,1.45-1.45,1.45h-8.35c-7.53,0-5.28-6.34.41-6.34Z"/>
        <path class="cls-4" d="M147.48,350.64c-2.24,0-4.17.5-5.69,1.1v-79.03c0-.97-.7-1.85-1.66-1.94-1.11-.11-2.04.75-2.04,1.84v81.24s0,0,0,0v1.68c0,.8.65,1.45,1.45,1.45h8.35c7.53,0,5.28-6.34-.41-6.34Z"/>
      </g>
      <g>
        <path class="cls-1" d="M82.22,1.83S115.84-.49,127.43,21.13c11.59,21.62,1.19,50.92,1.19,50.92,0,0-31.38-5.57-42.97-27.19-11.59-21.62-3.43-43.04-3.43-43.04Z"/>
        <path class="cls-10" d="M80.39,8.95c7.43-.13,35.97.69,46.74,20.8,3.44,6.43,5.08,13.48,5.64,20.32.54-9.13-.41-19.74-5.35-28.94C115.84-.49,82.22,1.82,82.22,1.82c0,0-1.02,2.69-1.83,7.12Z"/>
        <path class="cls-2" d="M96.63,57.72c13.79,11.09,32,14.33,32,14.33,0,0,2.59-7.27,3.73-17.25-3.41-.39-6.88-.58-10.4-.58-8.78,0-17.28,1.22-25.34,3.5Z"/>
        <path class="cls-4" d="M128.32,73.76c-1.32-.23-32.35-5.97-44.2-28.08-11.83-22.06-3.87-43.57-3.52-44.48.24-.63.83-1.07,1.51-1.12,1.42-.1,34.88-2.13,46.86,20.22,11.82,22.04,1.74,51.1,1.3,52.33-.25.7-.91,1.16-1.64,1.16-.1,0-.2,0-.31-.03ZM83.49,3.52c-1.39,4.52-5.93,22.57,3.69,40.52,9.64,17.98,33.99,24.56,40.26,25.98,1.84-6.08,8.1-30.07-1.55-48.07C116.77,4.94,92.72,3.5,84.86,3.5c-.53,0-.99,0-1.37.02Z"/>
        <path class="cls-4" d="M128.62,73.79c.17,0,.34-.02.51-.08.92-.28,1.44-1.26,1.15-2.17-.31-1.01-7.82-24.97-28.8-48.07-.65-.71-1.75-.76-2.46-.12-.71.65-.77,1.75-.12,2.46,20.43,22.5,27.97,46.52,28.05,46.76.23.75.92,1.23,1.66,1.23Z"/>
      </g>
      <g>
        <path class="cls-8" d="M208.74,19.87s-33.52-16.96-54.8.21-23.32,51.78-23.32,51.78c0,0,34.65,7.9,55.93-9.28,21.28-17.17,22.2-42.71,22.2-42.71Z"/>
        <path class="cls-12" d="M133.78,54.22c3.66-8.98,9.19-18.25,17.53-24.98,19.63-15.84,49.16-4.08,56.16-.93,1.16-5.08,1.28-8.44,1.28-8.44,0,0-33.52-16.97-54.81.21-11.24,9.07-17.12,23.01-20.15,34.14Z"/>
        <path class="cls-7" d="M130.61,71.86s22.85,5.21,42.83-2.05c-11.68-7.81-25.25-13.04-39.87-14.86-2.54,9.59-2.97,16.91-2.97,16.91Z"/>
        <path class="cls-4" d="M130.22,73.55c-.83-.19-1.4-.95-1.35-1.8.09-1.44,2.34-35.58,23.97-53.03,21.91-17.68,55.27-1.12,56.68-.41.61.31.98.94.95,1.62-.04,1.07-1.19,26.53-22.84,44-11.51,9.29-26.56,11.52-38.37,11.52-10.44,0-18.36-1.75-19.04-1.9ZM155.03,21.43c-17.94,14.48-21.85,42.26-22.55,49.02,6.76,1.23,35.02,5.25,52.96-9.23,17.89-14.43,20.97-35.25,21.46-40.29-5.73-2.6-33.78-14.11-51.88.5Z"/>
        <path class="cls-4" d="M130.61,73.6c.51,0,1.02-.23,1.37-.66.18-.23,18.71-23.34,49.48-37.6.87-.4,1.25-1.44.85-2.31-.4-.87-1.44-1.25-2.31-.85-31.56,14.62-50.56,38.36-50.75,38.59-.6.75-.47,1.85.29,2.45.32.25.7.38,1.08.38Z"/>
      </g>
      <g>
        <circle class="cls-11" cx="118.59" cy="170.49" r="111.08" transform="translate(-85.82 133.79) rotate(-45)"/>
        <path class="cls-5" d="M9.29,190.84c9.56,51.63,54.81,90.74,109.22,90.74s99.67-39.11,109.23-90.75c-20.02,40.04-61.41,67.54-109.23,67.54S29.29,230.88,9.29,190.84Z"/>
        <path class="cls-9" d="M23.62,112.68c22.96-26.66,56.95-43.53,94.88-43.53s71.9,16.86,94.86,43.51c-19.51-31.94-54.69-53.26-94.86-53.26s-75.37,21.33-94.88,53.28Z"/>
        <path class="cls-13" d="M5.68,170.49c0-62.21,50.61-112.82,112.82-112.82s112.82,50.61,112.82,112.82-50.61,112.82-112.82,112.82S5.68,232.7,5.68,170.49ZM9.16,170.49c0,60.29,49.05,109.34,109.34,109.34s109.34-49.05,109.34-109.34-49.05-109.34-109.34-109.34S9.16,110.2,9.16,170.49Z"/>
      </g>
      <g>
        <path class="cls-5" d="M148,240.41c-3.82,1.39-6.25,4.34-5.43,6.59.82,2.25,4.58,2.94,8.4,1.55,3.82-1.39,6.25-4.34,5.43-6.59-.82-2.25-4.58-2.94-8.4-1.55Z"/>
        <path class="cls-5" d="M131.58,249.09c-2.09.47-3.56,1.84-3.29,3.07.28,1.23,2.19,1.85,4.28,1.38,2.09-.47,3.56-1.84,3.29-3.07-.28-1.23-2.19-1.85-4.28-1.38Z"/>
      </g>
      <g>
        <path class="cls-3" d="M27.86,123.34c-1.49,2.89-1.33,5.94.37,6.82s4.29-.75,5.78-3.64c1.49-2.89,1.33-5.94-.37-6.82s-4.29.75-5.78,3.64Z"/>
        <path class="cls-3" d="M21.5,137.73c-1.08,2.09-.96,4.31.27,4.95,1.23.64,3.11-.54,4.19-2.64,1.08-2.09.96-4.31-.27-4.95-1.23-.64-3.11.54-4.19,2.64Z"/>
      </g>
      <g>
        <path class="cls-3" d="M125.03,180.36c.55-.78,1.62-1.01,2.49-.62l5.11,2.28c.95.42,1.49,1.5,1.16,2.48-.38,1.12-1.63,1.64-2.68,1.17l-5.28-2.36c-1.12-.5-1.54-1.91-.8-2.96Z"/>
        <path class="cls-3" d="M114.24,181.89c.55-.78,1.62-1.01,2.49-.62l5.11,2.28c.95.42,1.49,1.5,1.16,2.48-.38,1.12-1.63,1.64-2.68,1.17l-5.28-2.36c-1.12-.5-1.54-1.91-.8-2.96Z"/>
        <path class="cls-3" d="M103.46,183.41c.55-.78,1.62-1.01,2.49-.62l5.11,2.28c.95.42,1.49,1.5,1.16,2.48-.38,1.12-1.63,1.64-2.68,1.17l-5.28-2.36c-1.12-.5-1.54-1.91-.8-2.96Z"/>
      </g>
      <g>
        <path class="cls-4" d="M188.99,245.25c.12.02.24.02.37.01,1.78-.13,43.52-3.35,47.31-22.56,2.25-11.37-9.62-22.45-10.13-22.92-.71-.65-1.81-.61-2.46.1-.65.71-.61,1.81.1,2.46.11.1,10.94,10.23,9.07,19.68-3.28,16.61-43.74,19.73-44.15,19.76-.96.07-1.68.9-1.61,1.86.06.83.7,1.49,1.49,1.6Z"/>
        <path class="cls-4" d="M173.13,245.36c-.33-2.68,5.29-3.89,6.97-4.19.1-.02.09-.15,0-.18-3.05-.75-1.76-2.55,2.42-2.69,5.03-.17,7.43.98,7.91,4.87.43,3.48-2.79,4.98-6.7,5.45s-10.21-.12-10.6-3.26Z"/>
      </g>
      <g>
        <path class="cls-4" d="M47.97,245.25c-.12.02-.25.02-.37.01-1.78-.13-43.52-3.35-47.31-22.56-2.25-11.37,9.62-22.45,10.12-22.92.71-.65,1.81-.61,2.46.1.65.71.61,1.81-.1,2.46-.11.1-10.94,10.23-9.07,19.68,3.28,16.61,43.74,19.73,44.15,19.76.96.07,1.68.9,1.61,1.86-.06.83-.7,1.49-1.49,1.6Z"/>
        <path class="cls-4" d="M63.82,245.36c.33-2.68-5.29-3.89-6.97-4.19-.1-.02-.09-.15,0-.18,3.05-.75,1.76-2.55-2.42-2.69-5.03-.17-7.43.98-7.91,4.87-.43,3.48,2.79,4.98,6.7,5.45s10.21-.12,10.6-3.26Z"/>
      </g>
      <g>
        <path class="cls-13" d="M120.89,224.81c18,0,34.25-6.58,41.41-16.76.55-.79.36-1.87-.42-2.43s-1.87-.36-2.43.42c-6.53,9.28-21.67,15.28-38.57,15.28s-32.05-6-38.58-15.28c-.55-.79-1.64-.98-2.43-.42-.79.55-.98,1.64-.42,2.43,7.16,10.18,23.42,16.76,41.42,16.76Z"/>
        <circle class="cls-6" cx="189.99" cy="208.78" r="14.8"/>
        <circle class="cls-6" cx="51.78" cy="208.78" r="14.8"/>
        <g>
          <g>
            <circle class="cls-14" cx="161.75" cy="143.75" r="37.03" transform="translate(-11.24 13.74) rotate(-4.7)"/>
            <path class="cls-13" d="M122.99,143.75c0-21.38,17.39-38.77,38.77-38.77s38.77,17.39,38.77,38.77-17.39,38.77-38.77,38.77-38.77-17.39-38.77-38.77ZM126.47,143.75c0,19.46,15.83,35.29,35.29,35.29s35.29-15.83,35.29-35.29-15.83-35.29-35.29-35.29-35.29,15.83-35.29,35.29Z"/>
          </g>
          <circle class="cls-13" cx="152.94" cy="143.75" r="14.49" transform="translate(-20.97 26.23) rotate(-9.18)"/>
        </g>
        <g>
          <g>
            <circle class="cls-14" cx="79.72" cy="143.75" r="30.15"/>
            <path class="cls-13" d="M47.82,143.75c0-17.59,14.31-31.9,31.9-31.9s31.9,14.31,31.9,31.9-14.31,31.9-31.9,31.9-31.9-14.31-31.9-31.9ZM51.31,143.75c0,15.67,12.75,28.41,28.41,28.41s28.41-12.75,28.41-28.41-12.75-28.41-28.41-28.41-28.41,12.75-28.41,28.41Z"/>
          </g>
          <circle class="cls-13" cx="82.85" cy="143.75" r="11.8" transform="translate(-74.22 197.22) rotate(-78.84)"/>
        </g>
      </g>
    </g>
  </g>
</svg>