<?xml version="1.0" encoding="UTF-8"?>
<svg id="Layer_2" xmlns="http://www.w3.org/2000/svg" viewBox="0 0 236.95 356.59">
  <defs>
    <style>
      .cls-1 {
        fill: #bd2126;
      }

      .cls-2 {
        fill: #b2e513;
      }

      .cls-3 {
        fill: #432812;
      }

      .cls-4 {
        fill: #a9c11a;
      }

      .cls-5 {
        fill: #fbd205;
      }

      .cls-6 {
        fill: #382208;
      }

      .cls-7 {
        fill: #f5881f;
      }

      .cls-8 {
        fill: #74ba2a;
      }

      .cls-9 {
        fill: #7dd82e;
      }

      .cls-10 {
        fill: #fff08a;
      }

      .cls-11 {
        fill: #e3ff6c;
      }

      .cls-12 {
        fill: #faa81d;
      }

      .cls-13 {
        fill: #ec2224;
      }

      .cls-14 {
        fill: #583614;
      }

      .cls-15 {
        fill: #b0f467;
      }

      .cls-16 {
        fill: #372411;
      }

      .cls-17 {
        fill: #e1d6aa;
      }

      .cls-18 {
        fill: #fff2ba;
      }
    </style>
  </defs>
  <g id="Layer_1-2" data-name="Layer_1">
    <g>
      <g>
        <path class="cls-6" d="M89.54,350.25c2.24,0,4.17.5,5.69,1.1v-79.03c0-.97.7-1.85,1.66-1.94,1.11-.11,2.04.75,2.04,1.84v81.24s0,0,0,0v1.68c0,.8-.65,1.45-1.45,1.45h-8.35c-7.53,0-5.28-6.34.41-6.34Z"/>
        <path class="cls-6" d="M147.45,350.25c-2.24,0-4.17.5-5.69,1.1v-79.03c0-.97-.7-1.85-1.66-1.94-1.11-.11-2.04.75-2.04,1.84v81.24s0,0,0,0v1.68c0,.8.65,1.45,1.45,1.45h8.35c7.53,0,5.28-6.34-.41-6.34Z"/>
      </g>
      <g>
        <path class="cls-2" d="M82.22,1.82S115.84-.49,127.43,21.13s1.19,50.92,1.19,50.92c0,0-31.38-5.57-42.97-27.19-11.59-21.62-3.43-43.04-3.43-43.04Z"/>
        <path class="cls-11" d="M80.39,8.95c7.43-.13,35.97.69,46.74,20.8,3.44,6.43,5.08,13.48,5.64,20.32.54-9.13-.41-19.74-5.35-28.94C115.84-.49,82.22,1.82,82.22,1.82c0,0-1.02,2.69-1.83,7.12Z"/>
        <path class="cls-4" d="M96.63,57.72c13.79,11.09,32,14.33,32,14.33,0,0,2.59-7.27,3.74-17.25-3.41-.39-6.88-.58-10.4-.58-8.78,0-17.28,1.22-25.34,3.5Z"/>
        <path class="cls-6" d="M128.32,73.76c-1.32-.23-32.35-5.97-44.2-28.08-11.83-22.06-3.87-43.57-3.52-44.48.24-.63.83-1.07,1.51-1.12,1.42-.1,34.88-2.13,46.86,20.22,11.82,22.04,1.74,51.1,1.3,52.33-.25.7-.91,1.16-1.64,1.16-.1,0-.2,0-.31-.03ZM83.49,3.52c-1.39,4.52-5.93,22.57,3.69,40.52,9.64,17.98,33.99,24.56,40.26,25.98,1.84-6.08,8.1-30.07-1.55-48.07C116.77,4.94,92.72,3.5,84.86,3.5c-.53,0-.99,0-1.37.02Z"/>
        <path class="cls-6" d="M128.62,73.79c.17,0,.34-.02.51-.08.92-.28,1.44-1.26,1.15-2.17-.31-1.01-7.82-24.97-28.8-48.07-.65-.71-1.75-.76-2.46-.12-.71.65-.77,1.75-.12,2.46,20.43,22.5,27.97,46.52,28.05,46.76.23.75.92,1.23,1.66,1.23Z"/>
      </g>
      <g>
        <path class="cls-9" d="M208.74,19.87s-33.52-16.96-54.8.21c-21.28,17.17-23.32,51.78-23.32,51.78,0,0,34.65,7.9,55.93-9.28,21.28-17.17,22.2-42.71,22.2-42.71Z"/>
        <path class="cls-15" d="M133.78,54.22c3.66-8.98,9.19-18.25,17.53-24.98,19.63-15.84,49.16-4.08,56.16-.93,1.16-5.08,1.28-8.44,1.28-8.44,0,0-33.52-16.97-54.81.21-11.24,9.07-17.12,23.01-20.15,34.14Z"/>
        <path class="cls-8" d="M130.61,71.86s22.85,5.21,42.83-2.05c-11.68-7.81-25.25-13.04-39.87-14.86-2.54,9.59-2.97,16.91-2.97,16.91Z"/>
        <path class="cls-6" d="M130.22,73.55c-.83-.19-1.4-.95-1.35-1.8.09-1.44,2.34-35.58,23.97-53.03,21.91-17.68,55.27-1.12,56.68-.41.61.31.98.94.95,1.62-.04,1.08-1.19,26.53-22.84,44-11.51,9.29-26.56,11.52-38.37,11.52-10.44,0-18.36-1.75-19.04-1.9ZM155.03,21.43c-17.94,14.48-21.85,42.26-22.55,49.02,6.76,1.23,35.02,5.25,52.96-9.23,17.89-14.43,20.97-35.25,21.46-40.29-5.73-2.6-33.78-14.11-51.88.5Z"/>
        <path class="cls-6" d="M130.61,73.6c.51,0,1.02-.23,1.37-.66.18-.23,18.71-23.34,49.48-37.6.87-.4,1.25-1.44.85-2.31-.4-.87-1.44-1.25-2.31-.85-31.56,14.62-50.56,38.36-50.75,38.59-.6.75-.47,1.85.29,2.45.32.25.7.38,1.08.38Z"/>
      </g>
      <g>
        <circle class="cls-12" cx="118.59" cy="170.49" r="111.08" transform="translate(-85.82 133.79) rotate(-45)"/>
        <path class="cls-7" d="M9.29,190.84c9.56,51.63,54.81,90.74,109.22,90.74s99.67-39.11,109.23-90.75c-20.02,40.04-61.41,67.54-109.23,67.54S29.29,230.88,9.29,190.84Z"/>
        <path class="cls-10" d="M23.62,112.68c22.96-26.66,56.95-43.53,94.88-43.53s71.9,16.86,94.86,43.51c-19.51-31.94-54.69-53.26-94.86-53.26s-75.37,21.33-94.88,53.28Z"/>
        <path class="cls-16" d="M5.68,170.49c0-62.21,50.61-112.82,112.82-112.82s112.82,50.61,112.82,112.82-50.61,112.82-112.82,112.82S5.68,232.7,5.68,170.49ZM9.16,170.49c0,60.29,49.05,109.34,109.34,109.34s109.34-49.05,109.34-109.34-49.05-109.34-109.34-109.34S9.16,110.2,9.16,170.49Z"/>
      </g>
      <g>
        <path class="cls-7" d="M209.43,182.13c-1.88,3.61-1.68,7.43.44,8.53,2.12,1.11,5.36-.92,7.24-4.53,1.88-3.61,1.68-7.43-.44-8.53-2.12-1.11-5.37.92-7.24,4.53Z"/>
        <path class="cls-7" d="M203.18,199.62c-1.23,1.76-1.38,3.76-.35,4.49,1.03.72,2.87-.12,4.09-1.87,1.23-1.76,1.38-3.76.35-4.49-1.03-.72-2.86.12-4.09,1.87Z"/>
      </g>
      <g>
        <path class="cls-5" d="M19.79,149.78c-.81,3.15.04,6.09,1.89,6.57,1.85.48,4.01-1.69,4.82-4.84s-.04-6.09-1.89-6.57c-1.85-.48-4.01,1.69-4.82,4.84Z"/>
        <path class="cls-5" d="M16.81,165.22c-.59,2.28.03,4.42,1.37,4.76,1.34.35,2.91-1.23,3.49-3.51.59-2.28-.03-4.42-1.37-4.76-1.34-.34-2.91,1.23-3.49,3.51Z"/>
      </g>
      <g>
        <path class="cls-5" d="M125.03,131.05c.55-.78,1.62-1.01,2.49-.62l5.11,2.28c.95.42,1.49,1.5,1.16,2.48-.38,1.12-1.63,1.64-2.68,1.17l-5.28-2.36c-1.12-.5-1.54-1.91-.8-2.96Z"/>
        <path class="cls-5" d="M114.24,132.57c.55-.78,1.62-1.01,2.49-.62l5.11,2.28c.95.42,1.49,1.5,1.16,2.48-.38,1.12-1.63,1.64-2.68,1.17l-5.28-2.36c-1.12-.5-1.54-1.91-.8-2.96Z"/>
        <path class="cls-5" d="M103.46,134.1c.55-.78,1.62-1.01,2.49-.62l5.11,2.28c.95.42,1.49,1.5,1.16,2.48-.38,1.12-1.63,1.64-2.68,1.17l-5.28-2.36c-1.12-.5-1.54-1.91-.8-2.96Z"/>
      </g>
      <g>
        <g>
          <path class="cls-13" d="M225.32,103.13c2.71-27.03-23.48-33.69-37.17-22.63-.55.45-1.38.25-1.68-.39-7.4-15.96-33.84-21.55-43.34,3.9-9.76,26.16,22.31,59.53,29.1,61.11,6.79,1.58,50.3-14.21,53.09-41.99Z"/>
          <path class="cls-1" d="M172.23,145.11c6.78,1.58,50.3-14.21,53.09-41.99.43-4.24.14-7.97-.69-11.22-6.24,25.3-45.94,39.52-52.39,38.02-5.26-1.23-25.65-21.5-30.08-42.73-6.24,25.6,23.57,56.39,30.08,57.91Z"/>
          <path class="cls-16" d="M171.88,146.63c-4.7-1.1-17.35-13.29-25.19-27.89-4.89-9.12-9.74-22.64-5.02-35.29,4.24-11.36,12.43-18.09,22.49-18.48,9.67-.37,19.21,5.34,23.47,13.95,7.63-5.84,18.73-6.74,27.22-2.15,8.85,4.79,13.23,14.45,12.02,26.51h0c-1.35,13.43-11.66,23.42-20.08,29.45-12.32,8.81-27.35,14.04-33.44,14.04-.57,0-1.07-.05-1.47-.14ZM223.77,102.97c1.48-14.72-5.88-21.01-10.4-23.46-7.59-4.1-17.55-3.2-24.24,2.2-.64.52-1.47.71-2.27.52-.8-.19-1.46-.72-1.81-1.47-3.61-7.79-12.16-12.99-20.78-12.67-5.13.2-14.52,2.6-19.69,16.46-4.31,11.55.25,24.17,4.84,32.72,7.99,14.89,20,25.59,23.15,26.33,3.15.74,18.65-3.57,32.39-13.4,7.89-5.65,17.56-14.95,18.79-27.22h0Z"/>
        </g>
        <g>
          <g>
            <path class="cls-14" d="M118.38,172.56c30.13,0,71.68,1.82,71.68,1.82,0,67.18-47.12,67.18-71.68,67.18s-71.68,0-71.68-67.18c0,0,41.55-1.82,71.68-1.82Z"/>
            <ellipse class="cls-3" cx="118.38" cy="206.88" rx="42.35" ry="32.59"/>
            <path class="cls-16" d="M72.47,234.68c-18.26-10.32-27.52-30.61-27.52-60.3,0-.93.73-1.7,1.66-1.74.42-.02,41.94-1.82,71.76-1.82s71.35,1.81,71.76,1.82c.93.04,1.66.81,1.66,1.74,0,29.69-9.26,49.98-27.52,60.3-15.25,8.62-33.7,8.62-45.91,8.62s-30.66,0-45.91-8.62ZM118.38,174.3c-26.34,0-61.86,1.41-69.93,1.75.77,63.78,45.7,63.77,69.93,63.77s69.17,0,69.93-63.77c-8.07-.34-43.59-1.75-69.93-1.75Z"/>
          </g>
          <g>
            <path class="cls-18" d="M56.85,217.25c15.23,24.12,44.07,24.12,61.53,24.12s46.3,0,61.53-24.12v-.02c-1.93-6.95-8.09-11.88-15.3-12.22-.34-.02-.69-.03-1.05-.05-9.26-.41-23.86-.82-45.18-.82s-37.03.45-46.23.88c-7.21.34-13.39,5.27-15.3,12.24h0Z"/>
            <path class="cls-17" d="M56.86,217.25c15.23,24.12,44.07,24.12,61.53,24.12s46.3,0,61.54-24.12v-.03c-.47-1.65-1.17-3.2-2.07-4.59-15.66,21.1-42.76,21.1-59.46,21.1s-43.81,0-59.46-21.11c-.91,1.4-1.6,2.95-2.06,4.62Z"/>
            <path class="cls-16" d="M55.38,218.18c-.26-.41-.34-.92-.21-1.39,2.12-7.71,8.91-13.14,16.9-13.51,8.58-.4,23.58-.88,46.31-.88,17.53,0,32.75.28,45.26.83l1.06.05c7.98.38,14.76,5.8,16.89,13.52.13.47.05.98-.21,1.39-15.74,24.93-45.33,24.93-63,24.93s-47.26,0-63-24.93ZM164.54,206.75l-1.05-.05c-12.45-.55-27.63-.82-45.1-.82-22.67,0-37.61.48-46.15.88-6.22.29-11.55,4.37-13.48,10.23,14.83,22.65,42.84,22.65,59.63,22.65s44.8,0,59.63-22.65c-1.93-5.86-7.26-9.94-13.48-10.23Z"/>
          </g>
          <g>
            <path class="cls-18" d="M54.62,174.05c.57,9.26,7.5,17,16.78,18.43,10.94,1.67,26.89,3.35,46.99,3.35s36.05-1.67,46.98-3.35c9.28-1.43,16.21-9.16,16.78-18.43-13.52-.53-41.7-1.5-63.76-1.5s-50.25.97-63.77,1.5Z"/>
            <path class="cls-17" d="M54.62,174.05c.17,2.78.91,5.42,2.12,7.79,14.18-.54,40.68-1.41,61.65-1.41s47.45.87,61.63,1.41c1.21-2.37,1.96-5.01,2.12-7.79-13.52-.52-41.7-1.5-63.76-1.5s-50.25.98-63.77,1.5Z"/>
            <path class="cls-16" d="M71.14,194.2c-9.96-1.53-17.64-9.96-18.25-20.04-.03-.47.13-.93.45-1.27.31-.35.75-.55,1.22-.57,11.55-.45,40.88-1.5,63.84-1.5s52.28,1.05,63.82,1.5c.47.02.91.22,1.22.57.31.35.48.81.45,1.27-.62,10.08-8.29,18.51-18.25,20.04-10.03,1.54-26.36,3.37-47.24,3.37s-37.22-1.83-47.26-3.37ZM118.39,174.3c-21.75,0-49.25.95-61.83,1.43,1.24,7.65,7.35,13.84,15.11,15.04,9.92,1.52,26.08,3.33,46.73,3.33s36.81-1.81,46.71-3.33c7.76-1.19,13.87-7.38,15.11-15.04-12.58-.48-40.08-1.43-61.82-1.43Z"/>
          </g>
        </g>
        <g>
          <path class="cls-13" d="M11.86,103.13c-2.71-27.03,23.48-33.69,37.17-22.63.55.45,1.38.25,1.68-.39,7.4-15.96,33.84-21.55,43.34,3.9,9.76,26.16-22.31,59.53-29.1,61.11-6.79,1.58-50.3-14.21-53.09-41.99Z"/>
          <path class="cls-1" d="M64.94,145.11c-6.78,1.58-50.3-14.21-53.09-41.99-.43-4.24-.14-7.97.69-11.22,6.24,25.3,45.94,39.52,52.39,38.02,5.26-1.23,25.65-21.5,30.08-42.73,6.24,25.6-23.57,56.39-30.08,57.91Z"/>
          <path class="cls-16" d="M63.82,146.77c-6.09,0-21.13-5.23-33.44-14.04-8.42-6.02-18.73-16.02-20.08-29.45h0c-1.21-12.06,3.17-21.73,12.02-26.51,8.49-4.59,19.59-3.69,27.22,2.15,4.26-8.61,13.8-14.32,23.47-13.95,10.05.39,18.25,7.12,22.49,18.48,4.72,12.64-.12,26.17-5.02,35.29-7.83,14.6-20.48,26.79-25.19,27.89-.4.09-.9.14-1.47.14ZM13.41,102.97c1.23,12.27,10.9,21.58,18.79,27.22,13.74,9.83,29.25,14.14,32.39,13.4,3.15-.73,15.16-11.44,23.15-26.33,4.59-8.55,9.15-21.17,4.84-32.72-5.17-13.86-14.55-16.26-19.69-16.46-8.62-.32-17.16,4.88-20.78,12.67-.35.75-1,1.28-1.81,1.47-.8.19-1.63,0-2.27-.52-6.68-5.4-16.65-6.3-24.24-2.2-4.52,2.44-11.88,8.74-10.4,23.46h0Z"/>
        </g>
      </g>
      <g>
        <path class="cls-6" d="M188.99,245.25c.12.02.25.02.37.01,1.78-.13,43.52-3.35,47.31-22.56,2.25-11.37-9.62-22.45-10.12-22.92-.71-.65-1.81-.61-2.46.1-.65.71-.61,1.81.1,2.46.11.1,10.94,10.23,9.07,19.68-3.28,16.61-43.74,19.73-44.15,19.76-.96.07-1.68.9-1.61,1.86.06.83.7,1.49,1.49,1.6Z"/>
        <path class="cls-6" d="M173.13,245.36c-.33-2.68,5.29-3.89,6.97-4.19.1-.02.09-.15,0-.18-3.05-.75-1.76-2.55,2.42-2.69,5.03-.17,7.44.98,7.91,4.87.43,3.48-2.79,4.98-6.7,5.45-3.9.48-10.21-.12-10.6-3.26Z"/>
      </g>
      <g>
        <path class="cls-6" d="M47.97,245.25c-.12.02-.24.02-.37.01-1.78-.13-43.52-3.35-47.31-22.56-2.25-11.37,9.62-22.45,10.13-22.92.71-.65,1.81-.61,2.46.1.65.71.61,1.81-.1,2.46-.11.1-10.94,10.23-9.07,19.68,3.28,16.61,43.74,19.73,44.15,19.76.96.07,1.68.9,1.61,1.86-.06.83-.7,1.49-1.49,1.6Z"/>
        <path class="cls-6" d="M63.82,245.36c.33-2.68-5.29-3.89-6.97-4.19-.1-.02-.09-.15,0-.18,3.05-.75,1.76-2.55-2.42-2.69-5.03-.17-7.43.98-7.91,4.87-.43,3.48,2.79,4.98,6.7,5.45,3.9.48,10.21-.12,10.6-3.26Z"/>
      </g>
    </g>
  </g>
</svg>